{"glyphs":{"0":{"ha":1107,"x_min":103,"x_max":1004,"o":"m 755 347 q 764 337 762 344 q 763 322 766 330 q 635 186 718 237 q 453 135 552 135 q 277 182 358 135 q 150 310 197 229 q 103 486 103 391 q 150 661 103 581 q 277 789 197 742 q 453 836 358 836 q 635 785 552 836 q 763 649 718 734 q 764 634 766 642 q 755 624 762 627 q 741 622 747 620 q 729 631 732 625 q 615 753 689 707 q 453 798 542 798 q 232 707 323 798 q 140 486 140 615 q 232 264 140 356 q 453 173 323 173 q 615 218 542 173 q 729 340 689 264 q 741 349 732 347 q 755 347 747 351 m 703 635 q 696 637 699 633 q 593 736 658 699 q 453 772 528 772 q 309 734 375 772 q 204 630 243 696 q 166 486 166 564 q 204 341 166 408 q 309 237 243 275 q 453 199 375 199 q 593 235 529 199 q 696 334 658 272 q 703 335 699 338 q 705 328 708 333 q 598 225 665 263 q 453 188 532 188 q 304 228 372 188 q 195 336 235 268 q 155 486 155 405 q 195 635 155 566 q 304 743 235 703 q 453 783 372 783 q 598 746 532 783 q 705 644 665 708 q 703 635 709 638 m 492 534 l 492 471 q 477 461 484 470 l 477 534 q 476 543 477 541 q 473 547 475 546 q 464 548 469 548 l 464 551 q 473 551 466 551 q 485 551 479 551 q 496 551 490 551 q 505 551 503 551 l 505 548 q 496 547 500 548 q 493 543 494 546 q 492 534 492 539 m 464 437 l 464 441 q 473 442 469 441 q 476 446 475 443 q 483 457 479 452 q 489 463 486 461 l 492 463 l 492 454 q 493 446 492 450 q 496 442 494 443 q 505 441 500 441 l 505 437 q 496 438 503 437 q 485 438 490 438 q 473 438 479 438 q 464 437 466 437 m 341 511 q 332 499 338 503 q 313 492 325 494 l 315 492 q 327 488 322 491 q 334 482 332 486 q 338 471 335 481 l 342 454 q 344 447 342 451 q 346 443 345 444 q 350 441 347 441 q 354 443 351 441 l 359 448 l 361 446 q 353 437 355 438 q 344 435 349 435 q 333 439 337 435 q 327 453 329 444 l 323 469 q 319 481 320 481 q 315 489 317 487 q 305 492 312 492 l 290 492 l 290 454 q 291 446 290 450 q 294 442 292 443 q 302 441 298 441 l 302 437 q 294 438 300 437 q 282 438 287 438 q 270 438 277 438 q 262 437 264 437 l 262 441 q 270 442 266 441 q 274 446 273 444 q 275 454 275 448 l 275 534 q 274 543 275 541 q 270 547 273 545 q 262 548 266 548 l 262 551 q 270 551 264 551 q 281 551 277 551 l 295 551 q 301 551 298 551 q 306 551 305 551 q 327 547 317 551 q 340 537 336 543 q 345 523 345 530 q 341 511 345 517 m 317 498 q 321 499 317 498 q 326 507 324 501 q 328 522 328 513 q 322 541 328 534 q 302 548 316 548 q 294 547 297 548 q 291 543 292 545 q 290 534 290 538 l 290 494 l 300 494 q 317 498 311 494 m 432 442 q 435 447 435 443 q 433 454 435 451 l 423 481 l 422 484 l 404 532 l 386 484 l 385 481 l 378 464 q 374 450 374 455 q 378 443 374 445 q 389 441 380 441 l 389 437 q 379 438 385 437 q 370 438 373 438 q 363 438 368 438 q 358 437 359 437 l 358 441 q 371 454 366 443 l 408 552 l 411 552 l 450 451 q 461 441 454 441 l 461 437 q 454 438 460 437 q 444 438 448 438 q 433 438 439 438 q 424 437 426 437 l 424 441 q 432 442 428 441 m 567 491 q 576 480 574 485 q 581 466 581 472 q 576 449 581 457 q 564 439 572 442 q 546 435 555 435 q 534 437 537 435 q 524 441 527 439 q 519 444 520 444 q 516 441 517 444 q 515 437 515 440 l 511 437 q 512 475 512 443 l 516 475 q 524 448 517 457 q 545 438 530 438 q 555 441 549 438 q 563 448 560 443 q 566 460 566 452 q 563 471 566 466 q 555 480 559 476 q 541 489 553 481 q 533 494 538 491 q 526 499 528 498 q 516 510 522 502 q 512 525 512 516 q 516 541 512 534 q 527 550 521 547 q 543 553 533 553 q 551 552 549 553 q 557 550 555 551 l 562 547 l 568 545 q 570 547 568 545 q 571 552 571 549 l 574 552 q 574 519 574 546 l 570 519 q 567 534 569 530 q 558 545 564 541 q 544 550 551 550 q 534 547 539 550 q 527 541 529 545 q 524 531 524 536 q 530 517 524 523 q 542 507 537 510 q 546 505 544 507 q 549 503 548 504 q 551 502 551 502 q 567 491 561 496 m 673 484 q 652 481 664 481 l 648 481 l 642 481 q 633 486 632 482 q 635 489 633 488 q 639 490 635 490 q 675 493 660 489 q 696 506 690 497 q 702 530 702 513 l 702 530 l 703 530 l 703 531 l 703 531 l 703 531 l 703 531 l 703 531 l 704 531 l 704 531 l 704 531 l 704 531 l 704 531 l 705 530 l 705 530 q 698 505 705 514 q 675 492 690 496 q 639 488 660 488 q 635 488 636 488 q 640 484 632 486 q 644 483 642 483 l 652 483 q 673 486 663 483 q 692 494 684 488 q 707 508 702 500 q 713 526 713 516 q 710 540 713 533 q 701 549 708 544 q 690 556 694 555 q 687 557 689 557 q 683 559 684 558 q 680 559 682 559 q 662 562 671 562 q 648 560 657 562 q 633 557 638 559 q 620 553 624 555 q 608 548 616 552 q 606 547 607 548 q 604 546 605 547 q 603 545 604 545 q 601 544 602 544 l 597 541 q 588 532 592 537 q 585 519 585 528 l 585 519 l 585 518 q 595 502 586 508 q 621 503 606 494 l 621 503 l 621 503 l 621 503 l 622 503 l 622 503 l 622 502 l 622 502 l 622 502 l 622 501 l 622 501 l 622 501 l 622 501 l 621 501 q 593 500 605 492 q 583 517 586 505 l 583 517 l 583 518 l 583 519 l 583 519 l 583 522 q 584 529 583 525 q 587 535 586 534 q 588 537 587 536 q 589 538 589 538 l 592 541 l 595 544 l 599 547 q 614 555 608 553 q 631 561 623 559 q 648 564 641 564 q 664 565 653 565 q 676 564 668 565 q 688 561 684 562 q 698 555 690 560 q 707 548 705 551 q 713 536 711 543 q 715 526 715 532 q 712 514 715 519 q 710 511 711 513 q 708 507 709 509 q 706 504 707 505 q 699 497 701 499 q 692 493 694 494 q 673 484 684 488 m 616 458 l 641 541 q 643 542 641 542 q 644 541 644 542 q 645 540 645 541 l 644 539 l 617 457 q 616 456 617 456 q 616 457 616 456 l 616 458 m 781 522 l 780 522 q 779 523 779 522 l 779 524 l 781 527 q 782 528 781 528 q 783 528 783 528 l 784 527 l 784 526 l 784 526 l 782 522 q 781 522 782 522 m 1001 491 q 1004 488 1004 490 q 1002 484 1004 486 q 993 481 999 482 q 956 488 989 480 q 903 487 927 494 q 865 488 878 479 q 863 490 864 489 q 861 491 862 490 q 861 492 861 492 l 861 492 l 855 482 l 852 477 q 850 472 850 473 l 846 467 q 842 463 845 465 q 836 458 839 458 q 835 475 833 459 l 837 485 l 839 495 q 841 500 840 497 q 842 505 842 504 q 835 494 838 498 q 828 485 833 490 q 820 476 824 479 q 812 474 816 473 q 809 476 810 475 q 808 486 807 479 q 803 479 808 486 q 792 468 796 471 q 782 471 784 464 q 781 488 780 479 q 760 457 773 477 q 758 451 758 454 q 755 446 757 448 q 741 410 743 415 q 734 398 737 401 l 732 395 q 731 395 731 395 q 730 395 731 395 l 729 396 q 728 401 728 397 q 729 408 728 403 q 740 431 731 414 q 757 458 751 450 q 770 494 769 492 l 770 493 l 766 490 q 763 487 764 488 q 756 489 758 485 l 755 486 l 753 482 q 751 480 753 481 q 750 479 750 479 q 747 476 749 477 q 739 478 741 472 q 740 490 737 482 q 739 489 739 490 l 738 488 q 734 487 735 487 q 732 488 733 487 q 732 491 732 490 q 733 496 732 493 q 734 500 734 500 q 721 487 727 494 q 711 472 714 479 l 710 471 l 709 472 l 709 473 q 713 490 711 481 q 716 499 714 493 q 719 508 718 505 q 649 470 696 471 l 649 470 l 648 470 l 648 470 l 648 471 l 648 471 l 648 471 l 648 471 l 648 472 l 649 472 l 649 472 q 690 484 669 472 q 723 519 711 495 q 724 520 723 520 q 726 519 726 520 l 726 519 l 726 518 l 724 513 l 718 495 q 715 487 716 492 q 713 483 715 486 q 712 478 712 479 q 720 490 713 479 q 729 500 721 492 l 735 505 l 736 507 l 737 507 q 739 508 738 508 q 740 507 740 508 l 740 506 q 739 504 740 505 q 737 501 737 502 q 734 488 731 490 q 741 492 736 488 q 754 507 745 505 q 756 505 756 507 l 757 505 q 758 503 758 503 l 758 500 l 758 497 q 758 496 758 496 l 758 495 l 757 492 l 757 492 l 757 490 l 758 488 q 760 487 760 487 q 764 489 761 487 l 768 495 q 772 500 771 499 l 772 500 l 772 502 q 774 503 772 503 l 774 503 l 774 503 l 774 502 l 775 502 l 774 502 l 775 501 q 762 465 768 481 q 768 473 764 468 q 775 483 772 479 q 781 492 778 488 l 783 494 q 790 507 785 502 q 799 511 794 513 q 802 500 804 509 q 791 484 795 484 q 788 486 789 484 l 788 487 q 789 487 789 488 q 791 486 789 486 q 797 493 793 486 l 797 494 q 798 508 802 507 q 791 502 795 509 q 785 486 787 494 q 785 471 783 477 q 795 473 789 465 q 802 481 798 476 q 806 487 806 486 q 807 489 806 488 q 809 491 808 490 l 810 492 l 810 492 q 817 506 812 500 q 828 511 821 512 q 833 509 831 511 q 833 503 835 506 q 827 499 831 500 q 823 501 824 498 q 826 503 823 503 q 828 503 827 503 q 831 503 829 501 q 832 507 833 504 q 827 510 831 511 q 812 486 819 508 q 812 476 809 477 q 829 488 819 475 q 845 515 839 501 l 838 514 q 837 515 837 514 q 838 516 837 516 l 846 517 q 854 538 847 521 q 857 539 854 541 q 859 537 859 538 q 849 517 853 527 q 874 518 863 519 q 893 520 886 517 q 901 532 901 523 l 903 533 q 906 527 905 531 q 902 519 907 524 q 888 515 897 515 q 870 516 879 515 q 848 515 861 517 q 842 494 845 509 q 840 491 841 493 q 840 488 840 489 q 840 485 840 487 q 839 483 840 484 l 836 472 q 836 460 834 461 q 842 463 838 459 q 847 470 846 467 l 848 473 q 851 478 850 474 q 854 483 853 481 q 857 488 854 485 q 860 494 859 492 q 859 496 859 495 q 859 502 858 499 q 861 506 859 505 q 864 506 863 507 q 861 493 867 503 q 865 490 862 492 q 903 488 878 480 q 956 489 927 495 q 992 482 989 481 q 1000 485 999 484 q 1002 488 1002 487 l 1000 490 q 998 490 1000 490 q 997 488 997 489 q 998 487 997 487 q 999 488 999 487 q 1001 487 1000 490 q 1000 486 1001 486 l 999 486 l 997 486 q 996 488 996 487 q 1001 491 996 493 m 741 478 q 751 481 744 472 q 755 490 754 486 q 752 490 753 490 q 749 494 749 491 l 749 500 l 751 504 l 751 503 q 749 502 750 503 l 749 500 l 747 499 q 743 489 745 496 q 741 481 741 484 q 741 479 741 480 q 741 478 741 479 m 755 492 q 756 498 756 496 q 755 504 757 502 l 754 504 q 753 503 753 503 q 753 501 753 502 q 752 499 752 500 q 751 495 751 498 q 755 492 751 493 m 753 447 q 753 448 753 448 l 753 448 q 742 429 752 446 q 732 408 735 417 q 731 405 732 407 q 730 401 730 402 q 730 397 730 398 q 732 399 731 397 q 738 410 734 403 q 753 447 742 420 m 863 505 q 860 501 861 505 q 861 494 859 498 q 863 505 867 503 m 409 741 l 412 726 l 390 720 l 393 711 l 413 716 l 416 703 l 396 697 l 398 688 l 422 694 l 425 679 l 385 669 l 370 730 l 409 741 m 526 670 l 509 673 l 510 710 l 488 677 l 482 677 l 471 717 l 460 681 l 443 684 l 463 745 l 480 743 l 490 706 l 510 738 l 528 735 l 526 670 m 623 671 q 624 664 623 671 q 616 646 625 657 q 594 632 608 634 q 568 640 581 631 q 554 663 556 650 q 560 688 551 676 q 583 701 569 699 q 608 694 595 703 q 623 671 621 685 m 578 653 q 602 656 591 643 q 599 680 612 670 q 586 684 592 685 q 574 677 578 682 q 578 653 565 664 m 302 695 q 327 702 315 704 q 348 688 340 700 q 353 664 356 677 q 339 643 351 651 l 318 628 l 281 680 l 302 695 m 333 678 q 323 685 329 684 q 311 682 317 686 l 305 677 l 323 652 l 329 656 q 333 678 342 665 m 344 314 q 345 308 344 314 q 337 291 346 302 q 315 279 328 280 q 291 287 302 278 l 271 303 l 311 353 l 331 336 q 344 314 342 327 m 315 329 l 295 304 l 300 300 q 323 302 313 290 q 320 325 333 315 l 315 329 m 497 233 l 492 232 l 469 266 l 470 229 l 452 226 l 452 290 l 469 293 l 490 261 l 499 298 l 516 301 l 536 239 l 519 237 l 508 272 l 497 233 m 416 280 l 394 286 l 391 277 l 412 272 l 408 258 l 387 264 l 385 254 l 408 248 l 404 233 l 363 245 l 381 306 l 420 295 l 416 280 m 594 341 q 616 328 607 340 q 623 303 625 316 q 608 280 621 290 q 583 272 596 271 q 560 286 569 274 q 553 311 551 297 q 568 333 555 324 q 594 341 580 342 m 599 293 q 602 317 612 303 q 590 323 598 322 q 578 320 585 324 q 574 296 565 309 q 599 293 585 282 m 593 570 q 585 571 587 567 q 529 623 564 604 q 454 642 494 642 q 378 623 413 642 q 322 570 343 604 q 315 568 320 566 q 313 576 311 570 q 374 632 336 611 q 454 653 411 653 q 534 632 498 653 q 594 577 571 612 q 593 570 597 572 m 593 414 q 601 417 596 420 q 604 410 606 414 q 543 343 583 368 q 454 318 503 318 q 363 345 404 318 q 302 416 322 372 q 304 423 299 420 l 305 423 q 311 420 309 424 q 369 354 330 379 q 454 329 408 329 q 536 352 499 329 q 593 414 574 376 m 218 484 q 279 643 218 574 q 283 645 281 645 q 287 644 286 645 q 288 636 291 640 q 229 484 229 572 q 278 342 229 404 q 277 335 281 339 q 270 336 273 331 q 218 484 218 401 m 629 642 q 634 640 632 642 q 663 600 654 616 q 661 592 666 595 q 653 594 655 589 q 625 633 640 616 q 626 641 622 637 q 629 642 627 642 m 677 439 q 682 443 679 443 l 684 443 q 688 437 690 441 q 644 339 677 384 q 636 338 640 335 q 635 345 632 342 q 677 439 667 387 z "},"1":{"ha":1107,"x_min":103,"x_max":1004,"o":"m 755 347 q 764 337 762 344 q 763 322 766 330 q 635 186 718 237 q 453 135 552 135 q 277 182 358 135 q 150 310 197 229 q 103 486 103 391 q 150 661 103 581 q 277 789 197 742 q 453 836 358 836 q 635 785 552 836 q 763 649 718 734 q 764 634 766 642 q 755 624 762 627 q 741 622 747 620 q 729 631 732 625 q 615 753 689 707 q 453 798 542 798 q 232 707 323 798 q 140 486 140 615 q 232 264 140 356 q 453 173 323 173 q 615 218 542 173 q 729 340 689 264 q 741 349 732 347 q 755 347 747 351 m 703 635 q 696 637 699 633 q 593 736 658 699 q 453 772 528 772 q 309 734 375 772 q 204 630 243 696 q 166 486 166 564 q 204 341 166 408 q 309 237 243 275 q 453 199 375 199 q 593 235 529 199 q 696 334 658 272 q 703 335 699 338 q 705 328 708 333 q 598 225 665 263 q 453 188 532 188 q 304 228 372 188 q 195 336 235 268 q 155 486 155 405 q 195 635 155 566 q 304 743 235 703 q 453 783 372 783 q 598 746 532 783 q 705 644 665 708 q 703 635 709 638 m 492 534 l 492 471 q 477 461 484 470 l 477 534 q 476 543 477 541 q 473 547 475 546 q 464 548 469 548 l 464 551 q 473 551 466 551 q 485 551 479 551 q 496 551 490 551 q 505 551 503 551 l 505 548 q 496 547 500 548 q 493 543 494 546 q 492 534 492 539 m 464 437 l 464 441 q 473 442 469 441 q 476 446 475 443 q 483 457 479 452 q 489 463 486 461 l 492 463 l 492 454 q 493 446 492 450 q 496 442 494 443 q 505 441 500 441 l 505 437 q 496 438 503 437 q 485 438 490 438 q 473 438 479 438 q 464 437 466 437 m 341 511 q 332 499 338 503 q 313 492 325 494 l 315 492 q 327 488 322 491 q 334 482 332 486 q 338 471 335 481 l 342 454 q 344 447 342 451 q 346 443 345 444 q 350 441 347 441 q 354 443 351 441 l 359 448 l 361 446 q 353 437 355 438 q 344 435 349 435 q 333 439 337 435 q 327 453 329 444 l 323 469 q 319 481 320 481 q 315 489 317 487 q 305 492 312 492 l 290 492 l 290 454 q 291 446 290 450 q 294 442 292 443 q 302 441 298 441 l 302 437 q 294 438 300 437 q 282 438 287 438 q 270 438 277 438 q 262 437 264 437 l 262 441 q 270 442 266 441 q 274 446 273 444 q 275 454 275 448 l 275 534 q 274 543 275 541 q 270 547 273 545 q 262 548 266 548 l 262 551 q 270 551 264 551 q 281 551 277 551 l 295 551 q 301 551 298 551 q 306 551 305 551 q 327 547 317 551 q 340 537 336 543 q 345 523 345 530 q 341 511 345 517 m 317 498 q 321 499 317 498 q 326 507 324 501 q 328 522 328 513 q 322 541 328 534 q 302 548 316 548 q 294 547 297 548 q 291 543 292 545 q 290 534 290 538 l 290 494 l 300 494 q 317 498 311 494 m 432 442 q 435 447 435 443 q 433 454 435 451 l 423 481 l 422 484 l 404 532 l 386 484 l 385 481 l 378 464 q 374 450 374 455 q 378 443 374 445 q 389 441 380 441 l 389 437 q 379 438 385 437 q 370 438 373 438 q 363 438 368 438 q 358 437 359 437 l 358 441 q 371 454 366 443 l 408 552 l 411 552 l 450 451 q 461 441 454 441 l 461 437 q 454 438 460 437 q 444 438 448 438 q 433 438 439 438 q 424 437 426 437 l 424 441 q 432 442 428 441 m 567 491 q 576 480 574 485 q 581 466 581 472 q 576 449 581 457 q 564 439 572 442 q 546 435 555 435 q 534 437 537 435 q 524 441 527 439 q 519 444 520 444 q 516 441 517 444 q 515 437 515 440 l 511 437 q 512 475 512 443 l 516 475 q 524 448 517 457 q 545 438 530 438 q 555 441 549 438 q 563 448 560 443 q 566 460 566 452 q 563 471 566 466 q 555 480 559 476 q 541 489 553 481 q 533 494 538 491 q 526 499 528 498 q 516 510 522 502 q 512 525 512 516 q 516 541 512 534 q 527 550 521 547 q 543 553 533 553 q 551 552 549 553 q 557 550 555 551 l 562 547 l 568 545 q 570 547 568 545 q 571 552 571 549 l 574 552 q 574 519 574 546 l 570 519 q 567 534 569 530 q 558 545 564 541 q 544 550 551 550 q 534 547 539 550 q 527 541 529 545 q 524 531 524 536 q 530 517 524 523 q 542 507 537 510 q 546 505 544 507 q 549 503 548 504 q 551 502 551 502 q 567 491 561 496 m 616 458 l 641 541 q 643 542 641 542 q 644 541 644 542 q 645 540 645 541 l 644 539 l 617 457 q 616 456 617 456 q 616 457 616 456 l 616 458 m 673 484 q 652 481 664 481 l 648 481 l 642 481 q 633 486 632 482 q 635 489 633 488 q 639 490 635 490 q 675 493 660 489 q 696 506 690 497 q 702 530 702 513 l 702 530 l 703 530 l 703 531 l 703 531 l 703 531 l 703 531 l 703 531 l 704 531 l 704 531 l 704 531 l 704 531 l 704 531 l 705 530 l 705 530 q 698 505 705 514 q 675 492 690 496 q 639 488 660 488 q 635 488 636 488 q 640 484 632 486 q 644 483 642 483 l 652 483 q 673 486 663 483 q 692 494 684 488 q 707 508 702 500 q 713 526 713 516 q 710 540 713 533 q 701 549 708 544 q 690 556 694 555 q 687 557 689 557 q 683 559 684 558 q 680 559 682 559 q 662 562 671 562 q 648 560 657 562 q 633 557 638 559 q 620 553 624 555 q 608 548 616 552 q 606 547 607 548 q 604 546 605 547 q 603 545 604 545 q 601 544 602 544 l 597 541 q 588 532 592 537 q 585 519 585 528 l 585 519 l 585 518 q 595 502 586 508 q 621 503 606 494 l 621 503 l 621 503 l 621 503 l 622 503 l 622 503 l 622 502 l 622 502 l 622 502 l 622 501 l 622 501 l 622 501 l 622 501 l 621 501 q 593 500 605 492 q 583 517 586 505 l 583 517 l 583 518 l 583 519 l 583 519 l 583 522 q 584 529 583 525 q 587 535 586 534 q 588 537 587 536 q 589 538 589 538 l 592 541 l 595 544 l 599 547 q 614 555 608 553 q 631 561 623 559 q 648 564 641 564 q 664 565 653 565 q 676 564 668 565 q 688 561 684 562 q 698 555 690 560 q 707 548 705 551 q 713 536 711 543 q 715 526 715 532 q 712 514 715 519 q 710 511 711 513 q 708 507 709 509 q 706 504 707 505 q 699 497 701 499 q 692 493 694 494 q 673 484 684 488 m 781 522 l 780 522 q 779 523 779 522 l 779 524 l 781 527 q 782 528 781 528 q 783 528 783 528 l 784 527 l 784 526 l 784 526 l 782 522 q 781 522 782 522 m 1001 491 q 1004 488 1004 490 q 1002 484 1004 486 q 993 481 999 482 q 956 488 989 480 q 903 487 927 494 q 865 488 878 479 q 863 490 864 489 q 861 491 862 490 q 861 492 861 492 l 861 492 l 855 482 l 852 477 q 850 472 850 473 l 846 467 q 842 463 845 465 q 836 458 839 458 q 835 475 833 459 l 837 485 l 839 495 q 841 500 840 497 q 842 505 842 504 q 835 494 838 498 q 828 485 833 490 q 820 476 824 479 q 812 474 816 473 q 809 476 810 475 q 808 486 807 479 q 803 479 808 486 q 792 468 796 471 q 782 471 784 464 q 781 488 780 479 q 760 457 773 477 q 758 451 758 454 q 755 446 757 448 q 741 410 743 415 q 734 398 737 401 l 732 395 q 731 395 731 395 q 730 395 731 395 l 729 396 q 728 401 728 397 q 729 408 728 403 q 740 431 731 414 q 757 458 751 450 q 770 494 769 492 l 770 493 l 766 490 q 763 487 764 488 q 756 489 758 485 l 755 486 l 753 482 q 751 480 753 481 q 750 479 750 479 q 747 476 749 477 q 739 478 741 472 q 740 490 737 482 q 739 489 739 490 l 738 488 q 734 487 735 487 q 732 488 733 487 q 732 491 732 490 q 733 496 732 493 q 734 500 734 500 q 721 487 727 494 q 711 472 714 479 l 710 471 l 709 472 l 709 473 q 713 490 711 481 q 716 499 714 493 q 719 508 718 505 q 649 470 696 471 l 649 470 l 648 470 l 648 470 l 648 471 l 648 471 l 648 471 l 648 471 l 648 472 l 649 472 l 649 472 q 690 484 669 472 q 723 519 711 495 q 724 520 723 520 q 726 519 726 520 l 726 519 l 726 518 l 724 513 l 718 495 q 715 487 716 492 q 713 483 715 486 q 712 478 712 479 q 720 490 713 479 q 729 500 721 492 l 735 505 l 736 507 l 737 507 q 739 508 738 508 q 740 507 740 508 l 740 506 q 739 504 740 505 q 737 501 737 502 q 734 488 731 490 q 741 492 736 488 q 754 507 745 505 q 756 505 756 507 l 757 505 q 758 503 758 503 l 758 500 l 758 497 q 758 496 758 496 l 758 495 l 757 492 l 757 492 l 757 490 l 758 488 q 760 487 760 487 q 764 489 761 487 l 768 495 q 772 500 771 499 l 772 500 l 772 502 q 774 503 772 503 l 774 503 l 774 503 l 774 502 l 775 502 l 774 502 l 775 501 q 762 465 768 481 q 768 473 764 468 q 775 483 772 479 q 781 492 778 488 l 783 494 q 790 507 785 502 q 799 511 794 513 q 802 500 804 509 q 791 484 795 484 q 788 486 789 484 l 788 487 q 789 487 789 488 q 791 486 789 486 q 797 493 793 486 l 797 494 q 798 508 802 507 q 791 502 795 509 q 785 486 787 494 q 785 471 783 477 q 795 473 789 465 q 802 481 798 476 q 806 487 806 486 q 807 489 806 488 q 809 491 808 490 l 810 492 l 810 492 q 817 506 812 500 q 828 511 821 512 q 833 509 831 511 q 833 503 835 506 q 827 499 831 500 q 823 501 824 498 q 826 503 823 503 q 828 503 827 503 q 831 503 829 501 q 832 507 833 504 q 827 510 831 511 q 812 486 819 508 q 812 476 809 477 q 829 488 819 475 q 845 515 839 501 l 838 514 q 837 515 837 514 q 838 516 837 516 l 846 517 q 854 538 847 521 q 857 539 854 541 q 859 537 859 538 q 849 517 853 527 q 874 518 863 519 q 893 520 886 517 q 901 532 901 523 l 903 533 q 906 527 905 531 q 902 519 907 524 q 888 515 897 515 q 870 516 879 515 q 848 515 861 517 q 842 494 845 509 q 840 491 841 493 q 840 488 840 489 q 840 485 840 487 q 839 483 840 484 l 836 472 q 836 460 834 461 q 842 463 838 459 q 847 470 846 467 l 848 473 q 851 478 850 474 q 854 483 853 481 q 857 488 854 485 q 860 494 859 492 q 859 496 859 495 q 859 502 858 499 q 861 506 859 505 q 864 506 863 507 q 861 493 867 503 q 865 490 862 492 q 903 488 878 480 q 956 489 927 495 q 992 482 989 481 q 1000 485 999 484 q 1002 488 1002 487 l 1000 490 q 998 490 1000 490 q 997 488 997 489 q 998 487 997 487 q 999 488 999 487 q 1001 487 1000 490 q 1000 486 1001 486 l 999 486 l 997 486 q 996 488 996 487 q 1001 491 996 493 m 741 478 q 751 481 744 472 q 755 490 754 486 q 752 490 753 490 q 749 494 749 491 l 749 500 l 751 504 l 751 503 q 749 502 750 503 l 749 500 l 747 499 q 743 489 745 496 q 741 481 741 484 q 741 479 741 480 q 741 478 741 479 m 755 492 q 756 498 756 496 q 755 504 757 502 l 754 504 q 753 503 753 503 q 753 501 753 502 q 752 499 752 500 q 751 495 751 498 q 755 492 751 493 m 753 447 q 753 448 753 448 l 753 448 q 742 429 752 446 q 732 408 735 417 q 731 405 732 407 q 730 401 730 402 q 730 397 730 398 q 732 399 731 397 q 738 410 734 403 q 753 447 742 420 m 863 505 q 860 501 861 505 q 861 494 859 498 q 863 505 867 503 m 526 670 l 509 673 l 510 710 l 488 677 l 482 677 l 471 717 l 460 681 l 443 684 l 463 745 l 480 743 l 490 706 l 510 738 l 528 735 l 526 670 m 623 671 q 624 664 623 671 q 616 646 625 657 q 594 632 608 634 q 568 640 581 631 q 554 663 556 650 q 560 688 551 676 q 583 701 569 699 q 608 694 595 703 q 623 671 621 685 m 578 653 q 602 656 591 643 q 599 680 612 670 q 586 684 592 685 q 574 677 578 682 q 578 653 565 664 m 409 741 l 412 726 l 390 720 l 393 711 l 413 716 l 416 703 l 396 697 l 398 688 l 422 694 l 425 679 l 385 669 l 370 730 l 409 741 m 302 695 q 327 702 315 704 q 348 688 340 700 q 353 664 356 677 q 339 643 351 651 l 318 628 l 281 680 l 302 695 m 333 678 q 323 685 329 684 q 311 682 317 686 l 305 677 l 323 652 l 329 656 q 333 678 342 665 m 497 233 l 492 232 l 469 266 l 470 229 l 452 226 l 452 290 l 469 293 l 490 261 l 499 298 l 516 301 l 536 239 l 518 237 l 508 272 l 497 233 m 416 280 l 394 286 l 391 277 l 412 272 l 408 258 l 387 264 l 385 254 l 408 248 l 404 233 l 363 245 l 381 306 l 420 295 l 416 280 m 568 333 q 593 341 580 342 q 616 328 607 340 q 623 303 625 316 q 608 280 621 290 q 583 272 596 271 q 560 286 569 274 q 553 311 551 297 q 568 333 555 324 m 599 293 q 602 317 612 303 q 590 323 598 322 q 578 320 585 324 q 574 296 565 309 q 599 293 585 282 m 344 314 q 345 308 344 314 q 337 291 346 302 q 315 279 328 280 q 291 287 302 278 l 271 303 l 311 353 l 331 336 q 344 314 342 327 m 315 329 l 295 304 l 300 300 q 323 302 313 290 q 320 325 333 315 l 315 329 m 593 570 q 585 571 587 567 q 529 623 564 604 q 454 642 494 642 q 378 623 413 642 q 322 570 343 604 q 315 568 320 566 q 313 576 311 570 q 373 632 336 611 q 454 653 410 653 q 534 632 497 653 q 594 577 571 612 q 593 570 597 572 m 593 414 q 601 417 596 420 q 604 410 606 414 q 543 343 583 368 q 454 318 503 318 q 363 345 404 318 q 302 416 322 372 q 304 423 299 420 l 305 423 q 311 420 309 424 q 369 354 330 379 q 454 329 408 329 q 536 352 499 329 q 593 414 574 376 m 218 484 q 279 643 218 574 q 283 645 281 645 q 287 644 286 645 q 288 636 291 640 q 229 484 229 572 q 278 342 229 404 q 277 335 281 339 q 270 336 273 331 q 218 484 218 401 m 677 439 q 682 443 679 443 l 684 443 q 688 437 690 441 q 644 339 677 384 q 636 338 640 335 q 635 345 632 342 q 677 439 667 387 m 629 642 q 634 640 632 642 q 663 600 654 616 q 661 592 666 595 q 653 594 655 589 q 625 633 640 616 q 626 641 622 637 q 629 642 627 642 z "},"2":{"ha":1107,"x_min":103,"x_max":1004,"o":"m 755 347 q 764 337 762 344 q 763 322 766 330 q 635 186 718 237 q 453 135 552 135 q 277 182 358 135 q 150 310 197 229 q 103 486 103 391 q 150 661 103 581 q 277 789 197 742 q 453 836 358 836 q 635 785 552 836 q 763 649 718 734 q 764 634 766 642 q 755 624 762 627 q 741 622 747 620 q 729 631 732 625 q 615 753 689 707 q 453 798 542 798 q 232 707 323 798 q 140 486 140 615 q 232 264 140 356 q 453 173 323 173 q 615 218 542 173 q 729 340 689 264 q 741 349 732 347 q 755 347 747 351 m 703 635 q 696 637 699 633 q 593 736 658 699 q 453 772 528 772 q 309 734 375 772 q 204 630 243 696 q 166 486 166 564 q 204 341 166 408 q 309 237 243 275 q 453 199 375 199 q 593 235 529 199 q 696 334 658 272 q 703 335 699 338 q 705 328 708 333 q 598 225 665 263 q 453 188 532 188 q 304 228 372 188 q 195 336 235 268 q 155 486 155 405 q 195 635 155 566 q 304 743 235 703 q 453 783 372 783 q 598 746 532 783 q 705 644 665 708 q 703 635 709 638 m 492 534 l 492 471 q 477 461 484 470 l 477 534 q 476 543 477 541 q 473 547 475 546 q 464 548 469 548 l 464 551 q 473 551 466 551 q 485 551 479 551 q 496 551 490 551 q 505 551 503 551 l 505 548 q 496 547 500 548 q 493 543 494 546 q 492 534 492 539 m 464 437 l 464 441 q 473 442 469 441 q 476 446 475 443 q 483 457 479 452 q 489 463 486 461 l 492 463 l 492 454 q 493 446 492 450 q 496 442 494 443 q 505 441 500 441 l 505 437 q 496 438 503 437 q 485 438 490 438 q 473 438 479 438 q 464 437 466 437 m 341 511 q 332 499 338 503 q 313 492 325 494 l 315 492 q 327 488 322 491 q 334 482 332 486 q 338 471 335 481 l 342 454 q 344 447 342 451 q 346 443 345 444 q 350 441 347 441 q 354 443 351 441 l 359 448 l 361 446 q 353 437 355 438 q 344 435 349 435 q 333 439 337 435 q 327 453 329 444 l 323 469 q 319 481 320 481 q 315 489 317 487 q 305 492 312 492 l 290 492 l 290 454 q 291 446 290 450 q 294 442 292 443 q 302 441 298 441 l 302 437 q 294 438 300 437 q 282 438 287 438 q 270 438 277 438 q 262 437 264 437 l 262 441 q 270 442 266 441 q 274 446 273 444 q 275 454 275 448 l 275 534 q 274 543 275 541 q 270 547 273 545 q 262 548 266 548 l 262 551 q 270 551 264 551 q 281 551 277 551 l 295 551 q 301 551 298 551 q 306 551 305 551 q 327 547 317 551 q 340 537 336 543 q 345 523 345 530 q 341 511 345 517 m 317 498 q 321 499 317 498 q 326 507 324 501 q 328 522 328 513 q 322 541 328 534 q 302 548 316 548 q 294 547 297 548 q 291 543 292 545 q 290 534 290 538 l 290 494 l 300 494 q 317 498 311 494 m 432 442 q 435 447 435 443 q 433 454 435 451 l 423 481 l 422 484 l 404 532 l 386 484 l 385 481 l 378 464 q 374 450 374 455 q 378 443 374 445 q 389 441 380 441 l 389 437 q 379 438 385 437 q 370 438 373 438 q 363 438 368 438 q 358 437 359 437 l 358 441 q 371 454 366 443 l 408 552 l 411 552 l 450 451 q 461 441 454 441 l 461 437 q 454 438 460 437 q 444 438 448 438 q 433 438 439 438 q 424 437 426 437 l 424 441 q 432 442 428 441 m 567 491 q 576 480 574 485 q 581 466 581 472 q 576 449 581 457 q 564 439 572 442 q 546 435 555 435 q 534 437 537 435 q 524 441 527 439 q 519 444 520 444 q 516 441 517 444 q 515 437 515 440 l 511 437 q 512 475 512 443 l 516 475 q 524 448 517 457 q 545 438 530 438 q 555 441 549 438 q 563 448 560 443 q 566 460 566 452 q 563 471 566 466 q 555 480 559 476 q 541 489 553 481 q 533 494 538 491 q 526 499 528 498 q 516 510 522 502 q 512 525 512 516 q 516 541 512 534 q 527 550 521 547 q 543 553 533 553 q 551 552 549 553 q 557 550 555 551 l 562 547 l 568 545 q 570 547 568 545 q 571 552 571 549 l 574 552 q 574 519 574 546 l 570 519 q 567 534 569 530 q 558 545 564 541 q 544 550 551 550 q 534 547 539 550 q 527 541 529 545 q 524 531 524 536 q 530 517 524 523 q 542 507 537 510 q 546 505 544 507 q 549 503 548 504 q 551 502 551 502 q 567 491 561 496 m 673 484 q 652 481 664 481 l 648 481 l 642 481 q 633 486 632 482 q 635 489 633 488 q 639 490 635 490 q 675 493 660 489 q 696 506 690 497 q 702 530 702 513 l 702 530 l 703 530 l 703 531 l 703 531 l 703 531 l 703 531 l 703 531 l 704 531 l 704 531 l 704 531 l 704 531 l 704 531 l 705 530 l 705 530 q 698 505 705 514 q 675 492 690 496 q 639 488 660 488 q 635 488 636 488 q 640 484 632 486 q 644 483 642 483 l 652 483 q 673 486 663 483 q 692 494 684 488 q 707 508 702 500 q 713 526 713 516 q 710 540 713 533 q 701 549 708 544 q 690 556 694 555 q 687 557 689 557 q 683 559 684 558 q 680 559 682 559 q 662 562 671 562 q 648 560 657 562 q 633 557 638 559 q 620 553 624 555 q 608 548 616 552 q 606 547 607 548 q 604 546 605 547 q 603 545 604 545 q 601 544 602 544 l 597 541 q 588 532 592 537 q 585 519 585 528 l 585 519 l 585 518 q 595 502 586 508 q 621 503 606 494 l 621 503 l 621 503 l 621 503 l 622 503 l 622 503 l 622 502 l 622 502 l 622 502 l 622 501 l 622 501 l 622 501 l 622 501 l 621 501 q 593 500 605 492 q 583 517 586 505 l 583 517 l 583 518 l 583 519 l 583 519 l 583 522 q 584 529 583 525 q 587 535 586 534 q 588 537 587 536 q 589 538 589 538 l 592 541 l 595 544 l 599 547 q 614 555 608 553 q 631 561 623 559 q 648 564 641 564 q 664 565 653 565 q 676 564 668 565 q 688 561 684 562 q 698 555 690 560 q 707 548 705 551 q 713 536 711 543 q 715 526 715 532 q 712 514 715 519 q 710 511 711 513 q 708 507 709 509 q 706 504 707 505 q 699 497 701 499 q 692 493 694 494 q 673 484 684 488 m 616 458 l 641 541 q 643 542 641 542 q 644 541 644 542 q 645 540 645 541 l 644 539 l 617 457 q 616 456 617 456 q 616 457 616 456 l 616 458 m 781 522 l 780 522 q 779 523 779 522 l 779 524 l 781 527 q 782 528 781 528 q 783 528 783 528 l 784 527 l 784 526 l 784 526 l 782 522 q 781 522 782 522 m 1001 491 q 1004 488 1004 490 q 1002 484 1004 486 q 993 481 999 482 q 956 488 989 480 q 903 487 927 494 q 865 488 878 479 q 863 490 864 489 q 861 491 862 490 q 861 492 861 492 l 861 492 l 855 482 l 852 477 q 850 472 850 473 l 846 467 q 842 463 845 465 q 836 458 839 458 q 835 475 833 459 l 837 485 l 839 495 q 841 500 840 497 q 842 505 842 504 q 835 494 838 498 q 828 485 833 490 q 820 476 824 479 q 812 474 816 473 q 809 476 810 475 q 808 486 807 479 q 803 479 808 486 q 792 468 796 471 q 782 471 784 464 q 781 488 780 479 q 760 457 773 477 q 758 451 758 454 q 755 446 757 448 q 741 410 743 415 q 734 398 737 401 l 732 395 q 731 395 731 395 q 730 395 731 395 l 729 396 q 728 401 728 397 q 729 408 728 403 q 740 431 731 414 q 757 458 751 450 q 770 494 769 492 l 770 493 l 766 490 q 763 487 764 488 q 756 489 758 485 l 755 486 l 753 482 q 751 480 753 481 q 750 479 750 479 q 747 476 749 477 q 739 478 741 472 q 740 490 737 482 q 739 489 739 490 l 738 488 q 734 487 735 487 q 732 488 733 487 q 732 491 732 490 q 733 496 732 493 q 734 500 734 500 q 721 487 727 494 q 711 472 714 479 l 710 471 l 709 472 l 709 473 q 713 490 711 481 q 716 499 714 493 q 719 508 718 505 q 649 470 696 471 l 649 470 l 648 470 l 648 470 l 648 471 l 648 471 l 648 471 l 648 471 l 648 472 l 649 472 l 649 472 q 690 484 669 472 q 723 519 711 495 q 724 520 723 520 q 726 519 726 520 l 726 519 l 726 518 l 724 513 l 718 495 q 715 487 716 492 q 713 483 715 486 q 712 478 712 479 q 720 490 713 479 q 729 500 721 492 l 735 505 l 736 507 l 737 507 q 739 508 738 508 q 740 507 740 508 l 740 506 q 739 504 740 505 q 737 501 737 502 q 734 488 731 490 q 741 492 736 488 q 754 507 745 505 q 756 505 756 507 l 757 505 q 758 503 758 503 l 758 500 l 758 497 q 758 496 758 496 l 758 495 l 757 492 l 757 492 l 757 490 l 758 488 q 760 487 760 487 q 764 489 761 487 l 768 495 q 772 500 771 499 l 772 500 l 772 502 q 774 503 772 503 l 774 503 l 774 503 l 774 502 l 775 502 l 774 502 l 775 501 q 762 465 768 481 q 768 473 764 468 q 775 483 772 479 q 781 492 778 488 l 783 494 q 790 507 785 502 q 799 511 794 513 q 802 500 804 509 q 791 484 795 484 q 788 486 789 484 l 788 487 q 789 487 789 488 q 791 486 789 486 q 797 493 793 486 l 797 494 q 798 508 802 507 q 791 502 795 509 q 785 486 787 494 q 785 471 783 477 q 795 473 789 465 q 802 481 798 476 q 806 487 806 486 q 807 489 806 488 q 809 491 808 490 l 810 492 l 810 492 q 817 506 812 500 q 828 511 821 512 q 833 509 831 511 q 833 503 835 506 q 827 499 831 500 q 823 501 824 498 q 826 503 823 503 q 828 503 827 503 q 831 503 829 501 q 832 507 833 504 q 827 510 831 511 q 812 486 819 508 q 812 476 809 477 q 829 488 819 475 q 845 515 839 501 l 838 514 q 837 515 837 514 q 838 516 837 516 l 846 517 q 854 538 847 521 q 857 539 854 541 q 859 537 859 538 q 849 517 853 527 q 874 518 863 519 q 893 520 886 517 q 901 532 901 523 l 903 533 q 906 527 905 531 q 902 519 907 524 q 888 515 897 515 q 870 516 879 515 q 848 515 861 517 q 842 494 845 509 q 840 491 841 493 q 840 488 840 489 q 840 485 840 487 q 839 483 840 484 l 836 472 q 836 460 834 461 q 842 463 838 459 q 847 470 846 467 l 848 473 q 851 478 850 474 q 854 483 853 481 q 857 488 854 485 q 860 494 859 492 q 859 496 859 495 q 859 502 858 499 q 861 506 859 505 q 864 506 863 507 q 861 493 867 503 q 865 490 862 492 q 903 488 878 480 q 956 489 927 495 q 992 482 989 481 q 1000 485 999 484 q 1002 488 1002 487 l 1000 490 q 998 490 1000 490 q 997 488 997 489 q 998 487 997 487 q 999 488 999 487 q 1001 487 1000 490 q 1000 486 1001 486 l 999 486 l 997 486 q 996 488 996 487 q 1001 491 996 493 m 741 478 q 751 481 744 472 q 755 490 754 486 q 752 490 753 490 q 749 494 749 491 l 749 500 l 751 504 l 751 503 q 749 502 750 503 l 749 500 l 747 499 q 743 489 745 496 q 741 481 741 484 q 741 479 741 480 q 741 478 741 479 m 755 492 q 756 498 756 496 q 755 504 757 502 l 754 504 q 753 503 753 503 q 753 501 753 502 q 752 499 752 500 q 751 495 751 498 q 755 492 751 493 m 753 447 q 753 448 753 448 l 753 448 q 742 429 752 446 q 732 408 735 417 q 731 405 732 407 q 730 401 730 402 q 730 397 730 398 q 732 399 731 397 q 738 410 734 403 q 753 447 742 420 m 863 505 q 860 501 861 505 q 861 494 859 498 q 863 505 867 503 m 623 671 q 624 664 623 671 q 616 646 625 657 q 594 632 608 634 q 568 640 581 631 q 554 663 556 650 q 560 688 551 676 q 583 701 569 699 q 608 694 595 703 q 623 671 621 685 m 578 653 q 602 656 591 643 q 599 680 612 670 q 586 684 592 685 q 574 677 578 682 q 578 653 565 664 m 409 741 l 412 726 l 390 720 l 393 711 l 413 716 l 416 703 l 396 697 l 398 688 l 422 694 l 425 679 l 385 669 l 370 730 l 409 741 m 302 695 q 327 702 315 704 q 348 688 340 700 q 353 664 356 677 q 339 643 351 651 l 318 628 l 281 680 l 302 695 m 333 678 q 323 685 329 684 q 311 682 317 686 l 305 677 l 323 652 l 329 656 q 333 678 342 665 m 526 670 l 509 673 l 510 710 l 488 677 l 482 677 l 471 717 l 460 681 l 443 684 l 463 745 l 480 743 l 490 706 l 510 738 l 528 735 l 526 670 m 344 314 q 345 308 344 314 q 337 291 346 302 q 315 279 328 280 q 291 287 302 278 l 271 303 l 311 353 l 331 336 q 344 314 342 327 m 315 329 l 295 304 l 300 300 q 323 302 313 290 q 320 325 333 315 l 315 329 m 497 233 l 492 232 l 469 266 l 470 229 l 452 226 l 452 290 l 469 293 l 490 261 l 499 298 l 516 301 l 536 239 l 519 237 l 508 272 l 497 233 m 594 341 q 616 328 607 340 q 623 303 625 316 q 608 280 621 290 q 583 272 596 271 q 560 286 569 274 q 553 311 551 297 q 568 333 555 324 q 594 341 580 342 m 599 293 q 602 317 612 303 q 590 323 598 322 q 578 320 585 324 q 574 296 565 309 q 599 293 585 282 m 416 280 l 394 286 l 391 277 l 412 272 l 408 258 l 387 264 l 385 254 l 408 248 l 404 233 l 363 245 l 381 306 l 420 295 l 416 280 m 593 570 q 585 571 587 567 q 529 623 564 604 q 454 642 494 642 q 378 623 413 642 q 322 570 343 604 q 315 568 320 566 q 313 576 311 570 q 374 632 336 611 q 454 653 411 653 q 534 632 498 653 q 594 577 571 612 q 593 570 597 572 m 593 414 q 601 417 596 420 q 604 410 606 414 q 543 343 583 368 q 454 318 503 318 q 363 345 404 318 q 302 416 322 372 q 304 423 299 420 l 305 423 q 311 420 309 424 q 369 354 330 379 q 454 329 408 329 q 536 352 499 329 q 593 414 574 376 m 218 484 q 279 643 218 574 q 283 645 281 645 q 287 644 286 645 q 288 636 291 640 q 229 484 229 572 q 278 342 229 404 q 277 335 281 339 q 270 336 273 331 q 218 484 218 401 m 629 642 q 634 640 632 642 q 663 600 654 616 q 661 592 666 595 q 653 594 655 589 q 625 633 640 616 q 626 641 622 637 q 629 642 627 642 m 677 439 q 682 443 679 443 l 684 443 q 688 437 690 441 q 644 339 677 384 q 636 338 640 335 q 635 345 632 342 q 677 439 667 387 z "},"3":{"ha":1107,"x_min":103,"x_max":1004,"o":"m 755 347 q 764 337 762 344 q 763 322 766 330 q 635 186 718 237 q 453 135 552 135 q 277 182 358 135 q 150 310 197 229 q 103 486 103 391 q 150 661 103 581 q 277 789 197 742 q 453 836 358 836 q 635 785 552 836 q 763 649 718 734 q 764 634 766 642 q 755 624 762 627 q 741 622 747 620 q 729 631 732 625 q 615 753 689 707 q 453 798 542 798 q 232 707 323 798 q 140 486 140 615 q 232 264 140 356 q 453 173 323 173 q 615 218 542 173 q 729 340 689 264 q 741 349 732 347 q 755 347 747 351 m 703 635 q 696 637 699 633 q 593 736 658 699 q 453 772 528 772 q 309 734 375 772 q 204 630 243 696 q 166 486 166 564 q 204 341 166 408 q 309 237 243 275 q 453 199 375 199 q 593 235 529 199 q 696 334 658 272 q 703 335 699 338 q 705 328 708 333 q 598 225 665 263 q 453 188 532 188 q 304 228 372 188 q 195 336 235 268 q 155 486 155 405 q 195 635 155 566 q 304 743 235 703 q 453 783 372 783 q 598 746 532 783 q 705 644 665 708 q 703 635 709 638 m 492 534 l 492 471 q 477 461 484 470 l 477 534 q 476 543 477 541 q 473 547 475 546 q 464 548 469 548 l 464 551 q 473 551 466 551 q 485 551 479 551 q 496 551 490 551 q 505 551 503 551 l 505 548 q 496 547 500 548 q 493 543 494 546 q 492 534 492 539 m 464 437 l 464 441 q 473 442 469 441 q 476 446 475 443 q 483 457 479 452 q 489 463 486 461 l 492 463 l 492 454 q 493 446 492 450 q 496 442 494 443 q 505 441 500 441 l 505 437 q 496 438 503 437 q 485 438 490 438 q 473 438 479 438 q 464 437 466 437 m 341 511 q 332 499 338 503 q 313 492 325 494 l 315 492 q 327 488 322 491 q 334 482 332 486 q 338 471 335 481 l 342 454 q 344 447 342 451 q 346 443 345 444 q 350 441 347 441 q 354 443 351 441 l 359 448 l 361 446 q 353 437 355 438 q 344 435 349 435 q 333 439 337 435 q 327 453 329 444 l 323 469 q 319 481 320 481 q 315 489 317 487 q 305 492 312 492 l 290 492 l 290 454 q 291 446 290 450 q 294 442 292 443 q 302 441 298 441 l 302 437 q 294 438 300 437 q 282 438 287 438 q 270 438 277 438 q 262 437 264 437 l 262 441 q 270 442 266 441 q 274 446 273 444 q 275 454 275 448 l 275 534 q 274 543 275 541 q 270 547 273 545 q 262 548 266 548 l 262 551 q 270 551 264 551 q 281 551 277 551 l 295 551 q 301 551 298 551 q 306 551 305 551 q 327 547 317 551 q 340 537 336 543 q 345 523 345 530 q 341 511 345 517 m 317 498 q 321 499 317 498 q 326 507 324 501 q 328 522 328 513 q 322 541 328 534 q 302 548 316 548 q 294 547 297 548 q 291 543 292 545 q 290 534 290 538 l 290 494 l 300 494 q 317 498 311 494 m 432 442 q 435 447 435 443 q 433 454 435 451 l 423 481 l 422 484 l 404 532 l 386 484 l 385 481 l 378 464 q 374 450 374 455 q 378 443 374 445 q 389 441 380 441 l 389 437 q 379 438 385 437 q 370 438 373 438 q 363 438 368 438 q 358 437 359 437 l 358 441 q 371 454 366 443 l 408 552 l 411 552 l 450 451 q 461 441 454 441 l 461 437 q 454 438 460 437 q 444 438 448 438 q 433 438 439 438 q 424 437 426 437 l 424 441 q 432 442 428 441 m 567 491 q 576 480 574 485 q 581 466 581 472 q 576 449 581 457 q 564 439 572 442 q 546 435 555 435 q 534 437 537 435 q 524 441 527 439 q 519 444 520 444 q 516 441 517 444 q 515 437 515 440 l 511 437 q 512 475 512 443 l 516 475 q 524 448 517 457 q 545 438 530 438 q 555 441 549 438 q 563 448 560 443 q 566 460 566 452 q 563 471 566 466 q 555 480 559 476 q 541 489 553 481 q 533 494 538 491 q 526 499 528 498 q 516 510 522 502 q 512 525 512 516 q 516 541 512 534 q 527 550 521 547 q 543 553 533 553 q 551 552 549 553 q 557 550 555 551 l 562 547 l 568 545 q 570 547 568 545 q 571 552 571 549 l 574 552 q 574 519 574 546 l 570 519 q 567 534 569 530 q 558 545 564 541 q 544 550 551 550 q 534 547 539 550 q 527 541 529 545 q 524 531 524 536 q 530 517 524 523 q 542 507 537 510 q 546 505 544 507 q 549 503 548 504 q 551 502 551 502 q 567 491 561 496 m 616 458 l 641 541 q 643 542 641 542 q 644 541 644 542 q 645 540 645 541 l 644 539 l 617 457 q 616 456 617 456 q 616 457 616 456 l 616 458 m 673 484 q 652 481 664 481 l 648 481 l 642 481 q 633 486 632 482 q 635 489 633 488 q 639 490 635 490 q 675 493 660 489 q 696 506 690 497 q 702 530 702 513 l 702 530 l 703 530 l 703 531 l 703 531 l 703 531 l 703 531 l 703 531 l 704 531 l 704 531 l 704 531 l 704 531 l 704 531 l 705 530 l 705 530 q 698 505 705 514 q 675 492 690 496 q 639 488 660 488 q 635 488 636 488 q 640 484 632 486 q 644 483 642 483 l 652 483 q 673 486 663 483 q 692 494 684 488 q 707 508 702 500 q 713 526 713 516 q 710 540 713 533 q 701 549 708 544 q 690 556 694 555 q 687 557 689 557 q 683 559 684 558 q 680 559 682 559 q 662 562 671 562 q 648 560 657 562 q 633 557 638 559 q 620 553 624 555 q 608 548 616 552 q 606 547 607 548 q 604 546 605 547 q 603 545 604 545 q 601 544 602 544 l 597 541 q 588 532 592 537 q 585 519 585 528 l 585 519 l 585 518 q 595 502 586 508 q 621 503 606 494 l 621 503 l 621 503 l 621 503 l 622 503 l 622 503 l 622 502 l 622 502 l 622 502 l 622 501 l 622 501 l 622 501 l 622 501 l 621 501 q 593 500 605 492 q 583 517 586 505 l 583 517 l 583 518 l 583 519 l 583 519 l 583 522 q 584 529 583 525 q 587 535 586 534 q 588 537 587 536 q 589 538 589 538 l 592 541 l 595 544 l 599 547 q 614 555 608 553 q 631 561 623 559 q 648 564 641 564 q 664 565 653 565 q 676 564 668 565 q 688 561 684 562 q 698 555 690 560 q 707 548 705 551 q 713 536 711 543 q 715 526 715 532 q 712 514 715 519 q 710 511 711 513 q 708 507 709 509 q 706 504 707 505 q 699 497 701 499 q 692 493 694 494 q 673 484 684 488 m 781 522 l 780 522 q 779 523 779 522 l 779 524 l 781 527 q 782 528 781 528 q 783 528 783 528 l 784 527 l 784 526 l 784 526 l 782 522 q 781 522 782 522 m 1001 491 q 1004 488 1004 490 q 1002 484 1004 486 q 993 481 999 482 q 956 488 989 480 q 903 487 927 494 q 865 488 878 479 q 863 490 864 489 q 861 491 862 490 q 861 492 861 492 l 861 492 l 855 482 l 852 477 q 850 472 850 473 l 846 467 q 842 463 845 465 q 836 458 839 458 q 835 475 833 459 l 837 485 l 839 495 q 841 500 840 497 q 842 505 842 504 q 835 494 838 498 q 828 485 833 490 q 820 476 824 479 q 812 474 816 473 q 809 476 810 475 q 808 486 807 479 q 803 479 808 486 q 792 468 796 471 q 782 471 784 464 q 781 488 780 479 q 760 457 773 477 q 758 451 758 454 q 755 446 757 448 q 741 410 743 415 q 734 398 737 401 l 732 395 q 731 395 731 395 q 730 395 731 395 l 729 396 q 728 401 728 397 q 729 408 728 403 q 740 431 731 414 q 757 458 751 450 q 770 494 769 492 l 770 493 l 766 490 q 763 487 764 488 q 756 489 758 485 l 755 486 l 753 482 q 751 480 753 481 q 750 479 750 479 q 747 476 749 477 q 739 478 741 472 q 740 490 737 482 q 739 489 739 490 l 738 488 q 734 487 735 487 q 732 488 733 487 q 732 491 732 490 q 733 496 732 493 q 734 500 734 500 q 721 487 727 494 q 711 472 714 479 l 710 471 l 709 472 l 709 473 q 713 490 711 481 q 716 499 714 493 q 719 508 718 505 q 649 470 696 471 l 649 470 l 648 470 l 648 470 l 648 471 l 648 471 l 648 471 l 648 471 l 648 472 l 649 472 l 649 472 q 690 484 669 472 q 723 519 711 495 q 724 520 723 520 q 726 519 726 520 l 726 519 l 726 518 l 724 513 l 718 495 q 715 487 716 492 q 713 483 715 486 q 712 478 712 479 q 720 490 713 479 q 729 500 721 492 l 735 505 l 736 507 l 737 507 q 739 508 738 508 q 740 507 740 508 l 740 506 q 739 504 740 505 q 737 501 737 502 q 734 488 731 490 q 741 492 736 488 q 754 507 745 505 q 756 505 756 507 l 757 505 q 758 503 758 503 l 758 500 l 758 497 q 758 496 758 496 l 758 495 l 757 492 l 757 492 l 757 490 l 758 488 q 760 487 760 487 q 764 489 761 487 l 768 495 q 772 500 771 499 l 772 500 l 772 502 q 774 503 772 503 l 774 503 l 774 503 l 774 502 l 775 502 l 774 502 l 775 501 q 762 465 768 481 q 768 473 764 468 q 775 483 772 479 q 781 492 778 488 l 783 494 q 790 507 785 502 q 799 511 794 513 q 802 500 804 509 q 791 484 795 484 q 788 486 789 484 l 788 487 q 789 487 789 488 q 791 486 789 486 q 797 493 793 486 l 797 494 q 798 508 802 507 q 791 502 795 509 q 785 486 787 494 q 785 471 783 477 q 795 473 789 465 q 802 481 798 476 q 806 487 806 486 q 807 489 806 488 q 809 491 808 490 l 810 492 l 810 492 q 817 506 812 500 q 828 511 821 512 q 833 509 831 511 q 833 503 835 506 q 827 499 831 500 q 823 501 824 498 q 826 503 823 503 q 828 503 827 503 q 831 503 829 501 q 832 507 833 504 q 827 510 831 511 q 812 486 819 508 q 812 476 809 477 q 829 488 819 475 q 845 515 839 501 l 838 514 q 837 515 837 514 q 838 516 837 516 l 846 517 q 854 538 847 521 q 857 539 854 541 q 859 537 859 538 q 849 517 853 527 q 874 518 863 519 q 893 520 886 517 q 901 532 901 523 l 903 533 q 906 527 905 531 q 902 519 907 524 q 888 515 897 515 q 870 516 879 515 q 848 515 861 517 q 842 494 845 509 q 840 491 841 493 q 840 488 840 489 q 840 485 840 487 q 839 483 840 484 l 836 472 q 836 460 834 461 q 842 463 838 459 q 847 470 846 467 l 848 473 q 851 478 850 474 q 854 483 853 481 q 857 488 854 485 q 860 494 859 492 q 859 496 859 495 q 859 502 858 499 q 861 506 859 505 q 864 506 863 507 q 861 493 867 503 q 865 490 862 492 q 903 488 878 480 q 956 489 927 495 q 992 482 989 481 q 1000 485 999 484 q 1002 488 1002 487 l 1000 490 q 998 490 1000 490 q 997 488 997 489 q 998 487 997 487 q 999 488 999 487 q 1001 487 1000 490 q 1000 486 1001 486 l 999 486 l 997 486 q 996 488 996 487 q 1001 491 996 493 m 741 478 q 751 481 744 472 q 755 490 754 486 q 752 490 753 490 q 749 494 749 491 l 749 500 l 751 504 l 751 503 q 749 502 750 503 l 749 500 l 747 499 q 743 489 745 496 q 741 481 741 484 q 741 479 741 480 q 741 478 741 479 m 755 492 q 756 498 756 496 q 755 504 757 502 l 754 504 q 753 503 753 503 q 753 501 753 502 q 752 499 752 500 q 751 495 751 498 q 755 492 751 493 m 753 447 q 753 448 753 448 l 753 448 q 742 429 752 446 q 732 408 735 417 q 731 405 732 407 q 730 401 730 402 q 730 397 730 398 q 732 399 731 397 q 738 410 734 403 q 753 447 742 420 m 863 505 q 860 501 861 505 q 861 494 859 498 q 863 505 867 503 m 526 670 l 509 673 l 510 710 l 488 677 l 482 677 l 471 717 l 460 681 l 443 684 l 463 745 l 480 743 l 490 706 l 510 738 l 528 735 l 526 670 m 409 741 l 412 726 l 390 720 l 393 711 l 413 716 l 416 703 l 396 697 l 398 688 l 422 694 l 425 679 l 385 669 l 370 730 l 409 741 m 302 695 q 327 702 315 704 q 348 688 340 700 q 353 664 356 677 q 339 643 351 651 l 318 628 l 281 680 l 302 695 m 333 678 q 323 685 329 684 q 311 682 317 686 l 305 677 l 323 652 l 329 656 q 333 678 342 665 m 623 671 q 624 664 623 671 q 616 646 625 657 q 594 632 608 634 q 568 640 581 631 q 554 663 556 650 q 560 688 551 676 q 583 701 569 699 q 608 694 595 703 q 623 671 621 685 m 578 653 q 602 656 591 643 q 599 680 612 670 q 586 684 592 685 q 574 677 578 682 q 578 653 565 664 m 344 314 q 345 308 344 314 q 337 291 346 302 q 315 279 328 280 q 291 287 302 278 l 271 303 l 311 353 l 331 336 q 344 314 342 327 m 315 329 l 295 304 l 300 300 q 323 302 313 290 q 320 325 333 315 l 315 329 m 416 280 l 394 286 l 391 277 l 412 272 l 408 258 l 387 264 l 385 254 l 408 248 l 404 233 l 363 245 l 381 306 l 420 295 l 416 280 m 568 333 q 593 341 580 342 q 616 328 607 340 q 623 303 625 316 q 608 280 621 290 q 583 272 596 271 q 560 286 569 274 q 553 311 551 297 q 568 333 555 324 m 599 293 q 602 317 612 303 q 590 323 598 322 q 578 320 585 324 q 574 296 565 309 q 599 293 585 282 m 497 233 l 492 232 l 469 266 l 470 229 l 452 226 l 452 290 l 469 293 l 490 261 l 499 298 l 516 301 l 536 239 l 519 237 l 508 272 l 497 233 m 593 570 q 585 571 587 567 q 529 623 564 604 q 454 642 494 642 q 378 623 413 642 q 322 570 343 604 q 315 568 320 566 q 313 576 311 570 q 373 632 336 611 q 454 653 410 653 q 534 632 497 653 q 594 577 571 612 q 593 570 597 572 m 593 414 q 601 417 596 420 q 604 410 606 414 q 543 343 583 368 q 454 318 503 318 q 363 345 404 318 q 302 416 322 372 q 304 423 299 420 l 305 423 q 311 420 309 424 q 369 354 330 379 q 454 329 408 329 q 536 352 499 329 q 593 414 574 376 m 629 642 q 634 640 632 642 q 663 600 654 616 q 661 592 666 595 q 653 594 655 589 q 625 633 640 616 q 626 641 622 637 q 629 642 627 642 m 218 484 q 279 643 218 574 q 283 645 281 645 q 287 644 286 645 q 288 636 291 640 q 229 484 229 572 q 278 342 229 404 q 277 335 281 339 q 270 336 273 331 q 218 484 218 401 m 677 439 q 682 443 679 443 l 684 443 q 688 437 690 441 q 644 339 677 384 q 636 338 640 335 q 635 345 632 342 q 677 439 667 387 z "},"4":{"ha":1107,"x_min":103,"x_max":1004,"o":"m 755 347 q 764 337 762 344 q 763 322 766 330 q 635 186 718 237 q 453 135 552 135 q 277 182 358 135 q 150 310 197 229 q 103 486 103 391 q 150 661 103 581 q 277 789 197 742 q 453 836 358 836 q 635 785 552 836 q 763 649 718 734 q 764 634 766 642 q 755 624 762 627 q 741 622 747 620 q 729 631 732 625 q 615 753 689 707 q 453 798 542 798 q 232 707 323 798 q 140 486 140 615 q 232 264 140 356 q 453 173 323 173 q 615 218 542 173 q 729 340 689 264 q 741 349 732 347 q 755 347 747 351 m 703 635 q 696 637 699 633 q 593 736 658 699 q 453 772 528 772 q 309 734 375 772 q 204 630 243 696 q 166 486 166 564 q 204 341 166 408 q 309 237 243 275 q 453 199 375 199 q 593 235 529 199 q 696 334 658 272 q 703 335 699 338 q 705 328 708 333 q 598 225 665 263 q 453 188 532 188 q 304 228 372 188 q 195 336 235 268 q 155 486 155 405 q 195 635 155 566 q 304 743 235 703 q 453 783 372 783 q 598 746 532 783 q 705 644 665 708 q 703 635 709 638 m 492 534 l 492 471 q 477 461 484 470 l 477 534 q 476 543 477 541 q 473 547 475 546 q 464 548 469 548 l 464 551 q 473 551 466 551 q 485 551 479 551 q 496 551 490 551 q 505 551 503 551 l 505 548 q 496 547 500 548 q 493 543 494 546 q 492 534 492 539 m 464 437 l 464 441 q 473 442 469 441 q 476 446 475 443 q 483 457 479 452 q 489 463 486 461 l 492 463 l 492 454 q 493 446 492 450 q 496 442 494 443 q 505 441 500 441 l 505 437 q 496 438 503 437 q 485 438 490 438 q 473 438 479 438 q 464 437 466 437 m 341 511 q 332 499 338 503 q 313 492 325 494 l 315 492 q 327 488 322 491 q 334 482 332 486 q 338 471 335 481 l 342 454 q 344 447 342 451 q 346 443 345 444 q 350 441 347 441 q 354 443 351 441 l 359 448 l 361 446 q 353 437 355 438 q 344 435 349 435 q 333 439 337 435 q 327 453 329 444 l 323 469 q 319 481 320 481 q 315 489 317 487 q 305 492 312 492 l 290 492 l 290 454 q 291 446 290 450 q 294 442 292 443 q 302 441 298 441 l 302 437 q 294 438 300 437 q 282 438 287 438 q 270 438 277 438 q 262 437 264 437 l 262 441 q 270 442 266 441 q 274 446 273 444 q 275 454 275 448 l 275 534 q 274 543 275 541 q 270 547 273 545 q 262 548 266 548 l 262 551 q 270 551 264 551 q 281 551 277 551 l 295 551 q 301 551 298 551 q 306 551 305 551 q 327 547 317 551 q 340 537 336 543 q 345 523 345 530 q 341 511 345 517 m 317 498 q 321 499 317 498 q 326 507 324 501 q 328 522 328 513 q 322 541 328 534 q 302 548 316 548 q 294 547 297 548 q 291 543 292 545 q 290 534 290 538 l 290 494 l 300 494 q 317 498 311 494 m 432 442 q 435 447 435 443 q 433 454 435 451 l 423 481 l 422 484 l 404 532 l 386 484 l 385 481 l 378 464 q 374 450 374 455 q 378 443 374 445 q 389 441 380 441 l 389 437 q 379 438 385 437 q 370 438 373 438 q 363 438 368 438 q 358 437 359 437 l 358 441 q 371 454 366 443 l 408 552 l 411 552 l 450 451 q 461 441 454 441 l 461 437 q 454 438 460 437 q 444 438 448 438 q 433 438 439 438 q 424 437 426 437 l 424 441 q 432 442 428 441 m 567 491 q 576 480 574 485 q 581 466 581 472 q 576 449 581 457 q 564 439 572 442 q 546 435 555 435 q 534 437 537 435 q 524 441 527 439 q 519 444 520 444 q 516 441 517 444 q 515 437 515 440 l 511 437 q 512 475 512 443 l 516 475 q 524 448 517 457 q 545 438 530 438 q 555 441 549 438 q 563 448 560 443 q 566 460 566 452 q 563 471 566 466 q 555 480 559 476 q 541 489 553 481 q 533 494 538 491 q 526 499 528 498 q 516 510 522 502 q 512 525 512 516 q 516 541 512 534 q 527 550 521 547 q 543 553 533 553 q 551 552 549 553 q 557 550 555 551 l 562 547 l 568 545 q 570 547 568 545 q 571 552 571 549 l 574 552 q 574 519 574 546 l 570 519 q 567 534 569 530 q 558 545 564 541 q 544 550 551 550 q 534 547 539 550 q 527 541 529 545 q 524 531 524 536 q 530 517 524 523 q 542 507 537 510 q 546 505 544 507 q 549 503 548 504 q 551 502 551 502 q 567 491 561 496 m 616 458 l 641 541 q 643 542 641 542 q 644 541 644 542 q 645 540 645 541 l 644 539 l 617 457 q 616 456 617 456 q 616 457 616 456 l 616 458 m 673 484 q 652 481 664 481 l 648 481 l 642 481 q 633 486 632 482 q 635 489 633 488 q 639 490 635 490 q 675 493 660 489 q 696 506 690 497 q 702 530 702 513 l 702 530 l 703 530 l 703 531 l 703 531 l 703 531 l 703 531 l 703 531 l 704 531 l 704 531 l 704 531 l 704 531 l 704 531 l 705 530 l 705 530 q 698 505 705 514 q 675 492 690 496 q 639 488 660 488 q 635 488 636 488 q 640 484 632 486 q 644 483 642 483 l 652 483 q 673 486 663 483 q 692 494 684 488 q 707 508 702 500 q 713 526 713 516 q 710 540 713 533 q 701 549 708 544 q 690 556 694 555 q 687 557 689 557 q 683 559 684 558 q 680 559 682 559 q 662 562 671 562 q 648 560 657 562 q 633 557 638 559 q 620 553 624 555 q 608 548 616 552 q 606 547 607 548 q 604 546 605 547 q 603 545 604 545 q 601 544 602 544 l 597 541 q 588 532 592 537 q 585 519 585 528 l 585 519 l 585 518 q 595 502 586 508 q 621 503 606 494 l 621 503 l 621 503 l 621 503 l 622 503 l 622 503 l 622 502 l 622 502 l 622 502 l 622 501 l 622 501 l 622 501 l 622 501 l 621 501 q 593 500 605 492 q 583 517 586 505 l 583 517 l 583 518 l 583 519 l 583 519 l 583 522 q 584 529 583 525 q 587 535 586 534 q 588 537 587 536 q 589 538 589 538 l 592 541 l 595 544 l 599 547 q 614 555 608 553 q 631 561 623 559 q 648 564 641 564 q 664 565 653 565 q 676 564 668 565 q 688 561 684 562 q 698 555 690 560 q 707 548 705 551 q 713 536 711 543 q 715 526 715 532 q 712 514 715 519 q 710 511 711 513 q 708 507 709 509 q 706 504 707 505 q 699 497 701 499 q 692 493 694 494 q 673 484 684 488 m 781 522 l 780 522 q 779 523 779 522 l 779 524 l 781 527 q 782 528 781 528 q 783 528 783 528 l 784 527 l 784 526 l 784 526 l 782 522 q 781 522 782 522 m 1001 491 q 1004 488 1004 490 q 1002 484 1004 486 q 993 481 999 482 q 956 488 989 480 q 903 487 927 494 q 865 488 878 479 q 863 490 864 489 q 861 491 862 490 q 861 492 861 492 l 861 492 l 855 482 l 852 477 q 850 472 850 473 l 846 467 q 842 463 845 465 q 836 458 839 458 q 835 475 833 459 l 837 485 l 839 495 q 841 500 840 497 q 842 505 842 504 q 835 494 838 498 q 828 485 833 490 q 820 476 824 479 q 812 474 816 473 q 809 476 810 475 q 808 486 807 479 q 803 479 808 486 q 792 468 796 471 q 782 471 784 464 q 781 488 780 479 q 760 457 773 477 q 758 451 758 454 q 755 446 757 448 q 741 410 743 415 q 734 398 737 401 l 732 395 q 731 395 731 395 q 730 395 731 395 l 729 396 q 728 401 728 397 q 729 408 728 403 q 740 431 731 414 q 757 458 751 450 q 770 494 769 492 l 770 493 l 766 490 q 763 487 764 488 q 756 489 758 485 l 755 486 l 753 482 q 751 480 753 481 q 750 479 750 479 q 747 476 749 477 q 739 478 741 472 q 740 490 737 482 q 739 489 739 490 l 738 488 q 734 487 735 487 q 732 488 733 487 q 732 491 732 490 q 733 496 732 493 q 734 500 734 500 q 721 487 727 494 q 711 472 714 479 l 710 471 l 709 472 l 709 473 q 713 490 711 481 q 716 499 714 493 q 719 508 718 505 q 649 470 696 471 l 649 470 l 648 470 l 648 470 l 648 471 l 648 471 l 648 471 l 648 471 l 648 472 l 649 472 l 649 472 q 690 484 669 472 q 723 519 711 495 q 724 520 723 520 q 726 519 726 520 l 726 519 l 726 518 l 724 513 l 718 495 q 715 487 716 492 q 713 483 715 486 q 712 478 712 479 q 720 490 713 479 q 729 500 721 492 l 735 505 l 736 507 l 737 507 q 739 508 738 508 q 740 507 740 508 l 740 506 q 739 504 740 505 q 737 501 737 502 q 734 488 731 490 q 741 492 736 488 q 754 507 745 505 q 756 505 756 507 l 757 505 q 758 503 758 503 l 758 500 l 758 497 q 758 496 758 496 l 758 495 l 757 492 l 757 492 l 757 490 l 758 488 q 760 487 760 487 q 764 489 761 487 l 768 495 q 772 500 771 499 l 772 500 l 772 502 q 774 503 772 503 l 774 503 l 774 503 l 774 502 l 775 502 l 774 502 l 775 501 q 762 465 768 481 q 768 473 764 468 q 775 483 772 479 q 781 492 778 488 l 783 494 q 790 507 785 502 q 799 511 794 513 q 802 500 804 509 q 791 484 795 484 q 788 486 789 484 l 788 487 q 789 487 789 488 q 791 486 789 486 q 797 493 793 486 l 797 494 q 798 508 802 507 q 791 502 795 509 q 785 486 787 494 q 785 471 783 477 q 795 473 789 465 q 802 481 798 476 q 806 487 806 486 q 807 489 806 488 q 809 491 808 490 l 810 492 l 810 492 q 817 506 812 500 q 828 511 821 512 q 833 509 831 511 q 833 503 835 506 q 827 499 831 500 q 823 501 824 498 q 826 503 823 503 q 828 503 827 503 q 831 503 829 501 q 832 507 833 504 q 827 510 831 511 q 812 486 819 508 q 812 476 809 477 q 829 488 819 475 q 845 515 839 501 l 838 514 q 837 515 837 514 q 838 516 837 516 l 846 517 q 854 538 847 521 q 857 539 854 541 q 859 537 859 538 q 849 517 853 527 q 874 518 863 519 q 893 520 886 517 q 901 532 901 523 l 903 533 q 906 527 905 531 q 902 519 907 524 q 888 515 897 515 q 870 516 879 515 q 848 515 861 517 q 842 494 845 509 q 840 491 841 493 q 840 488 840 489 q 840 485 840 487 q 839 483 840 484 l 836 472 q 836 460 834 461 q 842 463 838 459 q 847 470 846 467 l 848 473 q 851 478 850 474 q 854 483 853 481 q 857 488 854 485 q 860 494 859 492 q 859 496 859 495 q 859 502 858 499 q 861 506 859 505 q 864 506 863 507 q 861 493 867 503 q 865 490 862 492 q 903 488 878 480 q 956 489 927 495 q 992 482 989 481 q 1000 485 999 484 q 1002 488 1002 487 l 1000 490 q 998 490 1000 490 q 997 488 997 489 q 998 487 997 487 q 999 488 999 487 q 1001 487 1000 490 q 1000 486 1001 486 l 999 486 l 997 486 q 996 488 996 487 q 1001 491 996 493 m 741 478 q 751 481 744 472 q 755 490 754 486 q 752 490 753 490 q 749 494 749 491 l 749 500 l 751 504 l 751 503 q 749 502 750 503 l 749 500 l 747 499 q 743 489 745 496 q 741 481 741 484 q 741 479 741 480 q 741 478 741 479 m 755 492 q 756 498 756 496 q 755 504 757 502 l 754 504 q 753 503 753 503 q 753 501 753 502 q 752 499 752 500 q 751 495 751 498 q 755 492 751 493 m 753 447 q 753 448 753 448 l 753 448 q 742 429 752 446 q 732 408 735 417 q 731 405 732 407 q 730 401 730 402 q 730 397 730 398 q 732 399 731 397 q 738 410 734 403 q 753 447 742 420 m 863 505 q 860 501 861 505 q 861 494 859 498 q 863 505 867 503 m 623 671 q 624 664 623 671 q 616 646 625 657 q 594 632 608 634 q 568 640 581 631 q 554 663 556 650 q 560 688 551 676 q 583 701 569 699 q 608 694 595 703 q 623 671 621 685 m 578 653 q 602 656 591 643 q 599 680 612 670 q 586 684 592 685 q 574 677 578 682 q 578 653 565 664 m 526 670 l 509 673 l 510 710 l 488 677 l 482 677 l 471 717 l 460 681 l 443 684 l 463 745 l 480 743 l 490 706 l 510 738 l 528 735 l 526 670 m 409 741 l 412 726 l 390 720 l 393 711 l 413 716 l 416 703 l 396 697 l 398 688 l 422 694 l 425 679 l 385 669 l 370 730 l 409 741 m 302 695 q 327 702 315 704 q 348 688 340 700 q 353 664 356 677 q 339 643 351 651 l 318 628 l 281 680 l 302 695 m 333 678 q 323 685 329 684 q 311 682 317 686 l 305 677 l 323 652 l 329 656 q 333 678 342 665 m 568 333 q 593 341 580 342 q 616 328 607 340 q 623 303 625 316 q 608 280 621 290 q 583 272 596 271 q 560 286 569 274 q 553 311 551 297 q 568 333 555 324 m 599 293 q 602 317 612 303 q 590 323 598 322 q 578 320 585 324 q 574 296 565 309 q 599 293 585 282 m 416 280 l 394 286 l 391 277 l 412 272 l 408 258 l 387 264 l 385 254 l 408 248 l 404 233 l 363 245 l 381 306 l 420 295 l 416 280 m 497 233 l 492 232 l 469 266 l 470 229 l 452 226 l 452 290 l 469 293 l 490 261 l 499 298 l 516 301 l 536 239 l 519 237 l 508 272 l 497 233 m 344 314 q 345 308 344 314 q 337 291 346 302 q 315 279 328 280 q 291 287 302 278 l 271 303 l 311 353 l 331 336 q 344 314 342 327 m 315 329 l 295 304 l 300 300 q 323 302 313 290 q 320 325 333 315 l 315 329 m 593 570 q 585 571 587 567 q 529 623 564 604 q 454 642 494 642 q 378 623 413 642 q 322 570 343 604 q 315 568 320 566 q 313 576 311 570 q 373 632 336 611 q 454 653 410 653 q 534 632 497 653 q 594 577 571 612 q 593 570 597 572 m 593 414 q 601 417 596 420 q 604 410 606 414 q 543 343 583 368 q 454 318 503 318 q 363 345 404 318 q 302 416 322 372 q 304 423 299 420 l 305 423 q 311 420 309 424 q 369 354 330 379 q 454 329 408 329 q 536 352 499 329 q 593 414 574 376 m 218 484 q 279 643 218 574 q 283 645 281 645 q 287 644 286 645 q 288 636 291 640 q 229 484 229 572 q 278 342 229 404 q 277 335 281 339 q 270 336 273 331 q 218 484 218 401 m 629 642 q 634 640 632 642 q 663 600 654 616 q 661 592 666 595 q 653 594 655 589 q 625 633 640 616 q 626 641 622 637 q 629 642 627 642 m 677 439 q 682 443 679 443 l 684 443 q 688 437 690 441 q 644 339 677 384 q 636 338 640 335 q 635 345 632 342 q 677 439 667 387 z "},"5":{"ha":1107,"x_min":103,"x_max":1004,"o":"m 755 347 q 764 337 762 344 q 763 322 766 330 q 635 186 718 237 q 453 135 552 135 q 277 182 358 135 q 150 310 197 229 q 103 486 103 391 q 150 661 103 581 q 277 789 197 742 q 453 836 358 836 q 635 785 552 836 q 763 649 718 734 q 764 634 766 642 q 755 624 762 627 q 741 622 747 620 q 729 631 732 625 q 615 753 689 707 q 453 798 542 798 q 232 707 323 798 q 140 486 140 615 q 232 264 140 356 q 453 173 323 173 q 615 218 542 173 q 729 340 689 264 q 741 349 732 347 q 755 347 747 351 m 703 635 q 696 637 699 633 q 593 736 658 699 q 453 772 528 772 q 309 734 375 772 q 204 630 243 696 q 166 486 166 564 q 204 341 166 408 q 309 237 243 275 q 453 199 375 199 q 593 235 529 199 q 696 334 658 272 q 703 335 699 338 q 705 328 708 333 q 598 225 665 263 q 453 188 532 188 q 304 228 372 188 q 195 336 235 268 q 155 486 155 405 q 195 635 155 566 q 304 743 235 703 q 453 783 372 783 q 598 746 532 783 q 705 644 665 708 q 703 635 709 638 m 492 534 l 492 471 q 477 461 484 470 l 477 534 q 476 543 477 541 q 473 547 475 546 q 464 548 469 548 l 464 551 q 473 551 466 551 q 485 551 479 551 q 496 551 490 551 q 505 551 503 551 l 505 548 q 496 547 500 548 q 493 543 494 546 q 492 534 492 539 m 464 437 l 464 441 q 473 442 469 441 q 476 446 475 443 q 483 457 479 452 q 489 463 486 461 l 492 463 l 492 454 q 493 446 492 450 q 496 442 494 443 q 505 441 500 441 l 505 437 q 496 438 503 437 q 485 438 490 438 q 473 438 479 438 q 464 437 466 437 m 341 511 q 332 499 338 503 q 313 492 325 494 l 315 492 q 327 488 322 491 q 334 482 332 486 q 338 471 335 481 l 342 454 q 344 447 342 451 q 346 443 345 444 q 350 441 347 441 q 354 443 351 441 l 359 448 l 361 446 q 353 437 355 438 q 344 435 349 435 q 333 439 337 435 q 327 453 329 444 l 323 469 q 319 481 320 481 q 315 489 317 487 q 305 492 312 492 l 290 492 l 290 454 q 291 446 290 450 q 294 442 292 443 q 302 441 298 441 l 302 437 q 294 438 300 437 q 282 438 287 438 q 270 438 277 438 q 262 437 264 437 l 262 441 q 270 442 266 441 q 274 446 273 444 q 275 454 275 448 l 275 534 q 274 543 275 541 q 270 547 273 545 q 262 548 266 548 l 262 551 q 270 551 264 551 q 281 551 277 551 l 295 551 q 301 551 298 551 q 306 551 305 551 q 327 547 317 551 q 340 537 336 543 q 345 523 345 530 q 341 511 345 517 m 317 498 q 321 499 317 498 q 326 507 324 501 q 328 522 328 513 q 322 541 328 534 q 302 548 316 548 q 294 547 297 548 q 291 543 292 545 q 290 534 290 538 l 290 494 l 300 494 q 317 498 311 494 m 432 442 q 435 447 435 443 q 433 454 435 451 l 423 481 l 422 484 l 404 532 l 386 484 l 385 481 l 378 464 q 374 450 374 455 q 378 443 374 445 q 389 441 380 441 l 389 437 q 379 438 385 437 q 370 438 373 438 q 363 438 368 438 q 358 437 359 437 l 358 441 q 371 454 366 443 l 408 552 l 411 552 l 450 451 q 461 441 454 441 l 461 437 q 454 438 460 437 q 444 438 448 438 q 433 438 439 438 q 424 437 426 437 l 424 441 q 432 442 428 441 m 567 491 q 576 480 574 485 q 581 466 581 472 q 576 449 581 457 q 564 439 572 442 q 546 435 555 435 q 534 437 537 435 q 524 441 527 439 q 519 444 520 444 q 516 441 517 444 q 515 437 515 440 l 511 437 q 512 475 512 443 l 516 475 q 524 448 517 457 q 545 438 530 438 q 555 441 549 438 q 563 448 560 443 q 566 460 566 452 q 563 471 566 466 q 555 480 559 476 q 541 489 553 481 q 533 494 538 491 q 526 499 528 498 q 516 510 522 502 q 512 525 512 516 q 516 541 512 534 q 527 550 521 547 q 543 553 533 553 q 551 552 549 553 q 557 550 555 551 l 562 547 l 568 545 q 570 547 568 545 q 571 552 571 549 l 574 552 q 574 519 574 546 l 570 519 q 567 534 569 530 q 558 545 564 541 q 544 550 551 550 q 534 547 539 550 q 527 541 529 545 q 524 531 524 536 q 530 517 524 523 q 542 507 537 510 q 546 505 544 507 q 549 503 548 504 q 551 502 551 502 q 567 491 561 496 m 673 484 q 652 481 664 481 l 648 481 l 642 481 q 633 486 632 482 q 635 489 633 488 q 639 490 635 490 q 675 493 660 489 q 696 506 690 497 q 702 530 702 513 l 702 530 l 703 530 l 703 531 l 703 531 l 703 531 l 703 531 l 703 531 l 704 531 l 704 531 l 704 531 l 704 531 l 704 531 l 705 530 l 705 530 q 698 505 705 514 q 675 492 690 496 q 639 488 660 488 q 635 488 636 488 q 640 484 632 486 q 644 483 642 483 l 652 483 q 673 486 663 483 q 692 494 684 488 q 707 508 702 500 q 713 526 713 516 q 710 540 713 533 q 701 549 708 544 q 690 556 694 555 q 687 557 689 557 q 683 559 684 558 q 680 559 682 559 q 662 562 671 562 q 648 560 657 562 q 633 557 638 559 q 620 553 624 555 q 608 548 616 552 q 606 547 607 548 q 604 546 605 547 q 603 545 604 545 q 601 544 602 544 l 597 541 q 588 532 592 537 q 585 519 585 528 l 585 519 l 585 518 q 595 502 586 508 q 621 503 606 494 l 621 503 l 621 503 l 621 503 l 622 503 l 622 503 l 622 502 l 622 502 l 622 502 l 622 501 l 622 501 l 622 501 l 622 501 l 621 501 q 593 500 605 492 q 583 517 586 505 l 583 517 l 583 518 l 583 519 l 583 519 l 583 522 q 584 529 583 525 q 587 535 586 534 q 588 537 587 536 q 589 538 589 538 l 592 541 l 595 544 l 599 547 q 614 555 608 553 q 631 561 623 559 q 648 564 641 564 q 664 565 653 565 q 676 564 668 565 q 688 561 684 562 q 698 555 690 560 q 707 548 705 551 q 713 536 711 543 q 715 526 715 532 q 712 514 715 519 q 710 511 711 513 q 708 507 709 509 q 706 504 707 505 q 699 497 701 499 q 692 493 694 494 q 673 484 684 488 m 616 458 l 641 541 q 643 542 641 542 q 644 541 644 542 q 645 540 645 541 l 644 539 l 617 457 q 616 456 617 456 q 616 457 616 456 l 616 458 m 781 522 l 780 522 q 779 523 779 522 l 779 524 l 781 527 q 782 528 781 528 q 783 528 783 528 l 784 527 l 784 526 l 784 526 l 782 522 q 781 522 782 522 m 1001 491 q 1004 488 1004 490 q 1002 484 1004 486 q 993 481 999 482 q 956 488 989 480 q 903 487 927 494 q 865 488 878 479 q 863 490 864 489 q 861 491 862 490 q 861 492 861 492 l 861 492 l 855 482 l 852 477 q 850 472 850 473 l 846 467 q 842 463 845 465 q 836 458 839 458 q 835 475 833 459 l 837 485 l 839 495 q 841 500 840 497 q 842 505 842 504 q 835 494 838 498 q 828 485 833 490 q 820 476 824 479 q 812 474 816 473 q 809 476 810 475 q 808 486 807 479 q 803 479 808 486 q 792 468 796 471 q 782 471 784 464 q 781 488 780 479 q 760 457 773 477 q 758 451 758 454 q 755 446 757 448 q 741 410 743 415 q 734 398 737 401 l 732 395 q 731 395 731 395 q 730 395 731 395 l 729 396 q 728 401 728 397 q 729 408 728 403 q 740 431 731 414 q 757 458 751 450 q 770 494 769 492 l 770 493 l 766 490 q 763 487 764 488 q 756 489 758 485 l 755 486 l 753 482 q 751 480 753 481 q 750 479 750 479 q 747 476 749 477 q 739 478 741 472 q 740 490 737 482 q 739 489 739 490 l 738 488 q 734 487 735 487 q 732 488 733 487 q 732 491 732 490 q 733 496 732 493 q 734 500 734 500 q 721 487 727 494 q 711 472 714 479 l 710 471 l 709 472 l 709 473 q 713 490 711 481 q 716 499 714 493 q 719 508 718 505 q 649 470 696 471 l 649 470 l 648 470 l 648 470 l 648 471 l 648 471 l 648 471 l 648 471 l 648 472 l 649 472 l 649 472 q 690 484 669 472 q 723 519 711 495 q 724 520 723 520 q 726 519 726 520 l 726 519 l 726 518 l 724 513 l 718 495 q 715 487 716 492 q 713 483 715 486 q 712 478 712 479 q 720 490 713 479 q 729 500 721 492 l 735 505 l 736 507 l 737 507 q 739 508 738 508 q 740 507 740 508 l 740 506 q 739 504 740 505 q 737 501 737 502 q 734 488 731 490 q 741 492 736 488 q 754 507 745 505 q 756 505 756 507 l 757 505 q 758 503 758 503 l 758 500 l 758 497 q 758 496 758 496 l 758 495 l 757 492 l 757 492 l 757 490 l 758 488 q 760 487 760 487 q 764 489 761 487 l 768 495 q 772 500 771 499 l 772 500 l 772 502 q 774 503 772 503 l 774 503 l 774 503 l 774 502 l 775 502 l 774 502 l 775 501 q 762 465 768 481 q 768 473 764 468 q 775 483 772 479 q 781 492 778 488 l 783 494 q 790 507 785 502 q 799 511 794 513 q 802 500 804 509 q 791 484 795 484 q 788 486 789 484 l 788 487 q 789 487 789 488 q 791 486 789 486 q 797 493 793 486 l 797 494 q 798 508 802 507 q 791 502 795 509 q 785 486 787 494 q 785 471 783 477 q 795 473 789 465 q 802 481 798 476 q 806 487 806 486 q 807 489 806 488 q 809 491 808 490 l 810 492 l 810 492 q 817 506 812 500 q 828 511 821 512 q 833 509 831 511 q 833 503 835 506 q 827 499 831 500 q 823 501 824 498 q 826 503 823 503 q 828 503 827 503 q 831 503 829 501 q 832 507 833 504 q 827 510 831 511 q 812 486 819 508 q 812 476 809 477 q 829 488 819 475 q 845 515 839 501 l 838 514 q 837 515 837 514 q 838 516 837 516 l 846 517 q 854 538 847 521 q 857 539 854 541 q 859 537 859 538 q 849 517 853 527 q 874 518 863 519 q 893 520 886 517 q 901 532 901 523 l 903 533 q 906 527 905 531 q 902 519 907 524 q 888 515 897 515 q 870 516 879 515 q 848 515 861 517 q 842 494 845 509 q 840 491 841 493 q 840 488 840 489 q 840 485 840 487 q 839 483 840 484 l 836 472 q 836 460 834 461 q 842 463 838 459 q 847 470 846 467 l 848 473 q 851 478 850 474 q 854 483 853 481 q 857 488 854 485 q 860 494 859 492 q 859 496 859 495 q 859 502 858 499 q 861 506 859 505 q 864 506 863 507 q 861 493 867 503 q 865 490 862 492 q 903 488 878 480 q 956 489 927 495 q 992 482 989 481 q 1000 485 999 484 q 1002 488 1002 487 l 1000 490 q 998 490 1000 490 q 997 488 997 489 q 998 487 997 487 q 999 488 999 487 q 1001 487 1000 490 q 1000 486 1001 486 l 999 486 l 997 486 q 996 488 996 487 q 1001 491 996 493 m 741 478 q 751 481 744 472 q 755 490 754 486 q 752 490 753 490 q 749 494 749 491 l 749 500 l 751 504 l 751 503 q 749 502 750 503 l 749 500 l 747 499 q 743 489 745 496 q 741 481 741 484 q 741 479 741 480 q 741 478 741 479 m 755 492 q 756 498 756 496 q 755 504 757 502 l 754 504 q 753 503 753 503 q 753 501 753 502 q 752 499 752 500 q 751 495 751 498 q 755 492 751 493 m 753 447 q 753 448 753 448 l 753 448 q 742 429 752 446 q 732 408 735 417 q 731 405 732 407 q 730 401 730 402 q 730 397 730 398 q 732 399 731 397 q 738 410 734 403 q 753 447 742 420 m 863 505 q 860 501 861 505 q 861 494 859 498 q 863 505 867 503 m 302 695 q 327 702 315 704 q 348 688 340 700 q 353 664 356 677 q 339 643 351 651 l 318 628 l 281 680 l 302 695 m 333 678 q 323 685 329 684 q 311 682 317 686 l 305 677 l 323 652 l 329 656 q 333 678 342 665 m 409 741 l 412 726 l 390 720 l 393 711 l 413 716 l 416 703 l 396 697 l 398 688 l 422 694 l 425 679 l 385 669 l 370 730 l 409 741 m 526 670 l 509 673 l 510 710 l 488 677 l 482 677 l 471 717 l 460 681 l 443 684 l 463 745 l 480 743 l 490 706 l 510 738 l 528 735 l 526 670 m 623 671 q 624 664 623 671 q 616 646 625 657 q 594 632 608 634 q 568 640 581 631 q 554 663 556 650 q 560 688 551 676 q 583 701 569 699 q 608 694 595 703 q 623 671 621 685 m 578 653 q 602 656 591 643 q 599 680 612 670 q 586 684 592 685 q 574 677 578 682 q 578 653 565 664 m 497 233 l 492 232 l 469 266 l 470 229 l 452 226 l 452 290 l 469 293 l 490 261 l 499 298 l 516 301 l 536 239 l 518 237 l 508 272 l 497 233 m 416 280 l 394 286 l 391 277 l 412 272 l 408 258 l 387 264 l 385 254 l 408 248 l 404 233 l 363 245 l 381 306 l 420 295 l 416 280 m 568 333 q 593 341 580 342 q 616 328 607 340 q 623 303 625 316 q 608 280 621 290 q 583 272 596 271 q 560 286 569 274 q 553 311 551 297 q 568 333 555 324 m 599 293 q 602 317 612 303 q 590 323 598 322 q 578 320 585 324 q 574 296 565 309 q 599 293 585 282 m 344 314 q 345 308 344 314 q 337 291 346 302 q 315 279 328 280 q 291 287 302 278 l 271 303 l 311 353 l 331 336 q 344 314 342 327 m 315 329 l 295 304 l 300 300 q 323 302 313 290 q 320 325 333 315 l 315 329 m 593 570 q 585 571 587 567 q 529 623 564 604 q 454 642 494 642 q 378 623 413 642 q 322 570 343 604 q 315 568 320 566 q 313 576 311 570 q 373 632 336 611 q 454 653 410 653 q 534 632 497 653 q 594 577 571 612 q 593 570 597 572 m 593 414 q 601 417 596 420 q 604 410 606 414 q 543 343 583 368 q 454 318 503 318 q 363 345 404 318 q 302 416 322 372 q 304 423 299 420 l 305 423 q 311 420 309 424 q 369 354 330 379 q 454 329 408 329 q 536 352 499 329 q 593 414 574 376 m 218 484 q 279 643 218 574 q 283 645 281 645 q 287 644 286 645 q 288 636 291 640 q 229 484 229 572 q 278 342 229 404 q 277 335 281 339 q 270 336 273 331 q 218 484 218 401 m 677 439 q 682 443 679 443 l 684 443 q 688 437 690 441 q 644 339 677 384 q 636 338 640 335 q 635 345 632 342 q 677 439 667 387 m 629 642 q 634 640 632 642 q 663 600 654 616 q 661 592 666 595 q 653 594 655 589 q 625 633 640 616 q 626 641 622 637 q 629 642 627 642 z "},"6":{"ha":1107,"x_min":103,"x_max":1004,"o":"m 755 347 q 764 337 762 344 q 763 322 766 330 q 635 186 718 237 q 453 135 552 135 q 277 182 358 135 q 150 310 197 229 q 103 486 103 391 q 150 661 103 581 q 277 789 197 742 q 453 836 358 836 q 635 785 552 836 q 763 649 718 734 q 764 634 766 642 q 755 624 762 627 q 741 622 747 620 q 729 631 732 625 q 615 753 689 707 q 453 798 542 798 q 232 707 323 798 q 140 486 140 615 q 232 264 140 356 q 453 173 323 173 q 615 218 542 173 q 729 340 689 264 q 741 349 732 347 q 755 347 747 351 m 703 635 q 696 637 699 633 q 593 736 658 699 q 453 772 528 772 q 309 734 375 772 q 204 630 243 696 q 166 486 166 564 q 204 341 166 408 q 309 237 243 275 q 453 199 375 199 q 593 235 529 199 q 696 334 658 272 q 703 335 699 338 q 705 328 708 333 q 598 225 665 263 q 453 188 532 188 q 304 228 372 188 q 195 336 235 268 q 155 486 155 405 q 195 635 155 566 q 304 743 235 703 q 453 783 372 783 q 598 746 532 783 q 705 644 665 708 q 703 635 709 638 m 492 534 l 492 471 q 477 461 484 470 l 477 534 q 476 543 477 541 q 473 547 475 546 q 464 548 469 548 l 464 551 q 473 551 466 551 q 485 551 479 551 q 496 551 490 551 q 505 551 503 551 l 505 548 q 496 547 500 548 q 493 543 494 546 q 492 534 492 539 m 464 437 l 464 441 q 473 442 469 441 q 476 446 475 443 q 483 457 479 452 q 489 463 486 461 l 492 463 l 492 454 q 493 446 492 450 q 496 442 494 443 q 505 441 500 441 l 505 437 q 496 438 503 437 q 485 438 490 438 q 473 438 479 438 q 464 437 466 437 m 341 511 q 332 499 338 503 q 313 492 325 494 l 315 492 q 327 488 322 491 q 334 482 332 486 q 338 471 335 481 l 342 454 q 344 447 342 451 q 346 443 345 444 q 350 441 347 441 q 354 443 351 441 l 359 448 l 361 446 q 353 437 355 438 q 344 435 349 435 q 333 439 337 435 q 327 453 329 444 l 323 469 q 319 481 320 481 q 315 489 317 487 q 305 492 312 492 l 290 492 l 290 454 q 291 446 290 450 q 294 442 292 443 q 302 441 298 441 l 302 437 q 294 438 300 437 q 282 438 287 438 q 270 438 277 438 q 262 437 264 437 l 262 441 q 270 442 266 441 q 274 446 273 444 q 275 454 275 448 l 275 534 q 274 543 275 541 q 270 547 273 545 q 262 548 266 548 l 262 551 q 270 551 264 551 q 281 551 277 551 l 295 551 q 301 551 298 551 q 306 551 305 551 q 327 547 317 551 q 340 537 336 543 q 345 523 345 530 q 341 511 345 517 m 317 498 q 321 499 317 498 q 326 507 324 501 q 328 522 328 513 q 322 541 328 534 q 302 548 316 548 q 294 547 297 548 q 291 543 292 545 q 290 534 290 538 l 290 494 l 300 494 q 317 498 311 494 m 432 442 q 435 447 435 443 q 433 454 435 451 l 423 481 l 422 484 l 404 532 l 386 484 l 385 481 l 378 464 q 374 450 374 455 q 378 443 374 445 q 389 441 380 441 l 389 437 q 379 438 385 437 q 370 438 373 438 q 363 438 368 438 q 358 437 359 437 l 358 441 q 371 454 366 443 l 408 552 l 411 552 l 450 451 q 461 441 454 441 l 461 437 q 454 438 460 437 q 444 438 448 438 q 433 438 439 438 q 424 437 426 437 l 424 441 q 432 442 428 441 m 567 491 q 576 480 574 485 q 581 466 581 472 q 576 449 581 457 q 564 439 572 442 q 546 435 555 435 q 534 437 537 435 q 524 441 527 439 q 519 444 520 444 q 516 441 517 444 q 515 437 515 440 l 511 437 q 512 475 512 443 l 516 475 q 524 448 517 457 q 545 438 530 438 q 555 441 549 438 q 563 448 560 443 q 566 460 566 452 q 563 471 566 466 q 555 480 559 476 q 541 489 553 481 q 533 494 538 491 q 526 499 528 498 q 516 510 522 502 q 512 525 512 516 q 516 541 512 534 q 527 550 521 547 q 543 553 533 553 q 551 552 549 553 q 557 550 555 551 l 562 547 l 568 545 q 570 547 568 545 q 571 552 571 549 l 574 552 q 574 519 574 546 l 570 519 q 567 534 569 530 q 558 545 564 541 q 544 550 551 550 q 534 547 539 550 q 527 541 529 545 q 524 531 524 536 q 530 517 524 523 q 542 507 537 510 q 546 505 544 507 q 549 503 548 504 q 551 502 551 502 q 567 491 561 496 m 616 458 l 641 541 q 643 542 641 542 q 644 541 644 542 q 645 540 645 541 l 644 539 l 617 457 q 616 456 617 456 q 616 457 616 456 l 616 458 m 673 484 q 652 481 664 481 l 648 481 l 642 481 q 633 486 632 482 q 635 489 633 488 q 639 490 635 490 q 675 493 660 489 q 696 506 690 497 q 702 530 702 513 l 702 530 l 703 530 l 703 531 l 703 531 l 703 531 l 703 531 l 703 531 l 704 531 l 704 531 l 704 531 l 704 531 l 704 531 l 705 530 l 705 530 q 698 505 705 514 q 675 492 690 496 q 639 488 660 488 q 635 488 636 488 q 640 484 632 486 q 644 483 642 483 l 652 483 q 673 486 663 483 q 692 494 684 488 q 707 508 702 500 q 713 526 713 516 q 710 540 713 533 q 701 549 708 544 q 690 556 694 555 q 687 557 689 557 q 683 559 684 558 q 680 559 682 559 q 662 562 671 562 q 648 560 657 562 q 633 557 638 559 q 620 553 624 555 q 608 548 616 552 q 606 547 607 548 q 604 546 605 547 q 603 545 604 545 q 601 544 602 544 l 597 541 q 588 532 592 537 q 585 519 585 528 l 585 519 l 585 518 q 595 502 586 508 q 621 503 606 494 l 621 503 l 621 503 l 621 503 l 622 503 l 622 503 l 622 502 l 622 502 l 622 502 l 622 501 l 622 501 l 622 501 l 622 501 l 621 501 q 593 500 605 492 q 583 517 586 505 l 583 517 l 583 518 l 583 519 l 583 519 l 583 522 q 584 529 583 525 q 587 535 586 534 q 588 537 587 536 q 589 538 589 538 l 592 541 l 595 544 l 599 547 q 614 555 608 553 q 631 561 623 559 q 648 564 641 564 q 664 565 653 565 q 676 564 668 565 q 688 561 684 562 q 698 555 690 560 q 707 548 705 551 q 713 536 711 543 q 715 526 715 532 q 712 514 715 519 q 710 511 711 513 q 708 507 709 509 q 706 504 707 505 q 699 497 701 499 q 692 493 694 494 q 673 484 684 488 m 781 522 l 780 522 q 779 523 779 522 l 779 524 l 781 527 q 782 528 781 528 q 783 528 783 528 l 784 527 l 784 526 l 784 526 l 782 522 q 781 522 782 522 m 1001 491 q 1004 488 1004 490 q 1002 484 1004 486 q 993 481 999 482 q 956 488 989 480 q 903 487 927 494 q 865 488 878 479 q 863 490 864 489 q 861 491 862 490 q 861 492 861 492 l 861 492 l 855 482 l 852 477 q 850 472 850 473 l 846 467 q 842 463 845 465 q 836 458 839 458 q 835 475 833 459 l 837 485 l 839 495 q 841 500 840 497 q 842 505 842 504 q 835 494 838 498 q 828 485 833 490 q 820 476 824 479 q 812 474 816 473 q 809 476 810 475 q 808 486 807 479 q 803 479 808 486 q 792 468 796 471 q 782 471 784 464 q 781 488 780 479 q 760 457 773 477 q 758 451 758 454 q 755 446 757 448 q 741 410 743 415 q 734 398 737 401 l 732 395 q 731 395 731 395 q 730 395 731 395 l 729 396 q 728 401 728 397 q 729 408 728 403 q 740 431 731 414 q 757 458 751 450 q 770 494 769 492 l 770 493 l 766 490 q 763 487 764 488 q 756 489 758 485 l 755 486 l 753 482 q 751 480 753 481 q 750 479 750 479 q 747 476 749 477 q 739 478 741 472 q 740 490 737 482 q 739 489 739 490 l 738 488 q 734 487 735 487 q 732 488 733 487 q 732 491 732 490 q 733 496 732 493 q 734 500 734 500 q 721 487 727 494 q 711 472 714 479 l 710 471 l 709 472 l 709 473 q 713 490 711 481 q 716 499 714 493 q 719 508 718 505 q 649 470 696 471 l 649 470 l 648 470 l 648 470 l 648 471 l 648 471 l 648 471 l 648 471 l 648 472 l 649 472 l 649 472 q 690 484 669 472 q 723 519 711 495 q 724 520 723 520 q 726 519 726 520 l 726 519 l 726 518 l 724 513 l 718 495 q 715 487 716 492 q 713 483 715 486 q 712 478 712 479 q 720 490 713 479 q 729 500 721 492 l 735 505 l 736 507 l 737 507 q 739 508 738 508 q 740 507 740 508 l 740 506 q 739 504 740 505 q 737 501 737 502 q 734 488 731 490 q 741 492 736 488 q 754 507 745 505 q 756 505 756 507 l 757 505 q 758 503 758 503 l 758 500 l 758 497 q 758 496 758 496 l 758 495 l 757 492 l 757 492 l 757 490 l 758 488 q 760 487 760 487 q 764 489 761 487 l 768 495 q 772 500 771 499 l 772 500 l 772 502 q 774 503 772 503 l 774 503 l 774 503 l 774 502 l 775 502 l 774 502 l 775 501 q 762 465 768 481 q 768 473 764 468 q 775 483 772 479 q 781 492 778 488 l 783 494 q 790 507 785 502 q 799 511 794 513 q 802 500 804 509 q 791 484 795 484 q 788 486 789 484 l 788 487 q 789 487 789 488 q 791 486 789 486 q 797 493 793 486 l 797 494 q 798 508 802 507 q 791 502 795 509 q 785 486 787 494 q 785 471 783 477 q 795 473 789 465 q 802 481 798 476 q 806 487 806 486 q 807 489 806 488 q 809 491 808 490 l 810 492 l 810 492 q 817 506 812 500 q 828 511 821 512 q 833 509 831 511 q 833 503 835 506 q 827 499 831 500 q 823 501 824 498 q 826 503 823 503 q 828 503 827 503 q 831 503 829 501 q 832 507 833 504 q 827 510 831 511 q 812 486 819 508 q 812 476 809 477 q 829 488 819 475 q 845 515 839 501 l 838 514 q 837 515 837 514 q 838 516 837 516 l 846 517 q 854 538 847 521 q 857 539 854 541 q 859 537 859 538 q 849 517 853 527 q 874 518 863 519 q 893 520 886 517 q 901 532 901 523 l 903 533 q 906 527 905 531 q 902 519 907 524 q 888 515 897 515 q 870 516 879 515 q 848 515 861 517 q 842 494 845 509 q 840 491 841 493 q 840 488 840 489 q 840 485 840 487 q 839 483 840 484 l 836 472 q 836 460 834 461 q 842 463 838 459 q 847 470 846 467 l 848 473 q 851 478 850 474 q 854 483 853 481 q 857 488 854 485 q 860 494 859 492 q 859 496 859 495 q 859 502 858 499 q 861 506 859 505 q 864 506 863 507 q 861 493 867 503 q 865 490 862 492 q 903 488 878 480 q 956 489 927 495 q 992 482 989 481 q 1000 485 999 484 q 1002 488 1002 487 l 1000 490 q 998 490 1000 490 q 997 488 997 489 q 998 487 997 487 q 999 488 999 487 q 1001 487 1000 490 q 1000 486 1001 486 l 999 486 l 997 486 q 996 488 996 487 q 1001 491 996 493 m 741 478 q 751 481 744 472 q 755 490 754 486 q 752 490 753 490 q 749 494 749 491 l 749 500 l 751 504 l 751 503 q 749 502 750 503 l 749 500 l 747 499 q 743 489 745 496 q 741 481 741 484 q 741 479 741 480 q 741 478 741 479 m 755 492 q 756 498 756 496 q 755 504 757 502 l 754 504 q 753 503 753 503 q 753 501 753 502 q 752 499 752 500 q 751 495 751 498 q 755 492 751 493 m 753 447 q 753 448 753 448 l 753 448 q 742 429 752 446 q 732 408 735 417 q 731 405 732 407 q 730 401 730 402 q 730 397 730 398 q 732 399 731 397 q 738 410 734 403 q 753 447 742 420 m 863 505 q 860 501 861 505 q 861 494 859 498 q 863 505 867 503 m 623 671 q 624 664 623 671 q 616 646 625 657 q 594 632 608 634 q 568 640 581 631 q 554 663 556 650 q 560 688 551 676 q 583 701 569 699 q 608 694 595 703 q 623 671 621 685 m 578 653 q 602 656 591 643 q 599 680 612 670 q 586 684 592 685 q 574 677 578 682 q 578 653 565 664 m 302 695 q 327 702 315 704 q 348 688 340 700 q 353 664 356 677 q 339 643 351 651 l 318 628 l 281 680 l 302 695 m 333 678 q 323 685 329 684 q 311 682 317 686 l 305 677 l 323 652 l 329 656 q 333 678 342 665 m 526 670 l 509 673 l 510 710 l 488 677 l 482 677 l 471 717 l 460 681 l 443 684 l 463 745 l 480 743 l 490 706 l 510 738 l 528 735 l 526 670 m 409 741 l 412 726 l 390 720 l 393 711 l 413 716 l 416 703 l 396 697 l 398 688 l 422 694 l 426 679 l 385 669 l 370 730 l 409 741 m 344 314 q 345 308 344 314 q 337 291 346 302 q 315 279 328 280 q 291 287 302 278 l 271 303 l 311 353 l 331 336 q 344 314 342 327 m 315 329 l 295 304 l 300 300 q 323 302 313 290 q 320 325 333 315 l 315 329 m 497 233 l 492 232 l 469 266 l 470 229 l 452 226 l 452 290 l 469 293 l 490 261 l 499 298 l 516 301 l 536 239 l 518 237 l 508 272 l 497 233 m 416 280 l 394 286 l 391 277 l 412 272 l 408 258 l 387 264 l 385 254 l 408 248 l 404 233 l 363 245 l 381 306 l 420 295 l 416 280 m 568 333 q 593 341 580 342 q 616 328 607 340 q 623 303 625 316 q 608 280 621 290 q 583 272 596 271 q 560 286 569 274 q 553 311 551 297 q 568 333 555 324 m 599 293 q 602 317 612 303 q 590 323 598 322 q 578 320 585 324 q 574 296 565 309 q 599 293 585 282 m 593 414 q 601 417 596 420 q 604 410 606 414 q 543 343 583 368 q 454 318 503 318 q 363 345 404 318 q 302 416 322 372 q 304 423 299 420 l 305 423 q 311 420 309 424 q 369 354 330 379 q 454 329 408 329 q 536 352 499 329 q 593 414 574 376 m 593 570 q 585 571 587 567 q 529 623 564 604 q 454 642 494 642 q 378 623 413 642 q 322 570 343 604 q 315 568 320 566 q 313 576 311 570 q 373 632 336 611 q 454 653 410 653 q 534 632 497 653 q 594 577 571 612 q 593 570 597 572 m 677 439 q 682 443 679 443 l 684 443 q 688 437 690 441 q 644 339 677 384 q 636 338 640 335 q 635 345 632 342 q 677 439 667 387 m 218 484 q 279 643 218 574 q 283 645 281 645 q 287 644 286 645 q 288 636 291 640 q 229 484 229 572 q 278 342 229 404 q 277 335 281 339 q 270 336 273 331 q 218 484 218 401 m 629 642 q 634 640 632 642 q 663 600 654 616 q 661 592 666 595 q 653 594 655 589 q 625 633 640 616 q 626 641 622 637 q 629 642 627 642 z "},"7":{"ha":1107,"x_min":103,"x_max":1004,"o":"m 755 347 q 764 337 762 344 q 763 322 766 330 q 635 186 718 237 q 453 135 552 135 q 277 182 358 135 q 150 310 197 229 q 103 486 103 391 q 150 661 103 581 q 277 789 197 742 q 453 836 358 836 q 635 785 552 836 q 763 649 718 734 q 764 634 766 642 q 755 624 762 627 q 741 622 747 620 q 729 631 732 625 q 615 753 689 707 q 453 798 542 798 q 232 707 323 798 q 140 486 140 615 q 232 264 140 356 q 453 173 323 173 q 615 218 542 173 q 729 340 689 264 q 741 349 732 347 q 755 347 747 351 m 703 635 q 696 637 699 633 q 593 736 658 699 q 453 772 528 772 q 309 734 375 772 q 204 630 243 696 q 166 486 166 564 q 204 341 166 408 q 309 237 243 275 q 453 199 375 199 q 593 235 529 199 q 696 334 658 272 q 703 335 699 338 q 705 328 708 333 q 598 225 665 263 q 453 188 532 188 q 304 228 372 188 q 195 336 235 268 q 155 486 155 405 q 195 635 155 566 q 304 743 235 703 q 453 783 372 783 q 598 746 532 783 q 705 644 665 708 q 703 635 709 638 m 492 534 l 492 471 q 477 461 484 470 l 477 534 q 476 543 477 541 q 473 547 475 546 q 464 548 469 548 l 464 551 q 473 551 466 551 q 485 551 479 551 q 496 551 490 551 q 505 551 503 551 l 505 548 q 496 547 500 548 q 493 543 494 546 q 492 534 492 539 m 464 437 l 464 441 q 473 442 469 441 q 476 446 475 443 q 483 457 479 452 q 489 463 486 461 l 492 463 l 492 454 q 493 446 492 450 q 496 442 494 443 q 505 441 500 441 l 505 437 q 496 438 503 437 q 485 438 490 438 q 473 438 479 438 q 464 437 466 437 m 341 511 q 332 499 338 503 q 313 492 325 494 l 315 492 q 327 488 322 491 q 334 482 332 486 q 338 471 335 481 l 342 454 q 344 447 342 451 q 346 443 345 444 q 350 441 347 441 q 354 443 351 441 l 359 448 l 361 446 q 353 437 355 438 q 344 435 349 435 q 333 439 337 435 q 327 453 329 444 l 323 469 q 319 481 320 481 q 315 489 317 487 q 305 492 312 492 l 290 492 l 290 454 q 291 446 290 450 q 294 442 292 443 q 302 441 298 441 l 302 437 q 294 438 300 437 q 282 438 287 438 q 270 438 277 438 q 262 437 264 437 l 262 441 q 270 442 266 441 q 274 446 273 444 q 275 454 275 448 l 275 534 q 274 543 275 541 q 270 547 273 545 q 262 548 266 548 l 262 551 q 270 551 264 551 q 281 551 277 551 l 295 551 q 301 551 298 551 q 306 551 305 551 q 327 547 317 551 q 340 537 336 543 q 345 523 345 530 q 341 511 345 517 m 317 498 q 321 499 317 498 q 326 507 324 501 q 328 522 328 513 q 322 541 328 534 q 302 548 316 548 q 294 547 297 548 q 291 543 292 545 q 290 534 290 538 l 290 494 l 300 494 q 317 498 311 494 m 432 442 q 435 447 435 443 q 433 454 435 451 l 423 481 l 422 484 l 404 532 l 386 484 l 385 481 l 378 464 q 374 450 374 455 q 378 443 374 445 q 389 441 380 441 l 389 437 q 379 438 385 437 q 370 438 373 438 q 363 438 368 438 q 358 437 359 437 l 358 441 q 371 454 366 443 l 408 552 l 411 552 l 450 451 q 461 441 454 441 l 461 437 q 454 438 460 437 q 444 438 448 438 q 433 438 439 438 q 424 437 426 437 l 424 441 q 432 442 428 441 m 567 491 q 576 480 574 485 q 581 466 581 472 q 576 449 581 457 q 564 439 572 442 q 546 435 555 435 q 534 437 537 435 q 524 441 527 439 q 519 444 520 444 q 516 441 517 444 q 515 437 515 440 l 511 437 q 512 475 512 443 l 516 475 q 524 448 517 457 q 545 438 530 438 q 555 441 549 438 q 563 448 560 443 q 566 460 566 452 q 563 471 566 466 q 555 480 559 476 q 541 489 553 481 q 533 494 538 491 q 526 499 528 498 q 516 510 522 502 q 512 525 512 516 q 516 541 512 534 q 527 550 521 547 q 543 553 533 553 q 551 552 549 553 q 557 550 555 551 l 562 547 l 568 545 q 570 547 568 545 q 571 552 571 549 l 574 552 q 574 519 574 546 l 570 519 q 567 534 569 530 q 558 545 564 541 q 544 550 551 550 q 534 547 539 550 q 527 541 529 545 q 524 531 524 536 q 530 517 524 523 q 542 507 537 510 q 546 505 544 507 q 549 503 548 504 q 551 502 551 502 q 567 491 561 496 m 616 458 l 641 541 q 643 542 641 542 q 644 541 644 542 q 645 540 645 541 l 644 539 l 617 457 q 616 456 617 456 q 616 457 616 456 l 616 458 m 673 484 q 652 481 664 481 l 648 481 l 642 481 q 633 486 632 482 q 635 489 633 488 q 639 490 635 490 q 675 493 660 489 q 696 506 690 497 q 702 530 702 513 l 702 530 l 703 530 l 703 531 l 703 531 l 703 531 l 703 531 l 703 531 l 704 531 l 704 531 l 704 531 l 704 531 l 704 531 l 705 530 l 705 530 q 698 505 705 514 q 675 492 690 496 q 639 488 660 488 q 635 488 636 488 q 640 484 632 486 q 644 483 642 483 l 652 483 q 673 486 663 483 q 692 494 684 488 q 707 508 702 500 q 713 526 713 516 q 710 540 713 533 q 701 549 708 544 q 690 556 694 555 q 687 557 689 557 q 683 559 684 558 q 680 559 682 559 q 662 562 671 562 q 648 560 657 562 q 633 557 638 559 q 620 553 624 555 q 608 548 616 552 q 606 547 607 548 q 604 546 605 547 q 603 545 604 545 q 601 544 602 544 l 597 541 q 588 532 592 537 q 585 519 585 528 l 585 519 l 585 518 q 595 502 586 508 q 621 503 606 494 l 621 503 l 621 503 l 621 503 l 622 503 l 622 503 l 622 502 l 622 502 l 622 502 l 622 501 l 622 501 l 622 501 l 622 501 l 621 501 q 593 500 605 492 q 583 517 586 505 l 583 517 l 583 518 l 583 519 l 583 519 l 583 522 q 584 529 583 525 q 587 535 586 534 q 588 537 587 536 q 589 538 589 538 l 592 541 l 595 544 l 599 547 q 614 555 608 553 q 631 561 623 559 q 648 564 641 564 q 664 565 653 565 q 676 564 668 565 q 688 561 684 562 q 698 555 690 560 q 707 548 705 551 q 713 536 711 543 q 715 526 715 532 q 712 514 715 519 q 710 511 711 513 q 708 507 709 509 q 706 504 707 505 q 699 497 701 499 q 692 493 694 494 q 673 484 684 488 m 781 522 l 780 522 q 779 523 779 522 l 779 524 l 781 527 q 782 528 781 528 q 783 528 783 528 l 784 527 l 784 526 l 784 526 l 782 522 q 781 522 782 522 m 1001 491 q 1004 488 1004 490 q 1002 484 1004 486 q 993 481 999 482 q 956 488 989 480 q 903 487 927 494 q 865 488 878 479 q 863 490 864 489 q 861 491 862 490 q 861 492 861 492 l 861 492 l 855 482 l 852 477 q 850 472 850 473 l 846 467 q 842 463 845 465 q 836 458 839 458 q 835 475 833 459 l 837 485 l 839 495 q 841 500 840 497 q 842 505 842 504 q 835 494 838 498 q 828 485 833 490 q 820 476 824 479 q 812 474 816 473 q 809 476 810 475 q 808 486 807 479 q 803 479 808 486 q 792 468 796 471 q 782 471 784 464 q 781 488 780 479 q 760 457 773 477 q 758 451 758 454 q 755 446 757 448 q 741 410 743 415 q 734 398 737 401 l 732 395 q 731 395 731 395 q 730 395 731 395 l 729 396 q 728 401 728 397 q 729 408 728 403 q 740 431 731 414 q 757 458 751 450 q 770 494 769 492 l 770 493 l 766 490 q 763 487 764 488 q 756 489 758 485 l 755 486 l 753 482 q 751 480 753 481 q 750 479 750 479 q 747 476 749 477 q 739 478 741 472 q 740 490 737 482 q 739 489 739 490 l 738 488 q 734 487 735 487 q 732 488 733 487 q 732 491 732 490 q 733 496 732 493 q 734 500 734 500 q 721 487 727 494 q 711 472 714 479 l 710 471 l 709 472 l 709 473 q 713 490 711 481 q 716 499 714 493 q 719 508 718 505 q 649 470 696 471 l 649 470 l 648 470 l 648 470 l 648 471 l 648 471 l 648 471 l 648 471 l 648 472 l 649 472 l 649 472 q 690 484 669 472 q 723 519 711 495 q 724 520 723 520 q 726 519 726 520 l 726 519 l 726 518 l 724 513 l 718 495 q 715 487 716 492 q 713 483 715 486 q 712 478 712 479 q 720 490 713 479 q 729 500 721 492 l 735 505 l 736 507 l 737 507 q 739 508 738 508 q 740 507 740 508 l 740 506 q 739 504 740 505 q 737 501 737 502 q 734 488 731 490 q 741 492 736 488 q 754 507 745 505 q 756 505 756 507 l 757 505 q 758 503 758 503 l 758 500 l 758 497 q 758 496 758 496 l 758 495 l 757 492 l 757 492 l 757 490 l 758 488 q 760 487 760 487 q 764 489 761 487 l 768 495 q 772 500 771 499 l 772 500 l 772 502 q 774 503 772 503 l 774 503 l 774 503 l 774 502 l 775 502 l 774 502 l 775 501 q 762 465 768 481 q 768 473 764 468 q 775 483 772 479 q 781 492 778 488 l 783 494 q 790 507 785 502 q 799 511 794 513 q 802 500 804 509 q 791 484 795 484 q 788 486 789 484 l 788 487 q 789 487 789 488 q 791 486 789 486 q 797 493 793 486 l 797 494 q 798 508 802 507 q 791 502 795 509 q 785 486 787 494 q 785 471 783 477 q 795 473 789 465 q 802 481 798 476 q 806 487 806 486 q 807 489 806 488 q 809 491 808 490 l 810 492 l 810 492 q 817 506 812 500 q 828 511 821 512 q 833 509 831 511 q 833 503 835 506 q 827 499 831 500 q 823 501 824 498 q 826 503 823 503 q 828 503 827 503 q 831 503 829 501 q 832 507 833 504 q 827 510 831 511 q 812 486 819 508 q 812 476 809 477 q 829 488 819 475 q 845 515 839 501 l 838 514 q 837 515 837 514 q 838 516 837 516 l 846 517 q 854 538 847 521 q 857 539 854 541 q 859 537 859 538 q 849 517 853 527 q 874 518 863 519 q 893 520 886 517 q 901 532 901 523 l 903 533 q 906 527 905 531 q 902 519 907 524 q 888 515 897 515 q 870 516 879 515 q 848 515 861 517 q 842 494 845 509 q 840 491 841 493 q 840 488 840 489 q 840 485 840 487 q 839 483 840 484 l 836 472 q 836 460 834 461 q 842 463 838 459 q 847 470 846 467 l 848 473 q 851 478 850 474 q 854 483 853 481 q 857 488 854 485 q 860 494 859 492 q 859 496 859 495 q 859 502 858 499 q 861 506 859 505 q 864 506 863 507 q 861 493 867 503 q 865 490 862 492 q 903 488 878 480 q 956 489 927 495 q 992 482 989 481 q 1000 485 999 484 q 1002 488 1002 487 l 1000 490 q 998 490 1000 490 q 997 488 997 489 q 998 487 997 487 q 999 488 999 487 q 1001 487 1000 490 q 1000 486 1001 486 l 999 486 l 997 486 q 996 488 996 487 q 1001 491 996 493 m 741 478 q 751 481 744 472 q 755 490 754 486 q 752 490 753 490 q 749 494 749 491 l 749 500 l 751 504 l 751 503 q 749 502 750 503 l 749 500 l 747 499 q 743 489 745 496 q 741 481 741 484 q 741 479 741 480 q 741 478 741 479 m 755 492 q 756 498 756 496 q 755 504 757 502 l 754 504 q 753 503 753 503 q 753 501 753 502 q 752 499 752 500 q 751 495 751 498 q 755 492 751 493 m 753 447 q 753 448 753 448 l 753 448 q 742 429 752 446 q 732 408 735 417 q 731 405 732 407 q 730 401 730 402 q 730 397 730 398 q 732 399 731 397 q 738 410 734 403 q 753 447 742 420 m 863 505 q 860 501 861 505 q 861 494 859 498 q 863 505 867 503 m 526 670 l 509 673 l 510 710 l 488 677 l 482 677 l 471 717 l 460 681 l 443 684 l 463 745 l 480 743 l 490 706 l 510 738 l 528 735 l 526 670 m 409 741 l 412 726 l 390 720 l 393 711 l 413 716 l 416 703 l 396 697 l 398 688 l 422 694 l 425 679 l 385 669 l 370 730 l 409 741 m 623 671 q 624 664 623 671 q 616 646 625 657 q 594 632 608 634 q 568 640 581 631 q 554 663 556 650 q 560 688 551 676 q 583 701 569 699 q 608 694 595 703 q 623 671 621 685 m 578 653 q 602 656 591 643 q 599 680 612 670 q 586 684 592 685 q 574 677 578 682 q 578 653 565 664 m 302 695 q 327 702 315 704 q 348 688 340 700 q 353 664 356 677 q 339 643 351 651 l 318 628 l 281 680 l 302 695 m 333 678 q 323 685 329 684 q 311 682 317 686 l 305 677 l 323 652 l 329 656 q 333 678 342 665 m 344 314 q 345 308 344 314 q 337 291 346 302 q 315 279 328 280 q 291 287 302 278 l 271 303 l 311 353 l 331 336 q 344 314 342 327 m 315 329 l 295 304 l 300 300 q 323 302 313 290 q 320 325 333 315 l 315 329 m 416 280 l 394 286 l 391 277 l 412 272 l 408 258 l 387 264 l 385 254 l 408 248 l 404 233 l 363 245 l 381 306 l 420 295 l 416 280 m 497 233 l 492 232 l 469 266 l 470 229 l 452 226 l 452 290 l 469 293 l 490 261 l 499 298 l 516 301 l 536 239 l 519 237 l 508 272 l 497 233 m 594 341 q 616 328 607 340 q 623 303 625 316 q 608 280 621 290 q 583 272 596 271 q 560 286 569 274 q 553 311 551 297 q 568 333 555 324 q 594 341 580 342 m 599 293 q 602 317 612 303 q 590 323 598 322 q 578 320 585 324 q 574 296 565 309 q 599 293 585 282 m 593 414 q 601 417 596 420 q 604 410 606 414 q 543 343 583 368 q 454 318 503 318 q 363 345 404 318 q 302 416 322 372 q 304 423 299 420 l 305 423 q 311 420 309 424 q 369 354 330 379 q 454 329 408 329 q 536 352 499 329 q 593 414 574 376 m 593 570 q 585 571 587 567 q 529 623 564 604 q 454 642 494 642 q 378 623 413 642 q 322 570 343 604 q 315 568 320 566 q 313 576 311 570 q 374 632 336 611 q 454 653 411 653 q 534 632 498 653 q 594 577 571 612 q 593 570 597 572 m 677 439 q 682 443 679 443 l 684 443 q 688 437 690 441 q 644 339 677 384 q 636 338 640 335 q 635 345 632 342 q 677 439 667 387 m 218 484 q 279 643 218 574 q 283 645 281 645 q 287 644 286 645 q 288 636 291 640 q 229 484 229 572 q 278 342 229 404 q 277 335 281 339 q 270 336 273 331 q 218 484 218 401 m 629 642 q 634 640 632 642 q 663 600 654 616 q 661 592 666 595 q 653 594 655 589 q 625 633 640 616 q 626 641 622 637 q 629 642 627 642 z "},"8":{"ha":1107,"x_min":103,"x_max":1004,"o":"m 755 347 q 764 337 762 344 q 763 322 766 330 q 635 186 718 237 q 453 135 552 135 q 277 182 358 135 q 150 310 197 229 q 103 486 103 391 q 150 661 103 581 q 277 789 197 742 q 453 836 358 836 q 635 785 552 836 q 763 649 718 734 q 764 634 766 642 q 755 624 762 627 q 741 622 747 620 q 729 631 732 625 q 615 753 689 707 q 453 798 542 798 q 232 707 323 798 q 140 486 140 615 q 232 264 140 356 q 453 173 323 173 q 615 218 542 173 q 729 340 689 264 q 741 349 732 347 q 755 347 747 351 m 703 635 q 696 637 699 633 q 593 736 658 699 q 453 772 528 772 q 309 734 375 772 q 204 630 243 696 q 166 486 166 564 q 204 341 166 408 q 309 237 243 275 q 453 199 375 199 q 593 235 529 199 q 696 334 658 272 q 703 335 699 338 q 705 328 708 333 q 598 225 665 263 q 453 188 532 188 q 304 228 372 188 q 195 336 235 268 q 155 486 155 405 q 195 635 155 566 q 304 743 235 703 q 453 783 372 783 q 598 746 532 783 q 705 644 665 708 q 703 635 709 638 m 492 534 l 492 471 q 477 461 484 470 l 477 534 q 476 543 477 541 q 473 547 475 546 q 464 548 469 548 l 464 551 q 473 551 466 551 q 485 551 479 551 q 496 551 490 551 q 505 551 503 551 l 505 548 q 496 547 500 548 q 493 543 494 546 q 492 534 492 539 m 464 437 l 464 441 q 473 442 469 441 q 476 446 475 443 q 483 457 479 452 q 489 463 486 461 l 492 463 l 492 454 q 493 446 492 450 q 496 442 494 443 q 505 441 500 441 l 505 437 q 496 438 503 437 q 485 438 490 438 q 473 438 479 438 q 464 437 466 437 m 341 511 q 332 499 338 503 q 313 492 325 494 l 315 492 q 327 488 322 491 q 334 482 332 486 q 338 471 335 481 l 342 454 q 344 447 342 451 q 346 443 345 444 q 350 441 347 441 q 354 443 351 441 l 359 448 l 361 446 q 353 437 355 438 q 344 435 349 435 q 333 439 337 435 q 327 453 329 444 l 323 469 q 319 481 320 481 q 315 489 317 487 q 305 492 312 492 l 290 492 l 290 454 q 291 446 290 450 q 294 442 292 443 q 302 441 298 441 l 302 437 q 294 438 300 437 q 282 438 287 438 q 270 438 277 438 q 262 437 264 437 l 262 441 q 270 442 266 441 q 274 446 273 444 q 275 454 275 448 l 275 534 q 274 543 275 541 q 270 547 273 545 q 262 548 266 548 l 262 551 q 270 551 264 551 q 281 551 277 551 l 295 551 q 301 551 298 551 q 306 551 305 551 q 327 547 317 551 q 340 537 336 543 q 345 523 345 530 q 341 511 345 517 m 317 498 q 321 499 317 498 q 326 507 324 501 q 328 522 328 513 q 322 541 328 534 q 302 548 316 548 q 294 547 297 548 q 291 543 292 545 q 290 534 290 538 l 290 494 l 300 494 q 317 498 311 494 m 432 442 q 435 447 435 443 q 433 454 435 451 l 423 481 l 422 484 l 404 532 l 386 484 l 385 481 l 378 464 q 374 450 374 455 q 378 443 374 445 q 389 441 380 441 l 389 437 q 379 438 385 437 q 370 438 373 438 q 363 438 368 438 q 358 437 359 437 l 358 441 q 371 454 366 443 l 408 552 l 411 552 l 450 451 q 461 441 454 441 l 461 437 q 454 438 460 437 q 444 438 448 438 q 433 438 439 438 q 424 437 426 437 l 424 441 q 432 442 428 441 m 567 491 q 576 480 574 485 q 581 466 581 472 q 576 449 581 457 q 564 439 572 442 q 546 435 555 435 q 534 437 537 435 q 524 441 527 439 q 519 444 520 444 q 516 441 517 444 q 515 437 515 440 l 511 437 q 512 475 512 443 l 516 475 q 524 448 517 457 q 545 438 530 438 q 555 441 549 438 q 563 448 560 443 q 566 460 566 452 q 563 471 566 466 q 555 480 559 476 q 541 489 553 481 q 533 494 538 491 q 526 499 528 498 q 516 510 522 502 q 512 525 512 516 q 516 541 512 534 q 527 550 521 547 q 543 553 533 553 q 551 552 549 553 q 557 550 555 551 l 562 547 l 568 545 q 570 547 568 545 q 571 552 571 549 l 574 552 q 574 519 574 546 l 570 519 q 567 534 569 530 q 558 545 564 541 q 544 550 551 550 q 534 547 539 550 q 527 541 529 545 q 524 531 524 536 q 530 517 524 523 q 542 507 537 510 q 546 505 544 507 q 549 503 548 504 q 551 502 551 502 q 567 491 561 496 m 673 484 q 652 481 664 481 l 648 481 l 642 481 q 633 486 632 482 q 635 489 633 488 q 639 490 635 490 q 675 493 660 489 q 696 506 690 497 q 702 530 702 513 l 702 530 l 703 530 l 703 531 l 703 531 l 703 531 l 703 531 l 703 531 l 704 531 l 704 531 l 704 531 l 704 531 l 704 531 l 705 530 l 705 530 q 698 505 705 514 q 675 492 690 496 q 639 488 660 488 q 635 488 636 488 q 640 484 632 486 q 644 483 642 483 l 652 483 q 673 486 663 483 q 692 494 684 488 q 707 508 702 500 q 713 526 713 516 q 710 540 713 533 q 701 549 708 544 q 690 556 694 555 q 687 557 689 557 q 683 559 684 558 q 680 559 682 559 q 662 562 671 562 q 648 560 657 562 q 633 557 638 559 q 620 553 624 555 q 608 548 616 552 q 606 547 607 548 q 604 546 605 547 q 603 545 604 545 q 601 544 602 544 l 597 541 q 588 532 592 537 q 585 519 585 528 l 585 519 l 585 518 q 595 502 586 508 q 621 503 606 494 l 621 503 l 621 503 l 621 503 l 622 503 l 622 503 l 622 502 l 622 502 l 622 502 l 622 501 l 622 501 l 622 501 l 622 501 l 621 501 q 593 500 605 492 q 583 517 586 505 l 583 517 l 583 518 l 583 519 l 583 519 l 583 522 q 584 529 583 525 q 587 535 586 534 q 588 537 587 536 q 589 538 589 538 l 592 541 l 595 544 l 599 547 q 614 555 608 553 q 631 561 623 559 q 648 564 641 564 q 664 565 653 565 q 676 564 668 565 q 688 561 684 562 q 698 555 690 560 q 707 548 705 551 q 713 536 711 543 q 715 526 715 532 q 712 514 715 519 q 710 511 711 513 q 708 507 709 509 q 706 504 707 505 q 699 497 701 499 q 692 493 694 494 q 673 484 684 488 m 616 458 l 641 541 q 643 542 641 542 q 644 541 644 542 q 645 540 645 541 l 644 539 l 617 457 q 616 456 617 456 q 616 457 616 456 l 616 458 m 781 522 l 780 522 q 779 523 779 522 l 779 524 l 781 527 q 782 528 781 528 q 783 528 783 528 l 784 527 l 784 526 l 784 526 l 782 522 q 781 522 782 522 m 1001 491 q 1004 488 1004 490 q 1002 484 1004 486 q 993 481 999 482 q 956 488 989 480 q 903 487 927 494 q 865 488 878 479 q 863 490 864 489 q 861 491 862 490 q 861 492 861 492 l 861 492 l 855 482 l 852 477 q 850 472 850 473 l 846 467 q 842 463 845 465 q 836 458 839 458 q 835 475 833 459 l 837 485 l 839 495 q 841 500 840 497 q 842 505 842 504 q 835 494 838 498 q 828 485 833 490 q 820 476 824 479 q 812 474 816 473 q 809 476 810 475 q 808 486 807 479 q 803 479 808 486 q 792 468 796 471 q 782 471 784 464 q 781 488 780 479 q 760 457 773 477 q 758 451 758 454 q 755 446 757 448 q 741 410 743 415 q 734 398 737 401 l 732 395 q 731 395 731 395 q 730 395 731 395 l 729 396 q 728 401 728 397 q 729 408 728 403 q 740 431 731 414 q 757 458 751 450 q 770 494 769 492 l 770 493 l 766 490 q 763 487 764 488 q 756 489 758 485 l 755 486 l 753 482 q 751 480 753 481 q 750 479 750 479 q 747 476 749 477 q 739 478 741 472 q 740 490 737 482 q 739 489 739 490 l 738 488 q 734 487 735 487 q 732 488 733 487 q 732 491 732 490 q 733 496 732 493 q 734 500 734 500 q 721 487 727 494 q 711 472 714 479 l 710 471 l 709 472 l 709 473 q 713 490 711 481 q 716 499 714 493 q 719 508 718 505 q 649 470 696 471 l 649 470 l 648 470 l 648 470 l 648 471 l 648 471 l 648 471 l 648 471 l 648 472 l 649 472 l 649 472 q 690 484 669 472 q 723 519 711 495 q 724 520 723 520 q 726 519 726 520 l 726 519 l 726 518 l 724 513 l 718 495 q 715 487 716 492 q 713 483 715 486 q 712 478 712 479 q 720 490 713 479 q 729 500 721 492 l 735 505 l 736 507 l 737 507 q 739 508 738 508 q 740 507 740 508 l 740 506 q 739 504 740 505 q 737 501 737 502 q 734 488 731 490 q 741 492 736 488 q 754 507 745 505 q 756 505 756 507 l 757 505 q 758 503 758 503 l 758 500 l 758 497 q 758 496 758 496 l 758 495 l 757 492 l 757 492 l 757 490 l 758 488 q 760 487 760 487 q 764 489 761 487 l 768 495 q 772 500 771 499 l 772 500 l 772 502 q 774 503 772 503 l 774 503 l 774 503 l 774 502 l 775 502 l 774 502 l 775 501 q 762 465 768 481 q 768 473 764 468 q 775 483 772 479 q 781 492 778 488 l 783 494 q 790 507 785 502 q 799 511 794 513 q 802 500 804 509 q 791 484 795 484 q 788 486 789 484 l 788 487 q 789 487 789 488 q 791 486 789 486 q 797 493 793 486 l 797 494 q 798 508 802 507 q 791 502 795 509 q 785 486 787 494 q 785 471 783 477 q 795 473 789 465 q 802 481 798 476 q 806 487 806 486 q 807 489 806 488 q 809 491 808 490 l 810 492 l 810 492 q 817 506 812 500 q 828 511 821 512 q 833 509 831 511 q 833 503 835 506 q 827 499 831 500 q 823 501 824 498 q 826 503 823 503 q 828 503 827 503 q 831 503 829 501 q 832 507 833 504 q 827 510 831 511 q 812 486 819 508 q 812 476 809 477 q 829 488 819 475 q 845 515 839 501 l 838 514 q 837 515 837 514 q 838 516 837 516 l 846 517 q 854 538 847 521 q 857 539 854 541 q 859 537 859 538 q 849 517 853 527 q 874 518 863 519 q 893 520 886 517 q 901 532 901 523 l 903 533 q 906 527 905 531 q 902 519 907 524 q 888 515 897 515 q 870 516 879 515 q 848 515 861 517 q 842 494 845 509 q 840 491 841 493 q 840 488 840 489 q 840 485 840 487 q 839 483 840 484 l 836 472 q 836 460 834 461 q 842 463 838 459 q 847 470 846 467 l 848 473 q 851 478 850 474 q 854 483 853 481 q 857 488 854 485 q 860 494 859 492 q 859 496 859 495 q 859 502 858 499 q 861 506 859 505 q 864 506 863 507 q 861 493 867 503 q 865 490 862 492 q 903 488 878 480 q 956 489 927 495 q 992 482 989 481 q 1000 485 999 484 q 1002 488 1002 487 l 1000 490 q 998 490 1000 490 q 997 488 997 489 q 998 487 997 487 q 999 488 999 487 q 1001 487 1000 490 q 1000 486 1001 486 l 999 486 l 997 486 q 996 488 996 487 q 1001 491 996 493 m 741 478 q 751 481 744 472 q 755 490 754 486 q 752 490 753 490 q 749 494 749 491 l 749 500 l 751 504 l 751 503 q 749 502 750 503 l 749 500 l 747 499 q 743 489 745 496 q 741 481 741 484 q 741 479 741 480 q 741 478 741 479 m 755 492 q 756 498 756 496 q 755 504 757 502 l 754 504 q 753 503 753 503 q 753 501 753 502 q 752 499 752 500 q 751 495 751 498 q 755 492 751 493 m 753 447 q 753 448 753 448 l 753 448 q 742 429 752 446 q 732 408 735 417 q 731 405 732 407 q 730 401 730 402 q 730 397 730 398 q 732 399 731 397 q 738 410 734 403 q 753 447 742 420 m 863 505 q 860 501 861 505 q 861 494 859 498 q 863 505 867 503 m 409 741 l 412 726 l 390 720 l 393 711 l 413 716 l 416 703 l 396 697 l 398 688 l 422 694 l 425 679 l 385 669 l 370 730 l 409 741 m 302 695 q 327 702 315 704 q 348 688 340 700 q 353 664 356 677 q 339 643 351 651 l 318 628 l 281 680 l 302 695 m 333 678 q 323 685 329 684 q 311 682 317 686 l 305 677 l 323 652 l 329 656 q 333 678 342 665 m 526 670 l 509 673 l 510 710 l 488 677 l 482 677 l 471 717 l 460 681 l 443 684 l 463 745 l 480 743 l 490 706 l 510 738 l 528 735 l 526 670 m 623 671 q 624 664 623 671 q 616 646 625 657 q 594 632 608 634 q 568 640 581 631 q 554 663 556 650 q 560 688 551 676 q 583 701 569 699 q 608 694 595 703 q 623 671 621 685 m 578 653 q 602 656 591 643 q 599 680 612 670 q 586 684 592 685 q 574 677 578 682 q 578 653 565 664 m 416 280 l 394 286 l 391 277 l 412 272 l 408 258 l 387 264 l 385 254 l 408 248 l 404 233 l 363 245 l 381 306 l 420 295 l 416 280 m 568 333 q 593 341 580 342 q 616 328 607 340 q 623 303 625 316 q 608 280 621 290 q 583 272 596 271 q 560 286 569 274 q 553 311 551 297 q 568 333 555 324 m 599 293 q 602 317 612 303 q 590 323 598 322 q 578 320 585 324 q 574 296 565 309 q 599 293 585 282 m 344 314 q 345 308 344 314 q 337 291 346 302 q 315 279 328 280 q 291 287 302 278 l 271 303 l 311 353 l 331 336 q 344 314 342 327 m 315 329 l 295 304 l 300 300 q 323 302 313 290 q 320 325 333 315 l 315 329 m 497 233 l 492 232 l 469 266 l 470 229 l 452 226 l 452 290 l 469 293 l 490 261 l 499 298 l 516 301 l 536 239 l 519 237 l 508 272 l 497 233 m 593 414 q 601 417 596 420 q 604 410 606 414 q 543 343 583 368 q 454 318 503 318 q 363 345 404 318 q 302 416 322 372 q 304 423 299 420 l 305 423 q 311 420 309 424 q 369 354 330 379 q 454 329 408 329 q 536 352 499 329 q 593 414 574 376 m 593 570 q 585 571 587 567 q 529 623 564 604 q 454 642 494 642 q 378 623 413 642 q 322 570 343 604 q 315 568 320 566 q 313 576 311 570 q 374 632 336 611 q 454 653 411 653 q 534 632 498 653 q 594 577 571 612 q 593 570 597 572 m 629 642 q 634 640 632 642 q 663 600 654 616 q 661 592 666 595 q 653 594 655 589 q 625 633 640 616 q 626 641 622 637 q 629 642 627 642 m 218 484 q 279 643 218 574 q 283 645 281 645 q 287 644 286 645 q 288 636 291 640 q 229 484 229 572 q 278 342 229 404 q 277 335 281 339 q 270 336 273 331 q 218 484 218 401 m 677 439 q 682 443 679 443 l 684 443 q 688 437 690 441 q 644 339 677 384 q 636 338 640 335 q 635 345 632 342 q 677 439 667 387 z "},"9":{"ha":1107,"x_min":103,"x_max":1004,"o":"m 755 347 q 764 337 762 344 q 763 322 766 330 q 635 186 718 237 q 453 135 552 135 q 277 182 358 135 q 150 310 197 229 q 103 486 103 391 q 150 661 103 581 q 277 789 197 742 q 453 836 358 836 q 635 785 552 836 q 763 649 718 734 q 764 634 766 642 q 755 624 762 627 q 741 622 747 620 q 729 631 732 625 q 615 753 689 707 q 453 798 542 798 q 232 707 323 798 q 140 486 140 615 q 232 264 140 356 q 453 173 323 173 q 615 218 542 173 q 729 340 689 264 q 741 349 732 347 q 755 347 747 351 m 703 635 q 696 637 699 633 q 593 736 658 699 q 453 772 528 772 q 309 734 375 772 q 204 630 243 696 q 166 486 166 564 q 204 341 166 408 q 309 237 243 275 q 453 199 375 199 q 593 235 529 199 q 696 334 658 272 q 703 335 699 338 q 705 328 708 333 q 598 225 665 263 q 453 188 532 188 q 304 228 372 188 q 195 336 235 268 q 155 486 155 405 q 195 635 155 566 q 304 743 235 703 q 453 783 372 783 q 598 746 532 783 q 705 644 665 708 q 703 635 709 638 m 492 534 l 492 471 q 477 461 484 470 l 477 534 q 476 543 477 541 q 473 547 475 546 q 464 548 469 548 l 464 551 q 473 551 466 551 q 485 551 479 551 q 496 551 490 551 q 505 551 503 551 l 505 548 q 496 547 500 548 q 493 543 494 546 q 492 534 492 539 m 464 437 l 464 441 q 473 442 469 441 q 476 446 475 443 q 483 457 479 452 q 489 463 486 461 l 492 463 l 492 454 q 493 446 492 450 q 496 442 494 443 q 505 441 500 441 l 505 437 q 496 438 503 437 q 485 438 490 438 q 473 438 479 438 q 464 437 466 437 m 341 511 q 332 499 338 503 q 313 492 325 494 l 315 492 q 327 488 322 491 q 334 482 332 486 q 338 471 335 481 l 342 454 q 344 447 342 451 q 346 443 345 444 q 350 441 347 441 q 354 443 351 441 l 359 448 l 361 446 q 353 437 355 438 q 344 435 349 435 q 333 439 337 435 q 327 453 329 444 l 323 469 q 319 481 320 481 q 315 489 317 487 q 305 492 312 492 l 290 492 l 290 454 q 291 446 290 450 q 294 442 292 443 q 302 441 298 441 l 302 437 q 294 438 300 437 q 282 438 287 438 q 270 438 277 438 q 262 437 264 437 l 262 441 q 270 442 266 441 q 274 446 273 444 q 275 454 275 448 l 275 534 q 274 543 275 541 q 270 547 273 545 q 262 548 266 548 l 262 551 q 270 551 264 551 q 281 551 277 551 l 295 551 q 301 551 298 551 q 306 551 305 551 q 327 547 317 551 q 340 537 336 543 q 345 523 345 530 q 341 511 345 517 m 317 498 q 321 499 317 498 q 326 507 324 501 q 328 522 328 513 q 322 541 328 534 q 302 548 316 548 q 294 547 297 548 q 291 543 292 545 q 290 534 290 538 l 290 494 l 300 494 q 317 498 311 494 m 432 442 q 435 447 435 443 q 433 454 435 451 l 423 481 l 422 484 l 404 532 l 386 484 l 385 481 l 378 464 q 374 450 374 455 q 378 443 374 445 q 389 441 380 441 l 389 437 q 379 438 385 437 q 370 438 373 438 q 363 438 368 438 q 358 437 359 437 l 358 441 q 371 454 366 443 l 408 552 l 411 552 l 450 451 q 461 441 454 441 l 461 437 q 454 438 460 437 q 444 438 448 438 q 433 438 439 438 q 424 437 426 437 l 424 441 q 432 442 428 441 m 567 491 q 576 480 574 485 q 581 466 581 472 q 576 449 581 457 q 564 439 572 442 q 546 435 555 435 q 534 437 537 435 q 524 441 527 439 q 519 444 520 444 q 516 441 517 444 q 515 437 515 440 l 511 437 q 512 475 512 443 l 516 475 q 524 448 517 457 q 545 438 530 438 q 555 441 549 438 q 563 448 560 443 q 566 460 566 452 q 563 471 566 466 q 555 480 559 476 q 541 489 553 481 q 533 494 538 491 q 526 499 528 498 q 516 510 522 502 q 512 525 512 516 q 516 541 512 534 q 527 550 521 547 q 543 553 533 553 q 551 552 549 553 q 557 550 555 551 l 562 547 l 568 545 q 570 547 568 545 q 571 552 571 549 l 574 552 q 574 519 574 546 l 570 519 q 567 534 569 530 q 558 545 564 541 q 544 550 551 550 q 534 547 539 550 q 527 541 529 545 q 524 531 524 536 q 530 517 524 523 q 542 507 537 510 q 546 505 544 507 q 549 503 548 504 q 551 502 551 502 q 567 491 561 496 m 616 458 l 641 541 q 643 542 641 542 q 644 541 644 542 q 645 540 645 541 l 644 539 l 617 457 q 616 456 617 456 q 616 457 616 456 l 616 458 m 673 484 q 652 481 664 481 l 648 481 l 642 481 q 633 486 632 482 q 635 489 633 488 q 639 490 635 490 q 675 493 660 489 q 696 506 690 497 q 702 530 702 513 l 702 530 l 703 530 l 703 531 l 703 531 l 703 531 l 703 531 l 703 531 l 704 531 l 704 531 l 704 531 l 704 531 l 704 531 l 705 530 l 705 530 q 698 505 705 514 q 675 492 690 496 q 639 488 660 488 q 635 488 636 488 q 640 484 632 486 q 644 483 642 483 l 652 483 q 673 486 663 483 q 692 494 684 488 q 707 508 702 500 q 713 526 713 516 q 710 540 713 533 q 701 549 708 544 q 690 556 694 555 q 687 557 689 557 q 683 559 684 558 q 680 559 682 559 q 662 562 671 562 q 648 560 657 562 q 633 557 638 559 q 620 553 624 555 q 608 548 616 552 q 606 547 607 548 q 604 546 605 547 q 603 545 604 545 q 601 544 602 544 l 597 541 q 588 532 592 537 q 585 519 585 528 l 585 519 l 585 518 q 595 502 586 508 q 621 503 606 494 l 621 503 l 621 503 l 621 503 l 622 503 l 622 503 l 622 502 l 622 502 l 622 502 l 622 501 l 622 501 l 622 501 l 622 501 l 621 501 q 593 500 605 492 q 583 517 586 505 l 583 517 l 583 518 l 583 519 l 583 519 l 583 522 q 584 529 583 525 q 587 535 586 534 q 588 537 587 536 q 589 538 589 538 l 592 541 l 595 544 l 599 547 q 614 555 608 553 q 631 561 623 559 q 648 564 641 564 q 664 565 653 565 q 676 564 668 565 q 688 561 684 562 q 698 555 690 560 q 707 548 705 551 q 713 536 711 543 q 715 526 715 532 q 712 514 715 519 q 710 511 711 513 q 708 507 709 509 q 706 504 707 505 q 699 497 701 499 q 692 493 694 494 q 673 484 684 488 m 781 522 l 780 522 q 779 523 779 522 l 779 524 l 781 527 q 782 528 781 528 q 783 528 783 528 l 784 527 l 784 526 l 784 526 l 782 522 q 781 522 782 522 m 1001 491 q 1004 488 1004 490 q 1002 484 1004 486 q 993 481 999 482 q 956 488 989 480 q 903 487 927 494 q 865 488 878 479 q 863 490 864 489 q 861 491 862 490 q 861 492 861 492 l 861 492 l 855 482 l 852 477 q 850 472 850 473 l 846 467 q 842 463 845 465 q 836 458 839 458 q 835 475 833 459 l 837 485 l 839 495 q 841 500 840 497 q 842 505 842 504 q 835 494 838 498 q 828 485 833 490 q 820 476 824 479 q 812 474 816 473 q 809 476 810 475 q 808 486 807 479 q 803 479 808 486 q 792 468 796 471 q 782 471 784 464 q 781 488 780 479 q 760 457 773 477 q 758 451 758 454 q 755 446 757 448 q 741 410 743 415 q 734 398 737 401 l 732 395 q 731 395 731 395 q 730 395 731 395 l 729 396 q 728 401 728 397 q 729 408 728 403 q 740 431 731 414 q 757 458 751 450 q 770 494 769 492 l 770 493 l 766 490 q 763 487 764 488 q 756 489 758 485 l 755 486 l 753 482 q 751 480 753 481 q 750 479 750 479 q 747 476 749 477 q 739 478 741 472 q 740 490 737 482 q 739 489 739 490 l 738 488 q 734 487 735 487 q 732 488 733 487 q 732 491 732 490 q 733 496 732 493 q 734 500 734 500 q 721 487 727 494 q 711 472 714 479 l 710 471 l 709 472 l 709 473 q 713 490 711 481 q 716 499 714 493 q 719 508 718 505 q 649 470 696 471 l 649 470 l 648 470 l 648 470 l 648 471 l 648 471 l 648 471 l 648 471 l 648 472 l 649 472 l 649 472 q 690 484 669 472 q 723 519 711 495 q 724 520 723 520 q 726 519 726 520 l 726 519 l 726 518 l 724 513 l 718 495 q 715 487 716 492 q 713 483 715 486 q 712 478 712 479 q 720 490 713 479 q 729 500 721 492 l 735 505 l 736 507 l 737 507 q 739 508 738 508 q 740 507 740 508 l 740 506 q 739 504 740 505 q 737 501 737 502 q 734 488 731 490 q 741 492 736 488 q 754 507 745 505 q 756 505 756 507 l 757 505 q 758 503 758 503 l 758 500 l 758 497 q 758 496 758 496 l 758 495 l 757 492 l 757 492 l 757 490 l 758 488 q 760 487 760 487 q 764 489 761 487 l 768 495 q 772 500 771 499 l 772 500 l 772 502 q 774 503 772 503 l 774 503 l 774 503 l 774 502 l 775 502 l 774 502 l 775 501 q 762 465 768 481 q 768 473 764 468 q 775 483 772 479 q 781 492 778 488 l 783 494 q 790 507 785 502 q 799 511 794 513 q 802 500 804 509 q 791 484 795 484 q 788 486 789 484 l 788 487 q 789 487 789 488 q 791 486 789 486 q 797 493 793 486 l 797 494 q 798 508 802 507 q 791 502 795 509 q 785 486 787 494 q 785 471 783 477 q 795 473 789 465 q 802 481 798 476 q 806 487 806 486 q 807 489 806 488 q 809 491 808 490 l 810 492 l 810 492 q 817 506 812 500 q 828 511 821 512 q 833 509 831 511 q 833 503 835 506 q 827 499 831 500 q 823 501 824 498 q 826 503 823 503 q 828 503 827 503 q 831 503 829 501 q 832 507 833 504 q 827 510 831 511 q 812 486 819 508 q 812 476 809 477 q 829 488 819 475 q 845 515 839 501 l 838 514 q 837 515 837 514 q 838 516 837 516 l 846 517 q 854 538 847 521 q 857 539 854 541 q 859 537 859 538 q 849 517 853 527 q 874 518 863 519 q 893 520 886 517 q 901 532 901 523 l 903 533 q 906 527 905 531 q 902 519 907 524 q 888 515 897 515 q 870 516 879 515 q 848 515 861 517 q 842 494 845 509 q 840 491 841 493 q 840 488 840 489 q 840 485 840 487 q 839 483 840 484 l 836 472 q 836 460 834 461 q 842 463 838 459 q 847 470 846 467 l 848 473 q 851 478 850 474 q 854 483 853 481 q 857 488 854 485 q 860 494 859 492 q 859 496 859 495 q 859 502 858 499 q 861 506 859 505 q 864 506 863 507 q 861 493 867 503 q 865 490 862 492 q 903 488 878 480 q 956 489 927 495 q 992 482 989 481 q 1000 485 999 484 q 1002 488 1002 487 l 1000 490 q 998 490 1000 490 q 997 488 997 489 q 998 487 997 487 q 999 488 999 487 q 1001 487 1000 490 q 1000 486 1001 486 l 999 486 l 997 486 q 996 488 996 487 q 1001 491 996 493 m 741 478 q 751 481 744 472 q 755 490 754 486 q 752 490 753 490 q 749 494 749 491 l 749 500 l 751 504 l 751 503 q 749 502 750 503 l 749 500 l 747 499 q 743 489 745 496 q 741 481 741 484 q 741 479 741 480 q 741 478 741 479 m 755 492 q 756 498 756 496 q 755 504 757 502 l 754 504 q 753 503 753 503 q 753 501 753 502 q 752 499 752 500 q 751 495 751 498 q 755 492 751 493 m 753 447 q 753 448 753 448 l 753 448 q 742 429 752 446 q 732 408 735 417 q 731 405 732 407 q 730 401 730 402 q 730 397 730 398 q 732 399 731 397 q 738 410 734 403 q 753 447 742 420 m 863 505 q 860 501 861 505 q 861 494 859 498 q 863 505 867 503 m 623 671 q 624 664 623 671 q 616 646 625 657 q 594 632 608 634 q 568 640 581 631 q 554 663 556 650 q 560 688 551 676 q 583 701 569 699 q 608 694 595 703 q 623 671 621 685 m 578 653 q 602 656 591 643 q 599 680 612 670 q 586 684 592 685 q 574 677 578 682 q 578 653 565 664 m 526 670 l 509 673 l 510 710 l 488 677 l 482 677 l 471 717 l 460 681 l 443 684 l 463 745 l 480 743 l 490 706 l 510 738 l 528 735 l 526 670 m 409 741 l 412 726 l 390 720 l 393 711 l 413 716 l 416 703 l 396 697 l 398 688 l 422 694 l 425 679 l 385 669 l 370 730 l 409 741 m 302 695 q 327 702 315 704 q 348 688 340 700 q 353 664 356 677 q 339 643 351 651 l 318 628 l 281 680 l 302 695 m 333 678 q 323 685 329 684 q 311 682 317 686 l 305 677 l 323 652 l 329 656 q 333 678 342 665 m 344 314 q 345 308 344 314 q 337 291 346 302 q 315 279 328 280 q 291 287 302 278 l 271 303 l 311 353 l 331 336 q 344 314 342 327 m 315 329 l 295 304 l 300 300 q 323 302 313 290 q 320 325 333 315 l 315 329 m 497 233 l 492 232 l 469 266 l 470 229 l 452 226 l 452 290 l 469 293 l 490 261 l 499 298 l 516 301 l 536 239 l 518 237 l 508 272 l 497 233 m 594 341 q 616 328 607 340 q 623 303 625 316 q 608 280 621 290 q 583 272 596 271 q 560 286 569 274 q 553 311 551 297 q 568 333 555 324 q 594 341 580 342 m 599 293 q 602 317 612 303 q 590 323 598 322 q 578 320 585 324 q 574 296 565 309 q 599 293 585 282 m 416 280 l 394 286 l 391 277 l 412 272 l 408 258 l 387 264 l 385 254 l 408 248 l 404 233 l 363 245 l 381 306 l 420 295 l 416 280 m 593 570 q 585 571 587 567 q 529 623 564 604 q 454 642 494 642 q 378 623 413 642 q 322 570 343 604 q 315 568 320 566 q 313 576 311 570 q 373 632 336 611 q 454 653 410 653 q 534 632 497 653 q 594 577 571 612 q 593 570 597 572 m 593 414 q 601 417 596 420 q 604 410 606 414 q 543 343 583 368 q 454 318 503 318 q 363 345 404 318 q 302 416 322 372 q 304 423 299 420 l 305 423 q 311 420 309 424 q 369 354 330 379 q 454 329 408 329 q 536 352 499 329 q 593 414 574 376 m 629 642 q 634 640 632 642 q 663 600 654 616 q 661 592 666 595 q 653 594 655 589 q 625 633 640 616 q 626 641 622 637 q 629 642 627 642 m 677 439 q 682 443 679 443 l 684 443 q 688 437 690 441 q 644 339 677 384 q 636 338 640 335 q 635 345 632 342 q 677 439 667 387 m 218 484 q 279 643 218 574 q 283 645 281 645 q 287 644 286 645 q 288 636 291 640 q 229 484 229 572 q 278 342 229 404 q 277 335 281 339 q 270 336 273 331 q 218 484 218 401 z "},"\u0000":{"ha":0,"x_min":0,"x_max":0,"o":""},"\n":{"ha":0,"x_min":0,"x_max":0,"o":""},"\r":{"ha":0,"x_min":0,"x_max":0,"o":""}," ":{"ha":604,"x_min":0,"x_max":0,"o":""},"!":{"ha":1107,"x_min":103,"x_max":1004,"o":"m 755 347 q 764 337 762 344 q 763 322 766 330 q 635 186 718 237 q 453 135 552 135 q 277 182 358 135 q 150 310 197 229 q 103 486 103 391 q 150 661 103 581 q 277 789 197 742 q 453 836 358 836 q 635 785 552 836 q 763 649 718 734 q 764 634 766 642 q 755 624 762 627 q 741 622 747 620 q 729 631 732 625 q 615 753 689 707 q 453 798 542 798 q 232 707 323 798 q 140 486 140 615 q 232 264 140 356 q 453 173 323 173 q 615 218 542 173 q 729 340 689 264 q 741 349 732 347 q 755 347 747 351 m 703 635 q 696 637 699 633 q 593 736 658 699 q 453 772 528 772 q 309 734 375 772 q 204 630 243 696 q 166 486 166 564 q 204 341 166 408 q 309 237 243 275 q 453 199 375 199 q 593 235 529 199 q 696 334 658 272 q 703 335 699 338 q 705 328 708 333 q 598 225 665 263 q 453 188 532 188 q 304 228 372 188 q 195 336 235 268 q 155 486 155 405 q 195 635 155 566 q 304 743 235 703 q 453 783 372 783 q 598 746 532 783 q 705 644 665 708 q 703 635 709 638 m 492 534 l 492 471 q 477 461 484 470 l 477 534 q 476 543 477 541 q 473 547 475 546 q 464 548 469 548 l 464 551 q 473 551 466 551 q 485 551 479 551 q 496 551 490 551 q 505 551 503 551 l 505 548 q 496 547 500 548 q 493 543 494 546 q 492 534 492 539 m 464 437 l 464 441 q 473 442 469 441 q 476 446 475 443 q 483 457 479 452 q 489 463 486 461 l 492 463 l 492 454 q 493 446 492 450 q 496 442 494 443 q 505 441 500 441 l 505 437 q 496 438 503 437 q 485 438 490 438 q 473 438 479 438 q 464 437 466 437 m 341 511 q 332 499 338 503 q 313 492 325 494 l 315 492 q 327 488 322 491 q 334 482 332 486 q 338 471 335 481 l 342 454 q 344 447 342 451 q 346 443 345 444 q 350 441 347 441 q 354 443 351 441 l 359 448 l 361 446 q 353 437 355 438 q 344 435 349 435 q 333 439 337 435 q 327 453 329 444 l 323 469 q 319 481 320 481 q 315 489 317 487 q 305 492 312 492 l 290 492 l 290 454 q 291 446 290 450 q 294 442 292 443 q 302 441 298 441 l 302 437 q 294 438 300 437 q 282 438 287 438 q 270 438 277 438 q 262 437 264 437 l 262 441 q 270 442 266 441 q 274 446 273 444 q 275 454 275 448 l 275 534 q 274 543 275 541 q 270 547 273 545 q 262 548 266 548 l 262 551 q 270 551 264 551 q 281 551 277 551 l 295 551 q 301 551 298 551 q 306 551 305 551 q 327 547 317 551 q 340 537 336 543 q 345 523 345 530 q 341 511 345 517 m 317 498 q 321 499 317 498 q 326 507 324 501 q 328 522 328 513 q 322 541 328 534 q 302 548 316 548 q 294 547 297 548 q 291 543 292 545 q 290 534 290 538 l 290 494 l 300 494 q 317 498 311 494 m 432 442 q 435 447 435 443 q 433 454 435 451 l 423 481 l 422 484 l 404 532 l 386 484 l 385 481 l 378 464 q 374 450 374 455 q 378 443 374 445 q 389 441 380 441 l 389 437 q 379 438 385 437 q 370 438 373 438 q 363 438 368 438 q 358 437 359 437 l 358 441 q 371 454 366 443 l 408 552 l 411 552 l 450 451 q 461 441 454 441 l 461 437 q 454 438 460 437 q 444 438 448 438 q 433 438 439 438 q 424 437 426 437 l 424 441 q 432 442 428 441 m 567 491 q 576 480 574 485 q 581 466 581 472 q 576 449 581 457 q 564 439 572 442 q 546 435 555 435 q 534 437 537 435 q 524 441 527 439 q 519 444 520 444 q 516 441 517 444 q 515 437 515 440 l 511 437 q 512 475 512 443 l 516 475 q 524 448 517 457 q 545 438 530 438 q 555 441 549 438 q 563 448 560 443 q 566 460 566 452 q 563 471 566 466 q 555 480 559 476 q 541 489 553 481 q 533 494 538 491 q 526 499 528 498 q 516 510 522 502 q 512 525 512 516 q 516 541 512 534 q 527 550 521 547 q 543 553 533 553 q 551 552 549 553 q 557 550 555 551 l 562 547 l 568 545 q 570 547 568 545 q 571 552 571 549 l 574 552 q 574 519 574 546 l 570 519 q 567 534 569 530 q 558 545 564 541 q 544 550 551 550 q 534 547 539 550 q 527 541 529 545 q 524 531 524 536 q 530 517 524 523 q 542 507 537 510 q 546 505 544 507 q 549 503 548 504 q 551 502 551 502 q 567 491 561 496 m 616 458 l 641 541 q 643 542 641 542 q 644 541 644 542 q 645 540 645 541 l 644 539 l 617 457 q 616 456 617 456 q 616 457 616 456 l 616 458 m 673 484 q 652 481 664 481 l 648 481 l 642 481 q 633 486 632 482 q 635 489 633 488 q 639 490 635 490 q 675 493 660 489 q 696 506 690 497 q 702 530 702 513 l 702 530 l 703 530 l 703 531 l 703 531 l 703 531 l 703 531 l 703 531 l 704 531 l 704 531 l 704 531 l 704 531 l 704 531 l 705 530 l 705 530 q 698 505 705 514 q 675 492 690 496 q 639 488 660 488 q 635 488 636 488 q 640 484 632 486 q 644 483 642 483 l 652 483 q 673 486 663 483 q 692 494 684 488 q 707 508 702 500 q 713 526 713 516 q 710 540 713 533 q 701 549 708 544 q 690 556 694 555 q 687 557 689 557 q 683 559 684 558 q 680 559 682 559 q 662 562 671 562 q 648 560 657 562 q 633 557 638 559 q 620 553 624 555 q 608 548 616 552 q 606 547 607 548 q 604 546 605 547 q 603 545 604 545 q 601 544 602 544 l 597 541 q 588 532 592 537 q 585 519 585 528 l 585 519 l 585 518 q 595 502 586 508 q 621 503 606 494 l 621 503 l 621 503 l 621 503 l 622 503 l 622 503 l 622 502 l 622 502 l 622 502 l 622 501 l 622 501 l 622 501 l 622 501 l 621 501 q 593 500 605 492 q 583 517 586 505 l 583 517 l 583 518 l 583 519 l 583 519 l 583 522 q 584 529 583 525 q 587 535 586 534 q 588 537 587 536 q 589 538 589 538 l 592 541 l 595 544 l 599 547 q 614 555 608 553 q 631 561 623 559 q 648 564 641 564 q 664 565 653 565 q 676 564 668 565 q 688 561 684 562 q 698 555 690 560 q 707 548 705 551 q 713 536 711 543 q 715 526 715 532 q 712 514 715 519 q 710 511 711 513 q 708 507 709 509 q 706 504 707 505 q 699 497 701 499 q 692 493 694 494 q 673 484 684 488 m 781 522 l 780 522 q 779 523 779 522 l 779 524 l 781 527 q 782 528 781 528 q 783 528 783 528 l 784 527 l 784 526 l 784 526 l 782 522 q 781 522 782 522 m 1001 491 q 1004 488 1004 490 q 1002 484 1004 486 q 993 481 999 482 q 956 488 989 480 q 903 487 927 494 q 865 488 878 479 q 863 490 864 489 q 861 491 862 490 q 861 492 861 492 l 861 492 l 855 482 l 852 477 q 850 472 850 473 l 846 467 q 842 463 845 465 q 836 458 839 458 q 835 475 833 459 l 837 485 l 839 495 q 841 500 840 497 q 842 505 842 504 q 835 494 838 498 q 828 485 833 490 q 820 476 824 479 q 812 474 816 473 q 809 476 810 475 q 808 486 807 479 q 803 479 808 486 q 792 468 796 471 q 782 471 784 464 q 781 488 780 479 q 760 457 773 477 q 758 451 758 454 q 755 446 757 448 q 741 410 743 415 q 734 398 737 401 l 732 395 q 731 395 731 395 q 730 395 731 395 l 729 396 q 728 401 728 397 q 729 408 728 403 q 740 431 731 414 q 757 458 751 450 q 770 494 769 492 l 770 493 l 766 490 q 763 487 764 488 q 756 489 758 485 l 755 486 l 753 482 q 751 480 753 481 q 750 479 750 479 q 747 476 749 477 q 739 478 741 472 q 740 490 737 482 q 739 489 739 490 l 738 488 q 734 487 735 487 q 732 488 733 487 q 732 491 732 490 q 733 496 732 493 q 734 500 734 500 q 721 487 727 494 q 711 472 714 479 l 710 471 l 709 472 l 709 473 q 713 490 711 481 q 716 499 714 493 q 719 508 718 505 q 649 470 696 471 l 649 470 l 648 470 l 648 470 l 648 471 l 648 471 l 648 471 l 648 471 l 648 472 l 649 472 l 649 472 q 690 484 669 472 q 723 519 711 495 q 724 520 723 520 q 726 519 726 520 l 726 519 l 726 518 l 724 513 l 718 495 q 715 487 716 492 q 713 483 715 486 q 712 478 712 479 q 720 490 713 479 q 729 500 721 492 l 735 505 l 736 507 l 737 507 q 739 508 738 508 q 740 507 740 508 l 740 506 q 739 504 740 505 q 737 501 737 502 q 734 488 731 490 q 741 492 736 488 q 754 507 745 505 q 756 505 756 507 l 757 505 q 758 503 758 503 l 758 500 l 758 497 q 758 496 758 496 l 758 495 l 757 492 l 757 492 l 757 490 l 758 488 q 760 487 760 487 q 764 489 761 487 l 768 495 q 772 500 771 499 l 772 500 l 772 502 q 774 503 772 503 l 774 503 l 774 503 l 774 502 l 775 502 l 774 502 l 775 501 q 762 465 768 481 q 768 473 764 468 q 775 483 772 479 q 781 492 778 488 l 783 494 q 790 507 785 502 q 799 511 794 513 q 802 500 804 509 q 791 484 795 484 q 788 486 789 484 l 788 487 q 789 487 789 488 q 791 486 789 486 q 797 493 793 486 l 797 494 q 798 508 802 507 q 791 502 795 509 q 785 486 787 494 q 785 471 783 477 q 795 473 789 465 q 802 481 798 476 q 806 487 806 486 q 807 489 806 488 q 809 491 808 490 l 810 492 l 810 492 q 817 506 812 500 q 828 511 821 512 q 833 509 831 511 q 833 503 835 506 q 827 499 831 500 q 823 501 824 498 q 826 503 823 503 q 828 503 827 503 q 831 503 829 501 q 832 507 833 504 q 827 510 831 511 q 812 486 819 508 q 812 476 809 477 q 829 488 819 475 q 845 515 839 501 l 838 514 q 837 515 837 514 q 838 516 837 516 l 846 517 q 854 538 847 521 q 857 539 854 541 q 859 537 859 538 q 849 517 853 527 q 874 518 863 519 q 893 520 886 517 q 901 532 901 523 l 903 533 q 906 527 905 531 q 902 519 907 524 q 888 515 897 515 q 870 516 879 515 q 848 515 861 517 q 842 494 845 509 q 840 491 841 493 q 840 488 840 489 q 840 485 840 487 q 839 483 840 484 l 836 472 q 836 460 834 461 q 842 463 838 459 q 847 470 846 467 l 848 473 q 851 478 850 474 q 854 483 853 481 q 857 488 854 485 q 860 494 859 492 q 859 496 859 495 q 859 502 858 499 q 861 506 859 505 q 864 506 863 507 q 861 493 867 503 q 865 490 862 492 q 903 488 878 480 q 956 489 927 495 q 992 482 989 481 q 1000 485 999 484 q 1002 488 1002 487 l 1000 490 q 998 490 1000 490 q 997 488 997 489 q 998 487 997 487 q 999 488 999 487 q 1001 487 1000 490 q 1000 486 1001 486 l 999 486 l 997 486 q 996 488 996 487 q 1001 491 996 493 m 741 478 q 751 481 744 472 q 755 490 754 486 q 752 490 753 490 q 749 494 749 491 l 749 500 l 751 504 l 751 503 q 749 502 750 503 l 749 500 l 747 499 q 743 489 745 496 q 741 481 741 484 q 741 479 741 480 q 741 478 741 479 m 755 492 q 756 498 756 496 q 755 504 757 502 l 754 504 q 753 503 753 503 q 753 501 753 502 q 752 499 752 500 q 751 495 751 498 q 755 492 751 493 m 753 447 q 753 448 753 448 l 753 448 q 742 429 752 446 q 732 408 735 417 q 731 405 732 407 q 730 401 730 402 q 730 397 730 398 q 732 399 731 397 q 738 410 734 403 q 753 447 742 420 m 863 505 q 860 501 861 505 q 861 494 859 498 q 863 505 867 503 m 302 695 q 327 702 315 704 q 348 688 340 700 q 353 664 356 677 q 339 643 351 651 l 318 628 l 281 680 l 302 695 m 333 678 q 323 685 329 684 q 311 682 317 686 l 305 677 l 323 652 l 329 656 q 333 678 342 665 m 526 670 l 509 673 l 510 710 l 488 677 l 482 677 l 471 717 l 460 681 l 443 684 l 463 745 l 480 743 l 490 706 l 510 738 l 528 735 l 526 670 m 623 671 q 624 664 623 671 q 616 646 625 657 q 594 632 608 634 q 568 640 581 631 q 554 663 556 650 q 560 688 551 676 q 583 701 569 699 q 608 694 595 703 q 623 671 621 685 m 578 653 q 602 656 591 643 q 599 680 612 670 q 586 684 592 685 q 574 677 578 682 q 578 653 565 664 m 409 741 l 412 726 l 390 720 l 393 711 l 413 716 l 416 703 l 396 697 l 398 688 l 422 694 l 426 679 l 385 669 l 370 730 l 409 741 m 344 314 q 345 308 344 314 q 337 291 346 302 q 315 279 328 280 q 291 287 302 278 l 271 303 l 311 353 l 331 336 q 344 314 342 327 m 315 329 l 295 304 l 300 300 q 323 302 313 290 q 320 325 333 315 l 315 329 m 497 233 l 492 232 l 469 266 l 470 229 l 452 226 l 452 290 l 469 293 l 490 261 l 499 298 l 516 301 l 536 239 l 518 237 l 508 272 l 497 233 m 416 280 l 394 286 l 391 277 l 412 272 l 408 258 l 387 264 l 385 254 l 408 248 l 404 233 l 363 245 l 381 306 l 420 295 l 416 280 m 568 333 q 593 341 580 342 q 616 328 607 340 q 623 303 625 316 q 608 280 621 290 q 583 272 596 271 q 560 286 569 274 q 553 311 551 297 q 568 333 555 324 m 599 293 q 602 317 612 303 q 590 323 598 322 q 578 320 585 324 q 574 296 565 309 q 599 293 585 282 m 593 570 q 585 571 587 567 q 529 623 564 604 q 454 642 494 642 q 378 623 413 642 q 322 570 343 604 q 315 568 320 566 q 313 576 311 570 q 373 632 336 611 q 454 653 410 653 q 534 632 497 653 q 594 577 571 612 q 593 570 597 572 m 593 414 q 601 417 596 420 q 604 410 606 414 q 543 343 583 368 q 454 318 503 318 q 363 345 404 318 q 302 416 322 372 q 304 423 299 420 l 305 423 q 311 420 309 424 q 369 354 330 379 q 454 329 408 329 q 536 352 499 329 q 593 414 574 376 m 629 642 q 634 640 632 642 q 663 600 654 616 q 661 592 666 595 q 653 594 655 589 q 625 633 640 616 q 626 641 622 637 q 629 642 627 642 m 677 439 q 682 443 679 443 l 684 443 q 688 437 690 441 q 644 339 677 384 q 636 338 640 335 q 635 345 632 342 q 677 439 667 387 m 218 484 q 279 643 218 574 q 283 645 281 645 q 287 644 286 645 q 288 636 291 640 q 229 484 229 572 q 278 342 229 404 q 277 335 281 339 q 270 336 273 331 q 218 484 218 401 z "},"\"":{"ha":1107,"x_min":103,"x_max":1004,"o":"m 755 347 q 764 337 762 344 q 763 322 766 330 q 635 186 718 237 q 453 135 552 135 q 277 182 358 135 q 150 310 197 229 q 103 486 103 391 q 150 661 103 581 q 277 789 197 742 q 453 836 358 836 q 635 785 552 836 q 763 649 718 734 q 764 634 766 642 q 755 624 762 627 q 741 622 747 620 q 729 631 732 625 q 615 753 689 707 q 453 798 542 798 q 232 707 323 798 q 140 486 140 615 q 232 264 140 356 q 453 173 323 173 q 615 218 542 173 q 729 340 689 264 q 741 349 732 347 q 755 347 747 351 m 703 635 q 696 637 699 633 q 593 736 658 699 q 453 772 528 772 q 309 734 375 772 q 204 630 243 696 q 166 486 166 564 q 204 341 166 408 q 309 237 243 275 q 453 199 375 199 q 593 235 529 199 q 696 334 658 272 q 703 335 699 338 q 705 328 708 333 q 598 225 665 263 q 453 188 532 188 q 304 228 372 188 q 195 336 235 268 q 155 486 155 405 q 195 635 155 566 q 304 743 235 703 q 453 783 372 783 q 598 746 532 783 q 705 644 665 708 q 703 635 709 638 m 492 534 l 492 471 q 477 461 484 470 l 477 534 q 476 543 477 541 q 473 547 475 546 q 464 548 469 548 l 464 551 q 473 551 466 551 q 485 551 479 551 q 496 551 490 551 q 505 551 503 551 l 505 548 q 496 547 500 548 q 493 543 494 546 q 492 534 492 539 m 464 437 l 464 441 q 473 442 469 441 q 476 446 475 443 q 483 457 479 452 q 489 463 486 461 l 492 463 l 492 454 q 493 446 492 450 q 496 442 494 443 q 505 441 500 441 l 505 437 q 496 438 503 437 q 485 438 490 438 q 473 438 479 438 q 464 437 466 437 m 341 511 q 332 499 338 503 q 313 492 325 494 l 315 492 q 327 488 322 491 q 334 482 332 486 q 338 471 335 481 l 342 454 q 344 447 342 451 q 346 443 345 444 q 350 441 347 441 q 354 443 351 441 l 359 448 l 361 446 q 353 437 355 438 q 344 435 349 435 q 333 439 337 435 q 327 453 329 444 l 323 469 q 319 481 320 481 q 315 489 317 487 q 305 492 312 492 l 290 492 l 290 454 q 291 446 290 450 q 294 442 292 443 q 302 441 298 441 l 302 437 q 294 438 300 437 q 282 438 287 438 q 270 438 277 438 q 262 437 264 437 l 262 441 q 270 442 266 441 q 274 446 273 444 q 275 454 275 448 l 275 534 q 274 543 275 541 q 270 547 273 545 q 262 548 266 548 l 262 551 q 270 551 264 551 q 281 551 277 551 l 295 551 q 301 551 298 551 q 306 551 305 551 q 327 547 317 551 q 340 537 336 543 q 345 523 345 530 q 341 511 345 517 m 317 498 q 321 499 317 498 q 326 507 324 501 q 328 522 328 513 q 322 541 328 534 q 302 548 316 548 q 294 547 297 548 q 291 543 292 545 q 290 534 290 538 l 290 494 l 300 494 q 317 498 311 494 m 432 442 q 435 447 435 443 q 433 454 435 451 l 423 481 l 422 484 l 404 532 l 386 484 l 385 481 l 378 464 q 374 450 374 455 q 378 443 374 445 q 389 441 380 441 l 389 437 q 379 438 385 437 q 370 438 373 438 q 363 438 368 438 q 358 437 359 437 l 358 441 q 371 454 366 443 l 408 552 l 411 552 l 450 451 q 461 441 454 441 l 461 437 q 454 438 460 437 q 444 438 448 438 q 433 438 439 438 q 424 437 426 437 l 424 441 q 432 442 428 441 m 567 491 q 576 480 574 485 q 581 466 581 472 q 576 449 581 457 q 564 439 572 442 q 546 435 555 435 q 534 437 537 435 q 524 441 527 439 q 519 444 520 444 q 516 441 517 444 q 515 437 515 440 l 511 437 q 512 475 512 443 l 516 475 q 524 448 517 457 q 545 438 530 438 q 555 441 549 438 q 563 448 560 443 q 566 460 566 452 q 563 471 566 466 q 555 480 559 476 q 541 489 553 481 q 533 494 538 491 q 526 499 528 498 q 516 510 522 502 q 512 525 512 516 q 516 541 512 534 q 527 550 521 547 q 543 553 533 553 q 551 552 549 553 q 557 550 555 551 l 562 547 l 568 545 q 570 547 568 545 q 571 552 571 549 l 574 552 q 574 519 574 546 l 570 519 q 567 534 569 530 q 558 545 564 541 q 544 550 551 550 q 534 547 539 550 q 527 541 529 545 q 524 531 524 536 q 530 517 524 523 q 542 507 537 510 q 546 505 544 507 q 549 503 548 504 q 551 502 551 502 q 567 491 561 496 m 673 484 q 652 481 664 481 l 648 481 l 642 481 q 633 486 632 482 q 635 489 633 488 q 639 490 635 490 q 675 493 660 489 q 696 506 690 497 q 702 530 702 513 l 702 530 l 703 530 l 703 531 l 703 531 l 703 531 l 703 531 l 703 531 l 704 531 l 704 531 l 704 531 l 704 531 l 704 531 l 705 530 l 705 530 q 698 505 705 514 q 675 492 690 496 q 639 488 660 488 q 635 488 636 488 q 640 484 632 486 q 644 483 642 483 l 652 483 q 673 486 663 483 q 692 494 684 488 q 707 508 702 500 q 713 526 713 516 q 710 540 713 533 q 701 549 708 544 q 690 556 694 555 q 687 557 689 557 q 683 559 684 558 q 680 559 682 559 q 662 562 671 562 q 648 560 657 562 q 633 557 638 559 q 620 553 624 555 q 608 548 616 552 q 606 547 607 548 q 604 546 605 547 q 603 545 604 545 q 601 544 602 544 l 597 541 q 588 532 592 537 q 585 519 585 528 l 585 519 l 585 518 q 595 502 586 508 q 621 503 606 494 l 621 503 l 621 503 l 621 503 l 622 503 l 622 503 l 622 502 l 622 502 l 622 502 l 622 501 l 622 501 l 622 501 l 622 501 l 621 501 q 593 500 605 492 q 583 517 586 505 l 583 517 l 583 518 l 583 519 l 583 519 l 583 522 q 584 529 583 525 q 587 535 586 534 q 588 537 587 536 q 589 538 589 538 l 592 541 l 595 544 l 599 547 q 614 555 608 553 q 631 561 623 559 q 648 564 641 564 q 664 565 653 565 q 676 564 668 565 q 688 561 684 562 q 698 555 690 560 q 707 548 705 551 q 713 536 711 543 q 715 526 715 532 q 712 514 715 519 q 710 511 711 513 q 708 507 709 509 q 706 504 707 505 q 699 497 701 499 q 692 493 694 494 q 673 484 684 488 m 616 458 l 641 541 q 643 542 641 542 q 644 541 644 542 q 645 540 645 541 l 644 539 l 617 457 q 616 456 617 456 q 616 457 616 456 l 616 458 m 781 522 l 780 522 q 779 523 779 522 l 779 524 l 781 527 q 782 528 781 528 q 783 528 783 528 l 784 527 l 784 526 l 784 526 l 782 522 q 781 522 782 522 m 1001 491 q 1004 488 1004 490 q 1002 484 1004 486 q 993 481 999 482 q 956 488 989 480 q 903 487 927 494 q 865 488 878 479 q 863 490 864 489 q 861 491 862 490 q 861 492 861 492 l 861 492 l 855 482 l 852 477 q 850 472 850 473 l 846 467 q 842 463 845 465 q 836 458 839 458 q 835 475 833 459 l 837 485 l 839 495 q 841 500 840 497 q 842 505 842 504 q 835 494 838 498 q 828 485 833 490 q 820 476 824 479 q 812 474 816 473 q 809 476 810 475 q 808 486 807 479 q 803 479 808 486 q 792 468 796 471 q 782 471 784 464 q 781 488 780 479 q 760 457 773 477 q 758 451 758 454 q 755 446 757 448 q 741 410 743 415 q 734 398 737 401 l 732 395 q 731 395 731 395 q 730 395 731 395 l 729 396 q 728 401 728 397 q 729 408 728 403 q 740 431 731 414 q 757 458 751 450 q 770 494 769 492 l 770 493 l 766 490 q 763 487 764 488 q 756 489 758 485 l 755 486 l 753 482 q 751 480 753 481 q 750 479 750 479 q 747 476 749 477 q 739 478 741 472 q 740 490 737 482 q 739 489 739 490 l 738 488 q 734 487 735 487 q 732 488 733 487 q 732 491 732 490 q 733 496 732 493 q 734 500 734 500 q 721 487 727 494 q 711 472 714 479 l 710 471 l 709 472 l 709 473 q 713 490 711 481 q 716 499 714 493 q 719 508 718 505 q 649 470 696 471 l 649 470 l 648 470 l 648 470 l 648 471 l 648 471 l 648 471 l 648 471 l 648 472 l 649 472 l 649 472 q 690 484 669 472 q 723 519 711 495 q 724 520 723 520 q 726 519 726 520 l 726 519 l 726 518 l 724 513 l 718 495 q 715 487 716 492 q 713 483 715 486 q 712 478 712 479 q 720 490 713 479 q 729 500 721 492 l 735 505 l 736 507 l 737 507 q 739 508 738 508 q 740 507 740 508 l 740 506 q 739 504 740 505 q 737 501 737 502 q 734 488 731 490 q 741 492 736 488 q 754 507 745 505 q 756 505 756 507 l 757 505 q 758 503 758 503 l 758 500 l 758 497 q 758 496 758 496 l 758 495 l 757 492 l 757 492 l 757 490 l 758 488 q 760 487 760 487 q 764 489 761 487 l 768 495 q 772 500 771 499 l 772 500 l 772 502 q 774 503 772 503 l 774 503 l 774 503 l 774 502 l 775 502 l 774 502 l 775 501 q 762 465 768 481 q 768 473 764 468 q 775 483 772 479 q 781 492 778 488 l 783 494 q 790 507 785 502 q 799 511 794 513 q 802 500 804 509 q 791 484 795 484 q 788 486 789 484 l 788 487 q 789 487 789 488 q 791 486 789 486 q 797 493 793 486 l 797 494 q 798 508 802 507 q 791 502 795 509 q 785 486 787 494 q 785 471 783 477 q 795 473 789 465 q 802 481 798 476 q 806 487 806 486 q 807 489 806 488 q 809 491 808 490 l 810 492 l 810 492 q 817 506 812 500 q 828 511 821 512 q 833 509 831 511 q 833 503 835 506 q 827 499 831 500 q 823 501 824 498 q 826 503 823 503 q 828 503 827 503 q 831 503 829 501 q 832 507 833 504 q 827 510 831 511 q 812 486 819 508 q 812 476 809 477 q 829 488 819 475 q 845 515 839 501 l 838 514 q 837 515 837 514 q 838 516 837 516 l 846 517 q 854 538 847 521 q 857 539 854 541 q 859 537 859 538 q 849 517 853 527 q 874 518 863 519 q 893 520 886 517 q 901 532 901 523 l 903 533 q 906 527 905 531 q 902 519 907 524 q 888 515 897 515 q 870 516 879 515 q 848 515 861 517 q 842 494 845 509 q 840 491 841 493 q 840 488 840 489 q 840 485 840 487 q 839 483 840 484 l 836 472 q 836 460 834 461 q 842 463 838 459 q 847 470 846 467 l 848 473 q 851 478 850 474 q 854 483 853 481 q 857 488 854 485 q 860 494 859 492 q 859 496 859 495 q 859 502 858 499 q 861 506 859 505 q 864 506 863 507 q 861 493 867 503 q 865 490 862 492 q 903 488 878 480 q 956 489 927 495 q 992 482 989 481 q 1000 485 999 484 q 1002 488 1002 487 l 1000 490 q 998 490 1000 490 q 997 488 997 489 q 998 487 997 487 q 999 488 999 487 q 1001 487 1000 490 q 1000 486 1001 486 l 999 486 l 997 486 q 996 488 996 487 q 1001 491 996 493 m 741 478 q 751 481 744 472 q 755 490 754 486 q 752 490 753 490 q 749 494 749 491 l 749 500 l 751 504 l 751 503 q 749 502 750 503 l 749 500 l 747 499 q 743 489 745 496 q 741 481 741 484 q 741 479 741 480 q 741 478 741 479 m 755 492 q 756 498 756 496 q 755 504 757 502 l 754 504 q 753 503 753 503 q 753 501 753 502 q 752 499 752 500 q 751 495 751 498 q 755 492 751 493 m 753 447 q 753 448 753 448 l 753 448 q 742 429 752 446 q 732 408 735 417 q 731 405 732 407 q 730 401 730 402 q 730 397 730 398 q 732 399 731 397 q 738 410 734 403 q 753 447 742 420 m 863 505 q 860 501 861 505 q 861 494 859 498 q 863 505 867 503 m 409 741 l 412 726 l 390 720 l 393 711 l 413 716 l 416 703 l 396 697 l 398 688 l 422 694 l 425 679 l 385 669 l 370 730 l 409 741 m 526 670 l 509 673 l 510 710 l 488 677 l 482 677 l 471 717 l 460 681 l 443 684 l 463 745 l 480 743 l 490 706 l 510 738 l 528 735 l 526 670 m 302 695 q 327 702 315 704 q 348 688 340 700 q 353 664 356 677 q 339 643 351 651 l 318 628 l 281 680 l 302 695 m 333 678 q 323 685 329 684 q 311 682 317 686 l 305 677 l 323 652 l 329 656 q 333 678 342 665 m 623 671 q 624 664 623 671 q 616 646 625 657 q 594 632 608 634 q 568 640 581 631 q 554 663 556 650 q 560 688 551 676 q 583 701 569 699 q 608 694 595 703 q 623 671 621 685 m 578 653 q 602 656 591 643 q 599 680 612 670 q 586 684 592 685 q 574 677 578 682 q 578 653 565 664 m 497 233 l 492 232 l 469 266 l 470 229 l 452 226 l 452 290 l 469 293 l 490 261 l 499 298 l 516 301 l 536 239 l 518 237 l 508 272 l 497 233 m 594 341 q 616 328 607 340 q 623 303 625 316 q 608 280 621 290 q 583 272 596 271 q 560 286 569 274 q 553 311 551 297 q 568 333 555 324 q 594 341 580 342 m 599 293 q 602 317 612 303 q 590 323 598 322 q 578 320 585 324 q 574 296 565 309 q 599 293 585 282 m 344 314 q 345 308 344 314 q 337 291 346 302 q 315 279 328 280 q 291 287 302 278 l 271 303 l 311 353 l 331 336 q 344 314 342 327 m 315 329 l 295 304 l 300 300 q 323 302 313 290 q 320 325 333 315 l 315 329 m 416 280 l 394 286 l 391 277 l 412 272 l 408 258 l 387 264 l 385 254 l 408 248 l 404 233 l 363 245 l 381 306 l 420 295 l 416 280 m 593 414 q 601 417 596 420 q 604 410 606 414 q 543 343 583 368 q 454 318 503 318 q 363 345 404 318 q 302 416 322 372 q 304 423 299 420 l 305 423 q 311 420 309 424 q 369 354 330 379 q 454 329 408 329 q 536 352 499 329 q 593 414 574 376 m 593 570 q 585 571 587 567 q 529 623 564 604 q 454 642 494 642 q 378 623 413 642 q 322 570 343 604 q 315 568 320 566 q 313 576 311 570 q 374 632 336 611 q 454 653 411 653 q 534 632 498 653 q 594 577 571 612 q 593 570 597 572 m 629 642 q 634 640 632 642 q 663 600 654 616 q 661 592 666 595 q 653 594 655 589 q 625 633 640 616 q 626 641 622 637 q 629 642 627 642 m 218 484 q 279 643 218 574 q 283 645 281 645 q 287 644 286 645 q 288 636 291 640 q 229 484 229 572 q 278 342 229 404 q 277 335 281 339 q 270 336 273 331 q 218 484 218 401 m 677 439 q 682 443 679 443 l 684 443 q 688 437 690 441 q 644 339 677 384 q 636 338 640 335 q 635 345 632 342 q 677 439 667 387 z "},"#":{"ha":1107,"x_min":103,"x_max":1004,"o":"m 755 347 q 764 337 762 344 q 763 322 766 330 q 635 186 718 237 q 453 135 552 135 q 277 182 358 135 q 150 310 197 229 q 103 486 103 391 q 150 661 103 581 q 277 789 197 742 q 453 836 358 836 q 635 785 552 836 q 763 649 718 734 q 764 634 766 642 q 755 624 762 627 q 741 622 747 620 q 729 631 732 625 q 615 753 689 707 q 453 798 542 798 q 232 707 323 798 q 140 486 140 615 q 232 264 140 356 q 453 173 323 173 q 615 218 542 173 q 729 340 689 264 q 741 349 732 347 q 755 347 747 351 m 703 635 q 696 637 699 633 q 593 736 658 699 q 453 772 528 772 q 309 734 375 772 q 204 630 243 696 q 166 486 166 564 q 204 341 166 408 q 309 237 243 275 q 453 199 375 199 q 593 235 529 199 q 696 334 658 272 q 703 335 699 338 q 705 328 708 333 q 598 225 665 263 q 453 188 532 188 q 304 228 372 188 q 195 336 235 268 q 155 486 155 405 q 195 635 155 566 q 304 743 235 703 q 453 783 372 783 q 598 746 532 783 q 705 644 665 708 q 703 635 709 638 m 492 534 l 492 471 q 477 461 484 470 l 477 534 q 476 543 477 541 q 473 547 475 546 q 464 548 469 548 l 464 551 q 473 551 466 551 q 485 551 479 551 q 496 551 490 551 q 505 551 503 551 l 505 548 q 496 547 500 548 q 493 543 494 546 q 492 534 492 539 m 464 437 l 464 441 q 473 442 469 441 q 476 446 475 443 q 483 457 479 452 q 489 463 486 461 l 492 463 l 492 454 q 493 446 492 450 q 496 442 494 443 q 505 441 500 441 l 505 437 q 496 438 503 437 q 485 438 490 438 q 473 438 479 438 q 464 437 466 437 m 341 511 q 332 499 338 503 q 313 492 325 494 l 315 492 q 327 488 322 491 q 334 482 332 486 q 338 471 335 481 l 342 454 q 344 447 342 451 q 346 443 345 444 q 350 441 347 441 q 354 443 351 441 l 359 448 l 361 446 q 353 437 355 438 q 344 435 349 435 q 333 439 337 435 q 327 453 329 444 l 323 469 q 319 481 320 481 q 315 489 317 487 q 305 492 312 492 l 290 492 l 290 454 q 291 446 290 450 q 294 442 292 443 q 302 441 298 441 l 302 437 q 294 438 300 437 q 282 438 287 438 q 270 438 277 438 q 262 437 264 437 l 262 441 q 270 442 266 441 q 274 446 273 444 q 275 454 275 448 l 275 534 q 274 543 275 541 q 270 547 273 545 q 262 548 266 548 l 262 551 q 270 551 264 551 q 281 551 277 551 l 295 551 q 301 551 298 551 q 306 551 305 551 q 327 547 317 551 q 340 537 336 543 q 345 523 345 530 q 341 511 345 517 m 317 498 q 321 499 317 498 q 326 507 324 501 q 328 522 328 513 q 322 541 328 534 q 302 548 316 548 q 294 547 297 548 q 291 543 292 545 q 290 534 290 538 l 290 494 l 300 494 q 317 498 311 494 m 432 442 q 435 447 435 443 q 433 454 435 451 l 423 481 l 422 484 l 404 532 l 386 484 l 385 481 l 378 464 q 374 450 374 455 q 378 443 374 445 q 389 441 380 441 l 389 437 q 379 438 385 437 q 370 438 373 438 q 363 438 368 438 q 358 437 359 437 l 358 441 q 371 454 366 443 l 408 552 l 411 552 l 450 451 q 461 441 454 441 l 461 437 q 454 438 460 437 q 444 438 448 438 q 433 438 439 438 q 424 437 426 437 l 424 441 q 432 442 428 441 m 567 491 q 576 480 574 485 q 581 466 581 472 q 576 449 581 457 q 564 439 572 442 q 546 435 555 435 q 534 437 537 435 q 524 441 527 439 q 519 444 520 444 q 516 441 517 444 q 515 437 515 440 l 511 437 q 512 475 512 443 l 516 475 q 524 448 517 457 q 545 438 530 438 q 555 441 549 438 q 563 448 560 443 q 566 460 566 452 q 563 471 566 466 q 555 480 559 476 q 541 489 553 481 q 533 494 538 491 q 526 499 528 498 q 516 510 522 502 q 512 525 512 516 q 516 541 512 534 q 527 550 521 547 q 543 553 533 553 q 551 552 549 553 q 557 550 555 551 l 562 547 l 568 545 q 570 547 568 545 q 571 552 571 549 l 574 552 q 574 519 574 546 l 570 519 q 567 534 569 530 q 558 545 564 541 q 544 550 551 550 q 534 547 539 550 q 527 541 529 545 q 524 531 524 536 q 530 517 524 523 q 542 507 537 510 q 546 505 544 507 q 549 503 548 504 q 551 502 551 502 q 567 491 561 496 m 673 484 q 652 481 664 481 l 648 481 l 642 481 q 633 486 632 482 q 635 489 633 488 q 639 490 635 490 q 675 493 660 489 q 696 506 690 497 q 702 530 702 513 l 702 530 l 703 530 l 703 531 l 703 531 l 703 531 l 703 531 l 703 531 l 704 531 l 704 531 l 704 531 l 704 531 l 704 531 l 705 530 l 705 530 q 698 505 705 514 q 675 492 690 496 q 639 488 660 488 q 635 488 636 488 q 640 484 632 486 q 644 483 642 483 l 652 483 q 673 486 663 483 q 692 494 684 488 q 707 508 702 500 q 713 526 713 516 q 710 540 713 533 q 701 549 708 544 q 690 556 694 555 q 687 557 689 557 q 683 559 684 558 q 680 559 682 559 q 662 562 671 562 q 648 560 657 562 q 633 557 638 559 q 620 553 624 555 q 608 548 616 552 q 606 547 607 548 q 604 546 605 547 q 603 545 604 545 q 601 544 602 544 l 597 541 q 588 532 592 537 q 585 519 585 528 l 585 519 l 585 518 q 595 502 586 508 q 621 503 606 494 l 621 503 l 621 503 l 621 503 l 622 503 l 622 503 l 622 502 l 622 502 l 622 502 l 622 501 l 622 501 l 622 501 l 622 501 l 621 501 q 593 500 605 492 q 583 517 586 505 l 583 517 l 583 518 l 583 519 l 583 519 l 583 522 q 584 529 583 525 q 587 535 586 534 q 588 537 587 536 q 589 538 589 538 l 592 541 l 595 544 l 599 547 q 614 555 608 553 q 631 561 623 559 q 648 564 641 564 q 664 565 653 565 q 676 564 668 565 q 688 561 684 562 q 698 555 690 560 q 707 548 705 551 q 713 536 711 543 q 715 526 715 532 q 712 514 715 519 q 710 511 711 513 q 708 507 709 509 q 706 504 707 505 q 699 497 701 499 q 692 493 694 494 q 673 484 684 488 m 616 458 l 641 541 q 643 542 641 542 q 644 541 644 542 q 645 540 645 541 l 644 539 l 617 457 q 616 456 617 456 q 616 457 616 456 l 616 458 m 781 522 l 780 522 q 779 523 779 522 l 779 524 l 781 527 q 782 528 781 528 q 783 528 783 528 l 784 527 l 784 526 l 784 526 l 782 522 q 781 522 782 522 m 1001 491 q 1004 488 1004 490 q 1002 484 1004 486 q 993 481 999 482 q 956 488 989 480 q 903 487 927 494 q 865 488 878 479 q 863 490 864 489 q 861 491 862 490 q 861 492 861 492 l 861 492 l 855 482 l 852 477 q 850 472 850 473 l 846 467 q 842 463 845 465 q 836 458 839 458 q 835 475 833 459 l 837 485 l 839 495 q 841 500 840 497 q 842 505 842 504 q 835 494 838 498 q 828 485 833 490 q 820 476 824 479 q 812 474 816 473 q 809 476 810 475 q 808 486 807 479 q 803 479 808 486 q 792 468 796 471 q 782 471 784 464 q 781 488 780 479 q 760 457 773 477 q 758 451 758 454 q 755 446 757 448 q 741 410 743 415 q 734 398 737 401 l 732 395 q 731 395 731 395 q 730 395 731 395 l 729 396 q 728 401 728 397 q 729 408 728 403 q 740 431 731 414 q 757 458 751 450 q 770 494 769 492 l 770 493 l 766 490 q 763 487 764 488 q 756 489 758 485 l 755 486 l 753 482 q 751 480 753 481 q 750 479 750 479 q 747 476 749 477 q 739 478 741 472 q 740 490 737 482 q 739 489 739 490 l 738 488 q 734 487 735 487 q 732 488 733 487 q 732 491 732 490 q 733 496 732 493 q 734 500 734 500 q 721 487 727 494 q 711 472 714 479 l 710 471 l 709 472 l 709 473 q 713 490 711 481 q 716 499 714 493 q 719 508 718 505 q 649 470 696 471 l 649 470 l 648 470 l 648 470 l 648 471 l 648 471 l 648 471 l 648 471 l 648 472 l 649 472 l 649 472 q 690 484 669 472 q 723 519 711 495 q 724 520 723 520 q 726 519 726 520 l 726 519 l 726 518 l 724 513 l 718 495 q 715 487 716 492 q 713 483 715 486 q 712 478 712 479 q 720 490 713 479 q 729 500 721 492 l 735 505 l 736 507 l 737 507 q 739 508 738 508 q 740 507 740 508 l 740 506 q 739 504 740 505 q 737 501 737 502 q 734 488 731 490 q 741 492 736 488 q 754 507 745 505 q 756 505 756 507 l 757 505 q 758 503 758 503 l 758 500 l 758 497 q 758 496 758 496 l 758 495 l 757 492 l 757 492 l 757 490 l 758 488 q 760 487 760 487 q 764 489 761 487 l 768 495 q 772 500 771 499 l 772 500 l 772 502 q 774 503 772 503 l 774 503 l 774 503 l 774 502 l 775 502 l 774 502 l 775 501 q 762 465 768 481 q 768 473 764 468 q 775 483 772 479 q 781 492 778 488 l 783 494 q 790 507 785 502 q 799 511 794 513 q 802 500 804 509 q 791 484 795 484 q 788 486 789 484 l 788 487 q 789 487 789 488 q 791 486 789 486 q 797 493 793 486 l 797 494 q 798 508 802 507 q 791 502 795 509 q 785 486 787 494 q 785 471 783 477 q 795 473 789 465 q 802 481 798 476 q 806 487 806 486 q 807 489 806 488 q 809 491 808 490 l 810 492 l 810 492 q 817 506 812 500 q 828 511 821 512 q 833 509 831 511 q 833 503 835 506 q 827 499 831 500 q 823 501 824 498 q 826 503 823 503 q 828 503 827 503 q 831 503 829 501 q 832 507 833 504 q 827 510 831 511 q 812 486 819 508 q 812 476 809 477 q 829 488 819 475 q 845 515 839 501 l 838 514 q 837 515 837 514 q 838 516 837 516 l 846 517 q 854 538 847 521 q 857 539 854 541 q 859 537 859 538 q 849 517 853 527 q 874 518 863 519 q 893 520 886 517 q 901 532 901 523 l 903 533 q 906 527 905 531 q 902 519 907 524 q 888 515 897 515 q 870 516 879 515 q 848 515 861 517 q 842 494 845 509 q 840 491 841 493 q 840 488 840 489 q 840 485 840 487 q 839 483 840 484 l 836 472 q 836 460 834 461 q 842 463 838 459 q 847 470 846 467 l 848 473 q 851 478 850 474 q 854 483 853 481 q 857 488 854 485 q 860 494 859 492 q 859 496 859 495 q 859 502 858 499 q 861 506 859 505 q 864 506 863 507 q 861 493 867 503 q 865 490 862 492 q 903 488 878 480 q 956 489 927 495 q 992 482 989 481 q 1000 485 999 484 q 1002 488 1002 487 l 1000 490 q 998 490 1000 490 q 997 488 997 489 q 998 487 997 487 q 999 488 999 487 q 1001 487 1000 490 q 1000 486 1001 486 l 999 486 l 997 486 q 996 488 996 487 q 1001 491 996 493 m 741 478 q 751 481 744 472 q 755 490 754 486 q 752 490 753 490 q 749 494 749 491 l 749 500 l 751 504 l 751 503 q 749 502 750 503 l 749 500 l 747 499 q 743 489 745 496 q 741 481 741 484 q 741 479 741 480 q 741 478 741 479 m 755 492 q 756 498 756 496 q 755 504 757 502 l 754 504 q 753 503 753 503 q 753 501 753 502 q 752 499 752 500 q 751 495 751 498 q 755 492 751 493 m 753 447 q 753 448 753 448 l 753 448 q 742 429 752 446 q 732 408 735 417 q 731 405 732 407 q 730 401 730 402 q 730 397 730 398 q 732 399 731 397 q 738 410 734 403 q 753 447 742 420 m 863 505 q 860 501 861 505 q 861 494 859 498 q 863 505 867 503 m 623 671 q 624 664 623 671 q 616 646 625 657 q 594 632 608 634 q 568 640 581 631 q 554 663 556 650 q 560 688 551 676 q 583 701 569 699 q 608 694 595 703 q 623 671 621 685 m 578 653 q 602 656 591 643 q 599 680 612 670 q 586 684 592 685 q 574 677 578 682 q 578 653 565 664 m 526 670 l 509 673 l 510 710 l 488 677 l 482 677 l 471 717 l 460 681 l 443 684 l 463 745 l 480 743 l 490 706 l 510 738 l 528 735 l 526 670 m 302 695 q 327 702 315 704 q 348 688 340 700 q 353 664 356 677 q 339 643 351 651 l 318 628 l 281 680 l 302 695 m 333 678 q 323 685 329 684 q 311 682 317 686 l 305 677 l 323 652 l 329 656 q 333 678 342 665 m 409 741 l 412 726 l 390 720 l 393 711 l 413 716 l 416 703 l 396 697 l 398 688 l 422 694 l 426 679 l 385 669 l 370 730 l 409 741 m 568 333 q 593 341 580 342 q 616 328 607 340 q 623 303 625 316 q 608 280 621 290 q 583 272 596 271 q 560 286 569 274 q 553 311 551 297 q 568 333 555 324 m 599 293 q 602 317 612 303 q 590 323 598 322 q 578 320 585 324 q 574 296 565 309 q 599 293 585 282 m 497 233 l 492 232 l 469 266 l 470 229 l 452 226 l 452 290 l 469 293 l 490 261 l 499 298 l 516 301 l 536 239 l 519 237 l 508 272 l 497 233 m 344 314 q 345 308 344 314 q 337 291 346 302 q 315 279 328 280 q 291 287 302 278 l 271 303 l 311 353 l 331 336 q 344 314 342 327 m 315 329 l 295 304 l 300 300 q 323 302 313 290 q 320 325 333 315 l 315 329 m 416 280 l 394 286 l 391 277 l 412 272 l 408 258 l 387 264 l 385 254 l 408 248 l 404 233 l 363 245 l 381 306 l 420 295 l 416 280 m 593 570 q 585 571 587 567 q 529 623 564 604 q 454 642 494 642 q 378 623 413 642 q 322 570 343 604 q 315 568 320 566 q 313 576 311 570 q 373 632 336 611 q 454 653 410 653 q 534 632 497 653 q 594 577 571 612 q 593 570 597 572 m 593 414 q 601 417 596 420 q 604 410 606 414 q 543 343 583 368 q 454 318 503 318 q 363 345 404 318 q 302 416 322 372 q 304 423 299 420 l 305 423 q 311 420 309 424 q 369 354 330 379 q 454 329 408 329 q 536 352 499 329 q 593 414 574 376 m 218 484 q 279 643 218 574 q 283 645 281 645 q 287 644 286 645 q 288 636 291 640 q 229 484 229 572 q 278 342 229 404 q 277 335 281 339 q 270 336 273 331 q 218 484 218 401 m 629 642 q 634 640 632 642 q 663 600 654 616 q 661 592 666 595 q 653 594 655 589 q 625 633 640 616 q 626 641 622 637 q 629 642 627 642 m 677 439 q 682 443 679 443 l 684 443 q 688 437 690 441 q 644 339 677 384 q 636 338 640 335 q 635 345 632 342 q 677 439 667 387 z "},"$":{"ha":1107,"x_min":103,"x_max":1004,"o":"m 755 347 q 764 337 762 344 q 763 322 766 330 q 635 186 718 237 q 453 135 552 135 q 277 182 358 135 q 150 310 197 229 q 103 486 103 391 q 150 661 103 581 q 277 789 197 742 q 453 836 358 836 q 635 785 552 836 q 763 649 718 734 q 764 634 766 642 q 755 624 762 627 q 741 622 747 620 q 729 631 732 625 q 615 753 689 707 q 453 798 542 798 q 232 707 323 798 q 140 486 140 615 q 232 264 140 356 q 453 173 323 173 q 615 218 542 173 q 729 340 689 264 q 741 349 732 347 q 755 347 747 351 m 703 635 q 696 637 699 633 q 593 736 658 699 q 453 772 528 772 q 309 734 375 772 q 204 630 243 696 q 166 486 166 564 q 204 341 166 408 q 309 237 243 275 q 453 199 375 199 q 593 235 529 199 q 696 334 658 272 q 703 335 699 338 q 705 328 708 333 q 598 225 665 263 q 453 188 532 188 q 304 228 372 188 q 195 336 235 268 q 155 486 155 405 q 195 635 155 566 q 304 743 235 703 q 453 783 372 783 q 598 746 532 783 q 705 644 665 708 q 703 635 709 638 m 492 534 l 492 471 q 477 461 484 470 l 477 534 q 476 543 477 541 q 473 547 475 546 q 464 548 469 548 l 464 551 q 473 551 466 551 q 485 551 479 551 q 496 551 490 551 q 505 551 503 551 l 505 548 q 496 547 500 548 q 493 543 494 546 q 492 534 492 539 m 464 437 l 464 441 q 473 442 469 441 q 476 446 475 443 q 483 457 479 452 q 489 463 486 461 l 492 463 l 492 454 q 493 446 492 450 q 496 442 494 443 q 505 441 500 441 l 505 437 q 496 438 503 437 q 485 438 490 438 q 473 438 479 438 q 464 437 466 437 m 341 511 q 332 499 338 503 q 313 492 325 494 l 315 492 q 327 488 322 491 q 334 482 332 486 q 338 471 335 481 l 342 454 q 344 447 342 451 q 346 443 345 444 q 350 441 347 441 q 354 443 351 441 l 359 448 l 361 446 q 353 437 355 438 q 344 435 349 435 q 333 439 337 435 q 327 453 329 444 l 323 469 q 319 481 320 481 q 315 489 317 487 q 305 492 312 492 l 290 492 l 290 454 q 291 446 290 450 q 294 442 292 443 q 302 441 298 441 l 302 437 q 294 438 300 437 q 282 438 287 438 q 270 438 277 438 q 262 437 264 437 l 262 441 q 270 442 266 441 q 274 446 273 444 q 275 454 275 448 l 275 534 q 274 543 275 541 q 270 547 273 545 q 262 548 266 548 l 262 551 q 270 551 264 551 q 281 551 277 551 l 295 551 q 301 551 298 551 q 306 551 305 551 q 327 547 317 551 q 340 537 336 543 q 345 523 345 530 q 341 511 345 517 m 317 498 q 321 499 317 498 q 326 507 324 501 q 328 522 328 513 q 322 541 328 534 q 302 548 316 548 q 294 547 297 548 q 291 543 292 545 q 290 534 290 538 l 290 494 l 300 494 q 317 498 311 494 m 432 442 q 435 447 435 443 q 433 454 435 451 l 423 481 l 422 484 l 404 532 l 386 484 l 385 481 l 378 464 q 374 450 374 455 q 378 443 374 445 q 389 441 380 441 l 389 437 q 379 438 385 437 q 370 438 373 438 q 363 438 368 438 q 358 437 359 437 l 358 441 q 371 454 366 443 l 408 552 l 411 552 l 450 451 q 461 441 454 441 l 461 437 q 454 438 460 437 q 444 438 448 438 q 433 438 439 438 q 424 437 426 437 l 424 441 q 432 442 428 441 m 567 491 q 576 480 574 485 q 581 466 581 472 q 576 449 581 457 q 564 439 572 442 q 546 435 555 435 q 534 437 537 435 q 524 441 527 439 q 519 444 520 444 q 516 441 517 444 q 515 437 515 440 l 511 437 q 512 475 512 443 l 516 475 q 524 448 517 457 q 545 438 530 438 q 555 441 549 438 q 563 448 560 443 q 566 460 566 452 q 563 471 566 466 q 555 480 559 476 q 541 489 553 481 q 533 494 538 491 q 526 499 528 498 q 516 510 522 502 q 512 525 512 516 q 516 541 512 534 q 527 550 521 547 q 543 553 533 553 q 551 552 549 553 q 557 550 555 551 l 562 547 l 568 545 q 570 547 568 545 q 571 552 571 549 l 574 552 q 574 519 574 546 l 570 519 q 567 534 569 530 q 558 545 564 541 q 544 550 551 550 q 534 547 539 550 q 527 541 529 545 q 524 531 524 536 q 530 517 524 523 q 542 507 537 510 q 546 505 544 507 q 549 503 548 504 q 551 502 551 502 q 567 491 561 496 m 673 484 q 652 481 664 481 l 648 481 l 642 481 q 633 486 632 482 q 635 489 633 488 q 639 490 635 490 q 675 493 660 489 q 696 506 690 497 q 702 530 702 513 l 702 530 l 703 530 l 703 531 l 703 531 l 703 531 l 703 531 l 703 531 l 704 531 l 704 531 l 704 531 l 704 531 l 704 531 l 705 530 l 705 530 q 698 505 705 514 q 675 492 690 496 q 639 488 660 488 q 635 488 636 488 q 640 484 632 486 q 644 483 642 483 l 652 483 q 673 486 663 483 q 692 494 684 488 q 707 508 702 500 q 713 526 713 516 q 710 540 713 533 q 701 549 708 544 q 690 556 694 555 q 687 557 689 557 q 683 559 684 558 q 680 559 682 559 q 662 562 671 562 q 648 560 657 562 q 633 557 638 559 q 620 553 624 555 q 608 548 616 552 q 606 547 607 548 q 604 546 605 547 q 603 545 604 545 q 601 544 602 544 l 597 541 q 588 532 592 537 q 585 519 585 528 l 585 519 l 585 518 q 595 502 586 508 q 621 503 606 494 l 621 503 l 621 503 l 621 503 l 622 503 l 622 503 l 622 502 l 622 502 l 622 502 l 622 501 l 622 501 l 622 501 l 622 501 l 621 501 q 593 500 605 492 q 583 517 586 505 l 583 517 l 583 518 l 583 519 l 583 519 l 583 522 q 584 529 583 525 q 587 535 586 534 q 588 537 587 536 q 589 538 589 538 l 592 541 l 595 544 l 599 547 q 614 555 608 553 q 631 561 623 559 q 648 564 641 564 q 664 565 653 565 q 676 564 668 565 q 688 561 684 562 q 698 555 690 560 q 707 548 705 551 q 713 536 711 543 q 715 526 715 532 q 712 514 715 519 q 710 511 711 513 q 708 507 709 509 q 706 504 707 505 q 699 497 701 499 q 692 493 694 494 q 673 484 684 488 m 616 458 l 641 541 q 643 542 641 542 q 644 541 644 542 q 645 540 645 541 l 644 539 l 617 457 q 616 456 617 456 q 616 457 616 456 l 616 458 m 781 522 l 780 522 q 779 523 779 522 l 779 524 l 781 527 q 782 528 781 528 q 783 528 783 528 l 784 527 l 784 526 l 784 526 l 782 522 q 781 522 782 522 m 1001 491 q 1004 488 1004 490 q 1002 484 1004 486 q 993 481 999 482 q 956 488 989 480 q 903 487 927 494 q 865 488 878 479 q 863 490 864 489 q 861 491 862 490 q 861 492 861 492 l 861 492 l 855 482 l 852 477 q 850 472 850 473 l 846 467 q 842 463 845 465 q 836 458 839 458 q 835 475 833 459 l 837 485 l 839 495 q 841 500 840 497 q 842 505 842 504 q 835 494 838 498 q 828 485 833 490 q 820 476 824 479 q 812 474 816 473 q 809 476 810 475 q 808 486 807 479 q 803 479 808 486 q 792 468 796 471 q 782 471 784 464 q 781 488 780 479 q 760 457 773 477 q 758 451 758 454 q 755 446 757 448 q 741 410 743 415 q 734 398 737 401 l 732 395 q 731 395 731 395 q 730 395 731 395 l 729 396 q 728 401 728 397 q 729 408 728 403 q 740 431 731 414 q 757 458 751 450 q 770 494 769 492 l 770 493 l 766 490 q 763 487 764 488 q 756 489 758 485 l 755 486 l 753 482 q 751 480 753 481 q 750 479 750 479 q 747 476 749 477 q 739 478 741 472 q 740 490 737 482 q 739 489 739 490 l 738 488 q 734 487 735 487 q 732 488 733 487 q 732 491 732 490 q 733 496 732 493 q 734 500 734 500 q 721 487 727 494 q 711 472 714 479 l 710 471 l 709 472 l 709 473 q 713 490 711 481 q 716 499 714 493 q 719 508 718 505 q 649 470 696 471 l 649 470 l 648 470 l 648 470 l 648 471 l 648 471 l 648 471 l 648 471 l 648 472 l 649 472 l 649 472 q 690 484 669 472 q 723 519 711 495 q 724 520 723 520 q 726 519 726 520 l 726 519 l 726 518 l 724 513 l 718 495 q 715 487 716 492 q 713 483 715 486 q 712 478 712 479 q 720 490 713 479 q 729 500 721 492 l 735 505 l 736 507 l 737 507 q 739 508 738 508 q 740 507 740 508 l 740 506 q 739 504 740 505 q 737 501 737 502 q 734 488 731 490 q 741 492 736 488 q 754 507 745 505 q 756 505 756 507 l 757 505 q 758 503 758 503 l 758 500 l 758 497 q 758 496 758 496 l 758 495 l 757 492 l 757 492 l 757 490 l 758 488 q 760 487 760 487 q 764 489 761 487 l 768 495 q 772 500 771 499 l 772 500 l 772 502 q 774 503 772 503 l 774 503 l 774 503 l 774 502 l 775 502 l 774 502 l 775 501 q 762 465 768 481 q 768 473 764 468 q 775 483 772 479 q 781 492 778 488 l 783 494 q 790 507 785 502 q 799 511 794 513 q 802 500 804 509 q 791 484 795 484 q 788 486 789 484 l 788 487 q 789 487 789 488 q 791 486 789 486 q 797 493 793 486 l 797 494 q 798 508 802 507 q 791 502 795 509 q 785 486 787 494 q 785 471 783 477 q 795 473 789 465 q 802 481 798 476 q 806 487 806 486 q 807 489 806 488 q 809 491 808 490 l 810 492 l 810 492 q 817 506 812 500 q 828 511 821 512 q 833 509 831 511 q 833 503 835 506 q 827 499 831 500 q 823 501 824 498 q 826 503 823 503 q 828 503 827 503 q 831 503 829 501 q 832 507 833 504 q 827 510 831 511 q 812 486 819 508 q 812 476 809 477 q 829 488 819 475 q 845 515 839 501 l 838 514 q 837 515 837 514 q 838 516 837 516 l 846 517 q 854 538 847 521 q 857 539 854 541 q 859 537 859 538 q 849 517 853 527 q 874 518 863 519 q 893 520 886 517 q 901 532 901 523 l 903 533 q 906 527 905 531 q 902 519 907 524 q 888 515 897 515 q 870 516 879 515 q 848 515 861 517 q 842 494 845 509 q 840 491 841 493 q 840 488 840 489 q 840 485 840 487 q 839 483 840 484 l 836 472 q 836 460 834 461 q 842 463 838 459 q 847 470 846 467 l 848 473 q 851 478 850 474 q 854 483 853 481 q 857 488 854 485 q 860 494 859 492 q 859 496 859 495 q 859 502 858 499 q 861 506 859 505 q 864 506 863 507 q 861 493 867 503 q 865 490 862 492 q 903 488 878 480 q 956 489 927 495 q 992 482 989 481 q 1000 485 999 484 q 1002 488 1002 487 l 1000 490 q 998 490 1000 490 q 997 488 997 489 q 998 487 997 487 q 999 488 999 487 q 1001 487 1000 490 q 1000 486 1001 486 l 999 486 l 997 486 q 996 488 996 487 q 1001 491 996 493 m 741 478 q 751 481 744 472 q 755 490 754 486 q 752 490 753 490 q 749 494 749 491 l 749 500 l 751 504 l 751 503 q 749 502 750 503 l 749 500 l 747 499 q 743 489 745 496 q 741 481 741 484 q 741 479 741 480 q 741 478 741 479 m 755 492 q 756 498 756 496 q 755 504 757 502 l 754 504 q 753 503 753 503 q 753 501 753 502 q 752 499 752 500 q 751 495 751 498 q 755 492 751 493 m 753 447 q 753 448 753 448 l 753 448 q 742 429 752 446 q 732 408 735 417 q 731 405 732 407 q 730 401 730 402 q 730 397 730 398 q 732 399 731 397 q 738 410 734 403 q 753 447 742 420 m 863 505 q 860 501 861 505 q 861 494 859 498 q 863 505 867 503 m 526 670 l 509 673 l 510 710 l 488 677 l 482 677 l 471 717 l 460 681 l 443 684 l 463 745 l 480 743 l 490 706 l 510 738 l 528 735 l 526 670 m 409 741 l 412 726 l 390 720 l 393 711 l 413 716 l 416 703 l 396 697 l 398 688 l 422 694 l 425 679 l 385 669 l 370 730 l 409 741 m 302 695 q 327 702 315 704 q 348 688 340 700 q 353 664 356 677 q 339 643 351 651 l 318 628 l 281 680 l 302 695 m 333 678 q 323 685 329 684 q 311 682 317 686 l 305 677 l 323 652 l 329 656 q 333 678 342 665 m 623 671 q 624 664 623 671 q 616 646 625 657 q 594 632 608 634 q 568 640 581 631 q 554 663 556 650 q 560 688 551 676 q 583 701 569 699 q 608 694 595 703 q 623 671 621 685 m 578 653 q 602 656 591 643 q 599 680 612 670 q 586 684 592 685 q 574 677 578 682 q 578 653 565 664 m 344 314 q 345 308 344 314 q 337 291 346 302 q 315 279 328 280 q 291 287 302 278 l 271 303 l 311 353 l 331 336 q 344 314 342 327 m 315 329 l 295 304 l 300 300 q 323 302 313 290 q 320 325 333 315 l 315 329 m 568 333 q 593 341 580 342 q 616 328 607 340 q 623 303 625 316 q 608 280 621 290 q 583 272 596 271 q 560 286 569 274 q 553 311 551 297 q 568 333 555 324 m 599 293 q 602 317 612 303 q 590 323 598 322 q 578 320 585 324 q 574 296 565 309 q 599 293 585 282 m 416 280 l 394 286 l 391 277 l 412 272 l 408 258 l 387 264 l 385 254 l 408 248 l 404 233 l 363 245 l 381 306 l 420 295 l 416 280 m 497 233 l 492 232 l 469 266 l 470 229 l 452 226 l 452 290 l 469 293 l 490 261 l 499 298 l 516 301 l 536 239 l 519 237 l 508 272 l 497 233 m 593 414 q 601 417 596 420 q 604 410 606 414 q 543 343 583 368 q 454 318 503 318 q 363 345 404 318 q 302 416 322 372 q 304 423 299 420 l 305 423 q 311 420 309 424 q 369 354 330 379 q 454 329 408 329 q 536 352 499 329 q 593 414 574 376 m 593 570 q 585 571 587 567 q 529 623 564 604 q 454 642 494 642 q 378 623 413 642 q 322 570 343 604 q 315 568 320 566 q 313 576 311 570 q 374 632 336 611 q 454 653 411 653 q 534 632 498 653 q 594 577 571 612 q 593 570 597 572 m 218 484 q 279 643 218 574 q 283 645 281 645 q 287 644 286 645 q 288 636 291 640 q 229 484 229 572 q 278 342 229 404 q 277 335 281 339 q 270 336 273 331 q 218 484 218 401 m 629 642 q 634 640 632 642 q 663 600 654 616 q 661 592 666 595 q 653 594 655 589 q 625 633 640 616 q 626 641 622 637 q 629 642 627 642 m 677 439 q 682 443 679 443 l 684 443 q 688 437 690 441 q 644 339 677 384 q 636 338 640 335 q 635 345 632 342 q 677 439 667 387 z "},"%":{"ha":1107,"x_min":103,"x_max":1004,"o":"m 755 347 q 764 337 762 344 q 763 322 766 330 q 635 186 718 237 q 453 135 552 135 q 277 182 358 135 q 150 310 197 229 q 103 486 103 391 q 150 661 103 581 q 277 789 197 742 q 453 836 358 836 q 635 785 552 836 q 763 649 718 734 q 764 634 766 642 q 755 624 762 627 q 741 622 747 620 q 729 631 732 625 q 615 753 689 707 q 453 798 542 798 q 232 707 323 798 q 140 486 140 615 q 232 264 140 356 q 453 173 323 173 q 615 218 542 173 q 729 340 689 264 q 741 349 732 347 q 755 347 747 351 m 703 635 q 696 637 699 633 q 593 736 658 699 q 453 772 528 772 q 309 734 375 772 q 204 630 243 696 q 166 486 166 564 q 204 341 166 408 q 309 237 243 275 q 453 199 375 199 q 593 235 529 199 q 696 334 658 272 q 703 335 699 338 q 705 328 708 333 q 598 225 665 263 q 453 188 532 188 q 304 228 372 188 q 195 336 235 268 q 155 486 155 405 q 195 635 155 566 q 304 743 235 703 q 453 783 372 783 q 598 746 532 783 q 705 644 665 708 q 703 635 709 638 m 492 534 l 492 471 q 477 461 484 470 l 477 534 q 476 543 477 541 q 473 547 475 546 q 464 548 469 548 l 464 551 q 473 551 466 551 q 485 551 479 551 q 496 551 490 551 q 505 551 503 551 l 505 548 q 496 547 500 548 q 493 543 494 546 q 492 534 492 539 m 464 437 l 464 441 q 473 442 469 441 q 476 446 475 443 q 483 457 479 452 q 489 463 486 461 l 492 463 l 492 454 q 493 446 492 450 q 496 442 494 443 q 505 441 500 441 l 505 437 q 496 438 503 437 q 485 438 490 438 q 473 438 479 438 q 464 437 466 437 m 341 511 q 332 499 338 503 q 313 492 325 494 l 315 492 q 327 488 322 491 q 334 482 332 486 q 338 471 335 481 l 342 454 q 344 447 342 451 q 346 443 345 444 q 350 441 347 441 q 354 443 351 441 l 359 448 l 361 446 q 353 437 355 438 q 344 435 349 435 q 333 439 337 435 q 327 453 329 444 l 323 469 q 319 481 320 481 q 315 489 317 487 q 305 492 312 492 l 290 492 l 290 454 q 291 446 290 450 q 294 442 292 443 q 302 441 298 441 l 302 437 q 294 438 300 437 q 282 438 287 438 q 270 438 277 438 q 262 437 264 437 l 262 441 q 270 442 266 441 q 274 446 273 444 q 275 454 275 448 l 275 534 q 274 543 275 541 q 270 547 273 545 q 262 548 266 548 l 262 551 q 270 551 264 551 q 281 551 277 551 l 295 551 q 301 551 298 551 q 306 551 305 551 q 327 547 317 551 q 340 537 336 543 q 345 523 345 530 q 341 511 345 517 m 317 498 q 321 499 317 498 q 326 507 324 501 q 328 522 328 513 q 322 541 328 534 q 302 548 316 548 q 294 547 297 548 q 291 543 292 545 q 290 534 290 538 l 290 494 l 300 494 q 317 498 311 494 m 432 442 q 435 447 435 443 q 433 454 435 451 l 423 481 l 422 484 l 404 532 l 386 484 l 385 481 l 378 464 q 374 450 374 455 q 378 443 374 445 q 389 441 380 441 l 389 437 q 379 438 385 437 q 370 438 373 438 q 363 438 368 438 q 358 437 359 437 l 358 441 q 371 454 366 443 l 408 552 l 411 552 l 450 451 q 461 441 454 441 l 461 437 q 454 438 460 437 q 444 438 448 438 q 433 438 439 438 q 424 437 426 437 l 424 441 q 432 442 428 441 m 567 491 q 576 480 574 485 q 581 466 581 472 q 576 449 581 457 q 564 439 572 442 q 546 435 555 435 q 534 437 537 435 q 524 441 527 439 q 519 444 520 444 q 516 441 517 444 q 515 437 515 440 l 511 437 q 512 475 512 443 l 516 475 q 524 448 517 457 q 545 438 530 438 q 555 441 549 438 q 563 448 560 443 q 566 460 566 452 q 563 471 566 466 q 555 480 559 476 q 541 489 553 481 q 533 494 538 491 q 526 499 528 498 q 516 510 522 502 q 512 525 512 516 q 516 541 512 534 q 527 550 521 547 q 543 553 533 553 q 551 552 549 553 q 557 550 555 551 l 562 547 l 568 545 q 570 547 568 545 q 571 552 571 549 l 574 552 q 574 519 574 546 l 570 519 q 567 534 569 530 q 558 545 564 541 q 544 550 551 550 q 534 547 539 550 q 527 541 529 545 q 524 531 524 536 q 530 517 524 523 q 542 507 537 510 q 546 505 544 507 q 549 503 548 504 q 551 502 551 502 q 567 491 561 496 m 616 458 l 641 541 q 643 542 641 542 q 644 541 644 542 q 645 540 645 541 l 644 539 l 617 457 q 616 456 617 456 q 616 457 616 456 l 616 458 m 673 484 q 652 481 664 481 l 648 481 l 642 481 q 633 486 632 482 q 635 489 633 488 q 639 490 635 490 q 675 493 660 489 q 696 506 690 497 q 702 530 702 513 l 702 530 l 703 530 l 703 531 l 703 531 l 703 531 l 703 531 l 703 531 l 704 531 l 704 531 l 704 531 l 704 531 l 704 531 l 705 530 l 705 530 q 698 505 705 514 q 675 492 690 496 q 639 488 660 488 q 635 488 636 488 q 640 484 632 486 q 644 483 642 483 l 652 483 q 673 486 663 483 q 692 494 684 488 q 707 508 702 500 q 713 526 713 516 q 710 540 713 533 q 701 549 708 544 q 690 556 694 555 q 687 557 689 557 q 683 559 684 558 q 680 559 682 559 q 662 562 671 562 q 648 560 657 562 q 633 557 638 559 q 620 553 624 555 q 608 548 616 552 q 606 547 607 548 q 604 546 605 547 q 603 545 604 545 q 601 544 602 544 l 597 541 q 588 532 592 537 q 585 519 585 528 l 585 519 l 585 518 q 595 502 586 508 q 621 503 606 494 l 621 503 l 621 503 l 621 503 l 622 503 l 622 503 l 622 502 l 622 502 l 622 502 l 622 501 l 622 501 l 622 501 l 622 501 l 621 501 q 593 500 605 492 q 583 517 586 505 l 583 517 l 583 518 l 583 519 l 583 519 l 583 522 q 584 529 583 525 q 587 535 586 534 q 588 537 587 536 q 589 538 589 538 l 592 541 l 595 544 l 599 547 q 614 555 608 553 q 631 561 623 559 q 648 564 641 564 q 664 565 653 565 q 676 564 668 565 q 688 561 684 562 q 698 555 690 560 q 707 548 705 551 q 713 536 711 543 q 715 526 715 532 q 712 514 715 519 q 710 511 711 513 q 708 507 709 509 q 706 504 707 505 q 699 497 701 499 q 692 493 694 494 q 673 484 684 488 m 781 522 l 780 522 q 779 523 779 522 l 779 524 l 781 527 q 782 528 781 528 q 783 528 783 528 l 784 527 l 784 526 l 784 526 l 782 522 q 781 522 782 522 m 1001 491 q 1004 488 1004 490 q 1002 484 1004 486 q 993 481 999 482 q 956 488 989 480 q 903 487 927 494 q 865 488 878 479 q 863 490 864 489 q 861 491 862 490 q 861 492 861 492 l 861 492 l 855 482 l 852 477 q 850 472 850 473 l 846 467 q 842 463 845 465 q 836 458 839 458 q 835 475 833 459 l 837 485 l 839 495 q 841 500 840 497 q 842 505 842 504 q 835 494 838 498 q 828 485 833 490 q 820 476 824 479 q 812 474 816 473 q 809 476 810 475 q 808 486 807 479 q 803 479 808 486 q 792 468 796 471 q 782 471 784 464 q 781 488 780 479 q 760 457 773 477 q 758 451 758 454 q 755 446 757 448 q 741 410 743 415 q 734 398 737 401 l 732 395 q 731 395 731 395 q 730 395 731 395 l 729 396 q 728 401 728 397 q 729 408 728 403 q 740 431 731 414 q 757 458 751 450 q 770 494 769 492 l 770 493 l 766 490 q 763 487 764 488 q 756 489 758 485 l 755 486 l 753 482 q 751 480 753 481 q 750 479 750 479 q 747 476 749 477 q 739 478 741 472 q 740 490 737 482 q 739 489 739 490 l 738 488 q 734 487 735 487 q 732 488 733 487 q 732 491 732 490 q 733 496 732 493 q 734 500 734 500 q 721 487 727 494 q 711 472 714 479 l 710 471 l 709 472 l 709 473 q 713 490 711 481 q 716 499 714 493 q 719 508 718 505 q 649 470 696 471 l 649 470 l 648 470 l 648 470 l 648 471 l 648 471 l 648 471 l 648 471 l 648 472 l 649 472 l 649 472 q 690 484 669 472 q 723 519 711 495 q 724 520 723 520 q 726 519 726 520 l 726 519 l 726 518 l 724 513 l 718 495 q 715 487 716 492 q 713 483 715 486 q 712 478 712 479 q 720 490 713 479 q 729 500 721 492 l 735 505 l 736 507 l 737 507 q 739 508 738 508 q 740 507 740 508 l 740 506 q 739 504 740 505 q 737 501 737 502 q 734 488 731 490 q 741 492 736 488 q 754 507 745 505 q 756 505 756 507 l 757 505 q 758 503 758 503 l 758 500 l 758 497 q 758 496 758 496 l 758 495 l 757 492 l 757 492 l 757 490 l 758 488 q 760 487 760 487 q 764 489 761 487 l 768 495 q 772 500 771 499 l 772 500 l 772 502 q 774 503 772 503 l 774 503 l 774 503 l 774 502 l 775 502 l 774 502 l 775 501 q 762 465 768 481 q 768 473 764 468 q 775 483 772 479 q 781 492 778 488 l 783 494 q 790 507 785 502 q 799 511 794 513 q 802 500 804 509 q 791 484 795 484 q 788 486 789 484 l 788 487 q 789 487 789 488 q 791 486 789 486 q 797 493 793 486 l 797 494 q 798 508 802 507 q 791 502 795 509 q 785 486 787 494 q 785 471 783 477 q 795 473 789 465 q 802 481 798 476 q 806 487 806 486 q 807 489 806 488 q 809 491 808 490 l 810 492 l 810 492 q 817 506 812 500 q 828 511 821 512 q 833 509 831 511 q 833 503 835 506 q 827 499 831 500 q 823 501 824 498 q 826 503 823 503 q 828 503 827 503 q 831 503 829 501 q 832 507 833 504 q 827 510 831 511 q 812 486 819 508 q 812 476 809 477 q 829 488 819 475 q 845 515 839 501 l 838 514 q 837 515 837 514 q 838 516 837 516 l 846 517 q 854 538 847 521 q 857 539 854 541 q 859 537 859 538 q 849 517 853 527 q 874 518 863 519 q 893 520 886 517 q 901 532 901 523 l 903 533 q 906 527 905 531 q 902 519 907 524 q 888 515 897 515 q 870 516 879 515 q 848 515 861 517 q 842 494 845 509 q 840 491 841 493 q 840 488 840 489 q 840 485 840 487 q 839 483 840 484 l 836 472 q 836 460 834 461 q 842 463 838 459 q 847 470 846 467 l 848 473 q 851 478 850 474 q 854 483 853 481 q 857 488 854 485 q 860 494 859 492 q 859 496 859 495 q 859 502 858 499 q 861 506 859 505 q 864 506 863 507 q 861 493 867 503 q 865 490 862 492 q 903 488 878 480 q 956 489 927 495 q 992 482 989 481 q 1000 485 999 484 q 1002 488 1002 487 l 1000 490 q 998 490 1000 490 q 997 488 997 489 q 998 487 997 487 q 999 488 999 487 q 1001 487 1000 490 q 1000 486 1001 486 l 999 486 l 997 486 q 996 488 996 487 q 1001 491 996 493 m 741 478 q 751 481 744 472 q 755 490 754 486 q 752 490 753 490 q 749 494 749 491 l 749 500 l 751 504 l 751 503 q 749 502 750 503 l 749 500 l 747 499 q 743 489 745 496 q 741 481 741 484 q 741 479 741 480 q 741 478 741 479 m 755 492 q 756 498 756 496 q 755 504 757 502 l 754 504 q 753 503 753 503 q 753 501 753 502 q 752 499 752 500 q 751 495 751 498 q 755 492 751 493 m 753 447 q 753 448 753 448 l 753 448 q 742 429 752 446 q 732 408 735 417 q 731 405 732 407 q 730 401 730 402 q 730 397 730 398 q 732 399 731 397 q 738 410 734 403 q 753 447 742 420 m 863 505 q 860 501 861 505 q 861 494 859 498 q 863 505 867 503 m 623 671 q 624 664 623 671 q 616 646 625 657 q 594 632 608 634 q 568 640 581 631 q 554 663 556 650 q 560 688 551 676 q 583 701 569 699 q 608 694 595 703 q 623 671 621 685 m 578 653 q 602 656 591 643 q 599 680 612 670 q 586 684 592 685 q 574 677 578 682 q 578 653 565 664 m 409 741 l 412 726 l 390 720 l 393 711 l 413 716 l 416 703 l 396 697 l 398 688 l 422 694 l 425 679 l 385 669 l 370 730 l 409 741 m 526 670 l 509 673 l 510 710 l 488 677 l 482 677 l 471 717 l 460 681 l 443 684 l 463 745 l 480 743 l 490 706 l 510 738 l 528 735 l 526 670 m 302 695 q 327 702 315 704 q 348 688 340 700 q 353 664 356 677 q 339 643 351 651 l 318 628 l 281 680 l 302 695 m 333 678 q 323 685 329 684 q 311 682 317 686 l 305 677 l 323 652 l 329 656 q 333 678 342 665 m 497 233 l 492 232 l 469 266 l 470 229 l 452 226 l 452 290 l 469 293 l 490 261 l 499 298 l 516 301 l 536 239 l 518 237 l 508 272 l 497 233 m 594 341 q 616 328 607 340 q 623 303 625 316 q 608 280 621 290 q 583 272 596 271 q 560 286 569 274 q 553 311 551 297 q 568 333 555 324 q 594 341 580 342 m 599 293 q 602 317 612 303 q 590 323 598 322 q 578 320 585 324 q 574 296 565 309 q 599 293 585 282 m 416 280 l 394 286 l 391 277 l 412 272 l 408 258 l 387 264 l 385 254 l 408 248 l 404 233 l 363 245 l 381 306 l 420 295 l 416 280 m 344 314 q 345 308 344 314 q 337 291 346 302 q 315 279 328 280 q 291 287 302 278 l 271 303 l 311 353 l 331 336 q 344 314 342 327 m 315 329 l 295 304 l 300 300 q 323 302 313 290 q 320 325 333 315 l 315 329 m 593 570 q 585 571 587 567 q 529 623 564 604 q 454 642 494 642 q 378 623 413 642 q 322 570 343 604 q 315 568 320 566 q 313 576 311 570 q 373 632 336 611 q 454 653 410 653 q 534 632 497 653 q 594 577 571 612 q 593 570 597 572 m 593 414 q 601 417 596 420 q 604 410 606 414 q 543 343 583 368 q 454 318 503 318 q 363 345 404 318 q 302 416 322 372 q 304 423 299 420 l 305 423 q 311 420 309 424 q 369 354 330 379 q 454 329 408 329 q 536 352 499 329 q 593 414 574 376 m 629 642 q 634 640 632 642 q 663 600 654 616 q 661 592 666 595 q 653 594 655 589 q 625 633 640 616 q 626 641 622 637 q 629 642 627 642 m 677 439 q 682 443 679 443 l 684 443 q 688 437 690 441 q 644 339 677 384 q 636 338 640 335 q 635 345 632 342 q 677 439 667 387 m 218 484 q 279 643 218 574 q 283 645 281 645 q 287 644 286 645 q 288 636 291 640 q 229 484 229 572 q 278 342 229 404 q 277 335 281 339 q 270 336 273 331 q 218 484 218 401 z "},"&":{"ha":1107,"x_min":103,"x_max":1004,"o":"m 755 347 q 764 337 762 344 q 763 322 766 330 q 635 186 718 237 q 453 135 552 135 q 277 182 358 135 q 150 310 197 229 q 103 486 103 391 q 150 661 103 581 q 277 789 197 742 q 453 836 358 836 q 635 785 552 836 q 763 649 718 734 q 764 634 766 642 q 755 624 762 627 q 741 622 747 620 q 729 631 732 625 q 615 753 689 707 q 453 798 542 798 q 232 707 323 798 q 140 486 140 615 q 232 264 140 356 q 453 173 323 173 q 615 218 542 173 q 729 340 689 264 q 741 349 732 347 q 755 347 747 351 m 703 635 q 696 637 699 633 q 593 736 658 699 q 453 772 528 772 q 309 734 375 772 q 204 630 243 696 q 166 486 166 564 q 204 341 166 408 q 309 237 243 275 q 453 199 375 199 q 593 235 529 199 q 696 334 658 272 q 703 335 699 338 q 705 328 708 333 q 598 225 665 263 q 453 188 532 188 q 304 228 372 188 q 195 336 235 268 q 155 486 155 405 q 195 635 155 566 q 304 743 235 703 q 453 783 372 783 q 598 746 532 783 q 705 644 665 708 q 703 635 709 638 m 492 534 l 492 471 q 477 461 484 470 l 477 534 q 476 543 477 541 q 473 547 475 546 q 464 548 469 548 l 464 551 q 473 551 466 551 q 485 551 479 551 q 496 551 490 551 q 505 551 503 551 l 505 548 q 496 547 500 548 q 493 543 494 546 q 492 534 492 539 m 464 437 l 464 441 q 473 442 469 441 q 476 446 475 443 q 483 457 479 452 q 489 463 486 461 l 492 463 l 492 454 q 493 446 492 450 q 496 442 494 443 q 505 441 500 441 l 505 437 q 496 438 503 437 q 485 438 490 438 q 473 438 479 438 q 464 437 466 437 m 341 511 q 332 499 338 503 q 313 492 325 494 l 315 492 q 327 488 322 491 q 334 482 332 486 q 338 471 335 481 l 342 454 q 344 447 342 451 q 346 443 345 444 q 350 441 347 441 q 354 443 351 441 l 359 448 l 361 446 q 353 437 355 438 q 344 435 349 435 q 333 439 337 435 q 327 453 329 444 l 323 469 q 319 481 320 481 q 315 489 317 487 q 305 492 312 492 l 290 492 l 290 454 q 291 446 290 450 q 294 442 292 443 q 302 441 298 441 l 302 437 q 294 438 300 437 q 282 438 287 438 q 270 438 277 438 q 262 437 264 437 l 262 441 q 270 442 266 441 q 274 446 273 444 q 275 454 275 448 l 275 534 q 274 543 275 541 q 270 547 273 545 q 262 548 266 548 l 262 551 q 270 551 264 551 q 281 551 277 551 l 295 551 q 301 551 298 551 q 306 551 305 551 q 327 547 317 551 q 340 537 336 543 q 345 523 345 530 q 341 511 345 517 m 317 498 q 321 499 317 498 q 326 507 324 501 q 328 522 328 513 q 322 541 328 534 q 302 548 316 548 q 294 547 297 548 q 291 543 292 545 q 290 534 290 538 l 290 494 l 300 494 q 317 498 311 494 m 432 442 q 435 447 435 443 q 433 454 435 451 l 423 481 l 422 484 l 404 532 l 386 484 l 385 481 l 378 464 q 374 450 374 455 q 378 443 374 445 q 389 441 380 441 l 389 437 q 379 438 385 437 q 370 438 373 438 q 363 438 368 438 q 358 437 359 437 l 358 441 q 371 454 366 443 l 408 552 l 411 552 l 450 451 q 461 441 454 441 l 461 437 q 454 438 460 437 q 444 438 448 438 q 433 438 439 438 q 424 437 426 437 l 424 441 q 432 442 428 441 m 567 491 q 576 480 574 485 q 581 466 581 472 q 576 449 581 457 q 564 439 572 442 q 546 435 555 435 q 534 437 537 435 q 524 441 527 439 q 519 444 520 444 q 516 441 517 444 q 515 437 515 440 l 511 437 q 512 475 512 443 l 516 475 q 524 448 517 457 q 545 438 530 438 q 555 441 549 438 q 563 448 560 443 q 566 460 566 452 q 563 471 566 466 q 555 480 559 476 q 541 489 553 481 q 533 494 538 491 q 526 499 528 498 q 516 510 522 502 q 512 525 512 516 q 516 541 512 534 q 527 550 521 547 q 543 553 533 553 q 551 552 549 553 q 557 550 555 551 l 562 547 l 568 545 q 570 547 568 545 q 571 552 571 549 l 574 552 q 574 519 574 546 l 570 519 q 567 534 569 530 q 558 545 564 541 q 544 550 551 550 q 534 547 539 550 q 527 541 529 545 q 524 531 524 536 q 530 517 524 523 q 542 507 537 510 q 546 505 544 507 q 549 503 548 504 q 551 502 551 502 q 567 491 561 496 m 673 484 q 652 481 664 481 l 648 481 l 642 481 q 633 486 632 482 q 635 489 633 488 q 639 490 635 490 q 675 493 660 489 q 696 506 690 497 q 702 530 702 513 l 702 530 l 703 530 l 703 531 l 703 531 l 703 531 l 703 531 l 703 531 l 704 531 l 704 531 l 704 531 l 704 531 l 704 531 l 705 530 l 705 530 q 698 505 705 514 q 675 492 690 496 q 639 488 660 488 q 635 488 636 488 q 640 484 632 486 q 644 483 642 483 l 652 483 q 673 486 663 483 q 692 494 684 488 q 707 508 702 500 q 713 526 713 516 q 710 540 713 533 q 701 549 708 544 q 690 556 694 555 q 687 557 689 557 q 683 559 684 558 q 680 559 682 559 q 662 562 671 562 q 648 560 657 562 q 633 557 638 559 q 620 553 624 555 q 608 548 616 552 q 606 547 607 548 q 604 546 605 547 q 603 545 604 545 q 601 544 602 544 l 597 541 q 588 532 592 537 q 585 519 585 528 l 585 519 l 585 518 q 595 502 586 508 q 621 503 606 494 l 621 503 l 621 503 l 621 503 l 622 503 l 622 503 l 622 502 l 622 502 l 622 502 l 622 501 l 622 501 l 622 501 l 622 501 l 621 501 q 593 500 605 492 q 583 517 586 505 l 583 517 l 583 518 l 583 519 l 583 519 l 583 522 q 584 529 583 525 q 587 535 586 534 q 588 537 587 536 q 589 538 589 538 l 592 541 l 595 544 l 599 547 q 614 555 608 553 q 631 561 623 559 q 648 564 641 564 q 664 565 653 565 q 676 564 668 565 q 688 561 684 562 q 698 555 690 560 q 707 548 705 551 q 713 536 711 543 q 715 526 715 532 q 712 514 715 519 q 710 511 711 513 q 708 507 709 509 q 706 504 707 505 q 699 497 701 499 q 692 493 694 494 q 673 484 684 488 m 616 458 l 641 541 q 643 542 641 542 q 644 541 644 542 q 645 540 645 541 l 644 539 l 617 457 q 616 456 617 456 q 616 457 616 456 l 616 458 m 781 522 l 780 522 q 779 523 779 522 l 779 524 l 781 527 q 782 528 781 528 q 783 528 783 528 l 784 527 l 784 526 l 784 526 l 782 522 q 781 522 782 522 m 1001 491 q 1004 488 1004 490 q 1002 484 1004 486 q 993 481 999 482 q 956 488 989 480 q 903 487 927 494 q 865 488 878 479 q 863 490 864 489 q 861 491 862 490 q 861 492 861 492 l 861 492 l 855 482 l 852 477 q 850 472 850 473 l 846 467 q 842 463 845 465 q 836 458 839 458 q 835 475 833 459 l 837 485 l 839 495 q 841 500 840 497 q 842 505 842 504 q 835 494 838 498 q 828 485 833 490 q 820 476 824 479 q 812 474 816 473 q 809 476 810 475 q 808 486 807 479 q 803 479 808 486 q 792 468 796 471 q 782 471 784 464 q 781 488 780 479 q 760 457 773 477 q 758 451 758 454 q 755 446 757 448 q 741 410 743 415 q 734 398 737 401 l 732 395 q 731 395 731 395 q 730 395 731 395 l 729 396 q 728 401 728 397 q 729 408 728 403 q 740 431 731 414 q 757 458 751 450 q 770 494 769 492 l 770 493 l 766 490 q 763 487 764 488 q 756 489 758 485 l 755 486 l 753 482 q 751 480 753 481 q 750 479 750 479 q 747 476 749 477 q 739 478 741 472 q 740 490 737 482 q 739 489 739 490 l 738 488 q 734 487 735 487 q 732 488 733 487 q 732 491 732 490 q 733 496 732 493 q 734 500 734 500 q 721 487 727 494 q 711 472 714 479 l 710 471 l 709 472 l 709 473 q 713 490 711 481 q 716 499 714 493 q 719 508 718 505 q 649 470 696 471 l 649 470 l 648 470 l 648 470 l 648 471 l 648 471 l 648 471 l 648 471 l 648 472 l 649 472 l 649 472 q 690 484 669 472 q 723 519 711 495 q 724 520 723 520 q 726 519 726 520 l 726 519 l 726 518 l 724 513 l 718 495 q 715 487 716 492 q 713 483 715 486 q 712 478 712 479 q 720 490 713 479 q 729 500 721 492 l 735 505 l 736 507 l 737 507 q 739 508 738 508 q 740 507 740 508 l 740 506 q 739 504 740 505 q 737 501 737 502 q 734 488 731 490 q 741 492 736 488 q 754 507 745 505 q 756 505 756 507 l 757 505 q 758 503 758 503 l 758 500 l 758 497 q 758 496 758 496 l 758 495 l 757 492 l 757 492 l 757 490 l 758 488 q 760 487 760 487 q 764 489 761 487 l 768 495 q 772 500 771 499 l 772 500 l 772 502 q 774 503 772 503 l 774 503 l 774 503 l 774 502 l 775 502 l 774 502 l 775 501 q 762 465 768 481 q 768 473 764 468 q 775 483 772 479 q 781 492 778 488 l 783 494 q 790 507 785 502 q 799 511 794 513 q 802 500 804 509 q 791 484 795 484 q 788 486 789 484 l 788 487 q 789 487 789 488 q 791 486 789 486 q 797 493 793 486 l 797 494 q 798 508 802 507 q 791 502 795 509 q 785 486 787 494 q 785 471 783 477 q 795 473 789 465 q 802 481 798 476 q 806 487 806 486 q 807 489 806 488 q 809 491 808 490 l 810 492 l 810 492 q 817 506 812 500 q 828 511 821 512 q 833 509 831 511 q 833 503 835 506 q 827 499 831 500 q 823 501 824 498 q 826 503 823 503 q 828 503 827 503 q 831 503 829 501 q 832 507 833 504 q 827 510 831 511 q 812 486 819 508 q 812 476 809 477 q 829 488 819 475 q 845 515 839 501 l 838 514 q 837 515 837 514 q 838 516 837 516 l 846 517 q 854 538 847 521 q 857 539 854 541 q 859 537 859 538 q 849 517 853 527 q 874 518 863 519 q 893 520 886 517 q 901 532 901 523 l 903 533 q 906 527 905 531 q 902 519 907 524 q 888 515 897 515 q 870 516 879 515 q 848 515 861 517 q 842 494 845 509 q 840 491 841 493 q 840 488 840 489 q 840 485 840 487 q 839 483 840 484 l 836 472 q 836 460 834 461 q 842 463 838 459 q 847 470 846 467 l 848 473 q 851 478 850 474 q 854 483 853 481 q 857 488 854 485 q 860 494 859 492 q 859 496 859 495 q 859 502 858 499 q 861 506 859 505 q 864 506 863 507 q 861 493 867 503 q 865 490 862 492 q 903 488 878 480 q 956 489 927 495 q 992 482 989 481 q 1000 485 999 484 q 1002 488 1002 487 l 1000 490 q 998 490 1000 490 q 997 488 997 489 q 998 487 997 487 q 999 488 999 487 q 1001 487 1000 490 q 1000 486 1001 486 l 999 486 l 997 486 q 996 488 996 487 q 1001 491 996 493 m 741 478 q 751 481 744 472 q 755 490 754 486 q 752 490 753 490 q 749 494 749 491 l 749 500 l 751 504 l 751 503 q 749 502 750 503 l 749 500 l 747 499 q 743 489 745 496 q 741 481 741 484 q 741 479 741 480 q 741 478 741 479 m 755 492 q 756 498 756 496 q 755 504 757 502 l 754 504 q 753 503 753 503 q 753 501 753 502 q 752 499 752 500 q 751 495 751 498 q 755 492 751 493 m 753 447 q 753 448 753 448 l 753 448 q 742 429 752 446 q 732 408 735 417 q 731 405 732 407 q 730 401 730 402 q 730 397 730 398 q 732 399 731 397 q 738 410 734 403 q 753 447 742 420 m 863 505 q 860 501 861 505 q 861 494 859 498 q 863 505 867 503 m 526 670 l 509 673 l 510 710 l 488 677 l 482 677 l 471 717 l 460 681 l 443 684 l 463 745 l 480 743 l 490 706 l 510 738 l 528 735 l 526 670 m 623 671 q 624 664 623 671 q 616 646 625 657 q 594 632 608 634 q 568 640 581 631 q 554 663 556 650 q 560 688 551 676 q 583 701 569 699 q 608 694 595 703 q 623 671 621 685 m 578 653 q 602 656 591 643 q 599 680 612 670 q 586 684 592 685 q 574 677 578 682 q 578 653 565 664 m 409 741 l 412 726 l 390 720 l 393 711 l 413 716 l 416 703 l 396 697 l 398 688 l 422 694 l 425 679 l 385 669 l 370 730 l 409 741 m 302 695 q 327 702 315 704 q 348 688 340 700 q 353 664 356 677 q 339 643 351 651 l 318 628 l 281 680 l 302 695 m 333 678 q 323 685 329 684 q 311 682 317 686 l 305 677 l 323 652 l 329 656 q 333 678 342 665 m 497 233 l 492 232 l 469 266 l 470 229 l 452 226 l 452 290 l 469 293 l 490 261 l 499 298 l 516 301 l 536 239 l 518 237 l 508 272 l 497 233 m 416 280 l 394 286 l 391 277 l 412 272 l 408 258 l 387 264 l 385 254 l 408 248 l 404 233 l 363 245 l 381 306 l 420 295 l 416 280 m 344 314 q 345 308 344 314 q 337 291 346 302 q 315 279 328 280 q 291 287 302 278 l 271 303 l 311 353 l 331 336 q 344 314 342 327 m 315 329 l 295 304 l 300 300 q 323 302 313 290 q 320 325 333 315 l 315 329 m 594 341 q 616 328 607 340 q 623 303 625 316 q 608 280 621 290 q 583 272 596 271 q 560 286 569 274 q 553 311 551 297 q 568 333 555 324 q 594 341 580 342 m 599 293 q 602 317 612 303 q 590 323 598 322 q 578 320 585 324 q 574 296 565 309 q 599 293 585 282 m 593 414 q 601 417 596 420 q 604 410 606 414 q 543 343 583 368 q 454 318 503 318 q 363 345 404 318 q 302 416 322 372 q 304 423 299 420 l 305 423 q 311 420 309 424 q 369 354 330 379 q 454 329 408 329 q 536 352 499 329 q 593 414 574 376 m 593 570 q 585 571 587 567 q 529 623 564 604 q 454 642 494 642 q 378 623 413 642 q 322 570 343 604 q 315 568 320 566 q 313 576 311 570 q 374 632 336 611 q 454 653 411 653 q 534 632 498 653 q 594 577 571 612 q 593 570 597 572 m 218 484 q 279 643 218 574 q 283 645 281 645 q 287 644 286 645 q 288 636 291 640 q 229 484 229 572 q 278 342 229 404 q 277 335 281 339 q 270 336 273 331 q 218 484 218 401 m 677 439 q 682 443 679 443 l 684 443 q 688 437 690 441 q 644 339 677 384 q 636 338 640 335 q 635 345 632 342 q 677 439 667 387 m 629 642 q 634 640 632 642 q 663 600 654 616 q 661 592 666 595 q 653 594 655 589 q 625 633 640 616 q 626 641 622 637 q 629 642 627 642 z "}}}
